<svg xmlns="http://www.w3.org/2000/svg" xmlns:xlink="http://www.w3.org/1999/xlink" width="293.474" height="235.488" viewBox="0 0 293.474 235.488"><defs><style>.a,.b{fill:#263238;}.b,.c,.e,.f,.g,.h,.i,.k,.l,.m,.n,.o{stroke:#263238;}.b,.c,.g,.h,.i,.k,.l,.m,.n,.o,.q{stroke-linecap:round;stroke-linejoin:round;}.c,.e,.k,.l,.o,.q{fill:none;}.d,.m{fill:#1ea7fc;}.e,.f{stroke-miterlimit:10;}.f,.i,.j{fill:#fff;}.g{fill:#8c8c8c;}.h{fill:#696969;}.k{stroke-width:3px;}.l{stroke-width:6px;}.n{fill:#ffbe9d;}.o{stroke-width:2px;}.p{clip-path:url(#a);}.q{stroke:#737373;}.r{clip-path:url(#b);}</style><clipPath id="a"><path class="a" d="M253.749,131s5.834,18.738,14.693,23.579c-.194-6.428-.423-12.462-.5-16.372-.225-10.81-15.764-20.494-31.529-18.017s-23.872,11.711-22.971,20.269c0,0-.074,5.886-.072,13.345C220.984,150.524,241.011,141.405,253.749,131Z" transform="translate(-213.365 -119.798)"/></clipPath><clipPath id="b"><path class="b" d="M271.71,231.169s0,8.168-6.126,21.185-6.381,26.034-2.3,35.732,15.059,13.527,26.8,9.188,13.272-23.737,12-35.478-12.761-25.523-15.314-32.414-4.339-10.465-4.339-10.465-6.636,9.188-10.719,11.23Z" transform="translate(-260.547 -218.918)"/></clipPath></defs><g transform="translate(-28.5 -105.867)"><g transform="translate(29 237.376)"><line class="c" x2="292.474" transform="translate(0 103.479)"/><g transform="translate(15.227)"><path class="d" d="M65.986,381.644s-17.765-31.2-13.665-39.132S66.9,348.859,66.9,348.859s-9.11-29.085-4.1-41.776,13.665,0,14.121,8.989S75.1,340.4,75.1,340.4s3.644-31.728,12.3-22.209-10.932,41.247-10.932,41.247,13.209-7.4,12.754,2.115-15.943,17.98-15.943,17.98" transform="translate(-51.707 -301.728)"/><path class="e" d="M68,382.591s-16.44-15.336-8.431-22.21,12.224,7.4,12.224,7.4-8.852-43.892,5.48-45.478,3.794,38.074,3.794,38.074,12.225-16.922,11.382-3.173-18.969,25.383-18.969,25.383" transform="translate(-53.574 -308.492)"/><line class="e" x1="11.111" y1="12.037" transform="translate(11.394 59.271)"/><line class="e" y1="35.185" x2="3.009" transform="translate(20.19 37.049)"/><line class="e" y1="13.194" x2="9.954" transform="translate(19.727 56.494)"/><path class="a" d="M87.5,401.988H56.768l3.073,36.246H84.425Z" transform="translate(-53.374 -334.755)"/></g></g><g transform="translate(61.619 106.371)"><g transform="translate(162.942 14.342)"><path class="f" d="M372.534,127.773l-34.784,2.155a7.672,7.672,0,0,0-7.2,7.755l.177,13.968-10.1,1.082,10.185,5.257a7.672,7.672,0,0,0,7.812,7.566l33.748-.619a7.672,7.672,0,0,0,7.526-7.4l.78-21.834A7.673,7.673,0,0,0,372.534,127.773Z" transform="translate(-320.625 -127.758)"/><g transform="translate(21.909 3.624)"><g transform="translate(0.169)"><rect class="g" width="22.766" height="14.334"/><rect class="h" width="12.929" height="14.334" transform="translate(9.837)"/><rect class="i" width="9.275" height="14.334" transform="translate(6.746)"/></g><g transform="translate(0 19.38)"><path class="a" d="M353.3,168.62v-3.644a3.123,3.123,0,0,1,6.228-.053c0,.08-.066.133-.172.146l-.6.04c-.105.013-.172-.027-.172-.08v-.079a2.175,2.175,0,0,0-4.345,0v3.71a2.175,2.175,0,0,0,4.345,0,.137.137,0,0,1,.172-.146l.6.027c.106,0,.172.026.172.066v.066a3.121,3.121,0,0,1-6.228-.053Z" transform="translate(-353.296 -162.061)"/><path class="a" d="M365.231,162.895a.716.716,0,1,1,.716.689A.665.665,0,0,1,365.231,162.895Zm.252,8.427v-6.36a.16.16,0,0,1,.172-.172h.6a.16.16,0,0,1,.172.172v6.36a.16.16,0,0,1-.172.172h-.6A.16.16,0,0,1,365.483,171.322Z" transform="translate(-357.227 -162.113)"/><path class="a" d="M374.892,168.121v4.412a.16.16,0,0,1-.172.172h-.6a.16.16,0,0,1-.172-.172v-.477c0-.053-.04-.08-.08-.027a2.8,2.8,0,0,1-2.067.782,1.923,1.923,0,0,1-2.185-1.935c0-1.325,1.007-2.147,2.729-2.147h1.537a.063.063,0,0,0,.066-.066v-.49a1.348,1.348,0,0,0-1.55-1.457c-.835,0-1.378.344-1.524.9a.159.159,0,0,1-.2.133l-.65-.08c-.106-.013-.172-.053-.159-.146a2.3,2.3,0,0,1,2.518-1.63A2.2,2.2,0,0,1,374.892,168.121Zm-.941,2.438v-1.02a.063.063,0,0,0-.066-.066h-1.391c-1.153,0-1.935.49-1.935,1.351,0,.809.65,1.18,1.458,1.18C373,172,373.951,171.486,373.951,170.559Z" transform="translate(-358.673 -163.324)"/><path class="a" d="M380.255,170.97a5.83,5.83,0,0,1-.185-1.63,6.143,6.143,0,0,1,.172-1.616,2.753,2.753,0,0,1,5.181-.013,5.943,5.943,0,0,1,.186,1.63,5.828,5.828,0,0,1-.186,1.63,2.734,2.734,0,0,1-5.168,0Zm4.294-.278a6.175,6.175,0,0,0,.106-1.339,5.731,5.731,0,0,0-.106-1.339,1.774,1.774,0,0,0-3.419,0,5.878,5.878,0,0,0-.106,1.339,5.8,5.8,0,0,0,.106,1.339,1.774,1.774,0,0,0,3.419,0Z" transform="translate(-362.116 -163.324)"/></g></g></g><g transform="translate(16.518)"><path class="f" d="M154.976,137.915,141.23,134.2l3.119-20.379a6.471,6.471,0,0,0-6.923-7.428l-29.209,2.385a6.47,6.47,0,0,0-5.923,6.968l2.151,26.732a6.47,6.47,0,0,0,6.195,5.946l22.465.887a6.471,6.471,0,0,0,6.652-5.487l.584-3.818Z" transform="translate(-102.273 -106.371)"/><g transform="translate(9.356 5.723)"><rect class="g" width="22.766" height="14.334" transform="translate(0.155)"/><rect class="i" width="22.766" height="7.397" transform="translate(0.155 3.469)"/><g transform="translate(0 19.486)"><path class="a" d="M121.671,143.963h.6a.16.16,0,0,1,.172.172v8.931a.16.16,0,0,1-.172.172h-.6a.159.159,0,0,1-.172-.172v-4.015a.062.062,0,0,0-.066-.066h-4.2a.062.062,0,0,0-.066.066v4.015a.16.16,0,0,1-.172.172h-.6a.16.16,0,0,1-.172-.172v-8.931a.16.16,0,0,1,.172-.172h.6a.161.161,0,0,1,.172.172V148.1a.062.062,0,0,0,.066.066h4.2a.062.062,0,0,0,.066-.066v-3.962A.16.16,0,0,1,121.671,143.963Z" transform="translate(-116.225 -143.963)"/><path class="a" d="M128.741,152.714a5.829,5.829,0,0,1-.186-1.63,6.181,6.181,0,0,1,.172-1.617,2.753,2.753,0,0,1,5.182-.013,5.952,5.952,0,0,1,.185,1.63,5.831,5.831,0,0,1-.185,1.63,2.734,2.734,0,0,1-5.168,0Zm4.293-.278a6.179,6.179,0,0,0,.106-1.339,5.727,5.727,0,0,0-.106-1.339,1.774,1.774,0,0,0-3.419,0,5.874,5.874,0,0,0-.106,1.339,5.8,5.8,0,0,0,.106,1.339,1.774,1.774,0,0,0,3.419,0Z" transform="translate(-120.287 -145.174)"/><path class="a" d="M139.66,153.066v-8.931a.16.16,0,0,1,.172-.172h.6a.16.16,0,0,1,.172.172v8.931a.16.16,0,0,1-.172.172h-.6A.16.16,0,0,1,139.66,153.066Z" transform="translate(-123.945 -143.963)"/><path class="a" d="M148.846,149.864v4.412a.16.16,0,0,1-.172.172h-.6a.16.16,0,0,1-.172-.172V153.8c0-.053-.04-.08-.079-.027a2.8,2.8,0,0,1-2.067.782,1.923,1.923,0,0,1-2.186-1.935c0-1.325,1.007-2.147,2.729-2.147h1.537a.063.063,0,0,0,.066-.066v-.49a1.348,1.348,0,0,0-1.55-1.457c-.835,0-1.377.344-1.524.9a.16.16,0,0,1-.2.133l-.65-.08c-.106-.013-.172-.053-.159-.146a2.306,2.306,0,0,1,2.518-1.63A2.2,2.2,0,0,1,148.846,149.864ZM147.9,152.3v-1.021a.062.062,0,0,0-.066-.066h-1.391c-1.153,0-1.935.49-1.935,1.351,0,.808.65,1.18,1.458,1.18C146.951,153.747,147.9,153.23,147.9,152.3Z" transform="translate(-125.233 -145.174)"/></g></g></g><g transform="translate(185.295 66.587)"><path class="f" d="M394.417,205.667H376.535A13.635,13.635,0,0,0,362.9,219.3v5.038L353.958,224l8.941,5.831v3.78a13.636,13.636,0,0,0,13.636,13.636h17.882a13.636,13.636,0,0,0,13.636-13.636V219.3A13.635,13.635,0,0,0,394.417,205.667Z" transform="translate(-353.958 -205.667)"/><g transform="translate(19.023 5.95)"><g transform="translate(0 19.486)"><path class="a" d="M387.771,243.6h.6a.16.16,0,0,1,.172.172V252.7a.159.159,0,0,1-.172.172h-.6a.16.16,0,0,1-.172-.172v-4.015a.063.063,0,0,0-.066-.066h-4.2a.063.063,0,0,0-.066.066V252.7a.16.16,0,0,1-.172.172h-.6a.16.16,0,0,1-.172-.172v-8.931a.16.16,0,0,1,.172-.172h.6a.16.16,0,0,1,.172.172v3.962a.062.062,0,0,0,.066.066h4.2a.062.062,0,0,0,.066-.066v-3.962A.16.16,0,0,1,387.771,243.6Z" transform="translate(-382.325 -243.597)"/><path class="a" d="M399.18,252.388a.152.152,0,0,1,.225-.08l.384.213c.093.053.133.132.08.225a2.6,2.6,0,0,1-2.464,1.444,2.445,2.445,0,0,1-2.479-1.656,5.2,5.2,0,0,1-.252-1.829,6.208,6.208,0,0,1,.119-1.537,2.5,2.5,0,0,1,2.558-1.894,2.473,2.473,0,0,1,2.65,2.279,7.014,7.014,0,0,1,.08,1.325.16.16,0,0,1-.172.172h-4.24a.063.063,0,0,0-.066.066,4.214,4.214,0,0,0,.079.967,1.721,1.721,0,0,0,1.8,1.3A1.825,1.825,0,0,0,399.18,252.388Zm-3.472-3.048a3.719,3.719,0,0,0-.106.9.062.062,0,0,0,.066.066h3.405a.062.062,0,0,0,.066-.066,5.534,5.534,0,0,0-.08-.848,1.653,1.653,0,0,0-1.709-1.3A1.577,1.577,0,0,0,395.708,249.34Z" transform="translate(-386.393 -244.808)"/><path class="a" d="M405.522,252.7v-8.931a.16.16,0,0,1,.172-.172h.6a.16.16,0,0,1,.172.172V252.7a.159.159,0,0,1-.172.172h-.6A.16.16,0,0,1,405.522,252.7Z" transform="translate(-389.966 -243.597)"/><path class="a" d="M410.107,252.7v-8.931a.16.16,0,0,1,.172-.172h.6a.16.16,0,0,1,.172.172V252.7a.159.159,0,0,1-.172.172h-.6A.16.16,0,0,1,410.107,252.7Z" transform="translate(-391.477 -243.597)"/><path class="a" d="M414.56,252.348a5.829,5.829,0,0,1-.185-1.63,6.176,6.176,0,0,1,.172-1.616,2.753,2.753,0,0,1,5.182-.013,5.945,5.945,0,0,1,.185,1.63,5.829,5.829,0,0,1-.185,1.63,2.734,2.734,0,0,1-5.168,0Zm4.293-.278a6.174,6.174,0,0,0,.107-1.339,5.729,5.729,0,0,0-.107-1.338,1.774,1.774,0,0,0-3.418,0,5.872,5.872,0,0,0-.107,1.338,5.8,5.8,0,0,0,.107,1.339,1.774,1.774,0,0,0,3.418,0Z" transform="translate(-392.883 -244.808)"/></g><g transform="translate(1.219)"><rect class="i" width="22.766" height="14.334"/><rect class="a" width="22.766" height="1.386" transform="translate(0.117)"/><rect class="a" width="22.766" height="1.386" transform="translate(0.117 2.171)"/><rect class="a" width="22.766" height="1.386" transform="translate(0.117 4.343)"/><rect class="a" width="22.766" height="1.386" transform="translate(0.117 6.514)"/><rect class="a" width="22.766" height="1.386" transform="translate(0.117 8.685)"/><rect class="a" width="22.766" height="1.386" transform="translate(0.117 10.857)"/><rect class="a" width="22.766" height="1.386" transform="translate(0.117 13.028)"/><rect class="a" width="11.036" height="7.64"/><g transform="translate(0.117 0.646)"><path class="j" d="M384.629,215.5l.1.214.216.034-.156.167.037.236-.193-.111-.193.111.037-.236-.156-.167.216-.034Z" transform="translate(-384.316 -215.502)"/><path class="j" d="M384.629,217.606l.1.214.216.034-.156.167.037.236-.193-.111-.193.111.037-.236-.156-.167.216-.034Z" transform="translate(-384.316 -216.195)"/><path class="j" d="M384.629,219.71l.1.214.216.034-.156.167.037.236-.193-.111-.193.111.037-.236-.156-.167.216-.034Z" transform="translate(-384.316 -216.888)"/><path class="j" d="M384.629,221.815l.1.214.216.034-.156.167.037.236-.193-.111-.193.111.037-.236-.156-.167.216-.034Z" transform="translate(-384.316 -217.582)"/><path class="j" d="M384.629,223.919l.1.214.216.034-.156.167.037.236-.193-.111-.193.111.037-.236-.156-.167.216-.034Z" transform="translate(-384.316 -218.275)"/><path class="j" d="M386.133,216.732l.1.214.216.034-.156.167.037.236-.193-.111-.193.111.037-.236-.156-.167.216-.034Z" transform="translate(-384.812 -215.907)"/><path class="j" d="M386.133,218.836l.1.214.216.034-.156.167.037.236-.193-.111-.193.111.037-.236-.156-.167.216-.034Z" transform="translate(-384.812 -216.6)"/><path class="j" d="M386.133,220.94l.1.214.216.034-.156.167.037.236-.193-.111-.193.111.037-.236-.156-.167.216-.034Z" transform="translate(-384.812 -217.294)"/><path class="j" d="M386.133,223.044l.1.214.216.034-.156.167.037.236-.193-.111-.193.111.037-.236-.156-.167.216-.034Z" transform="translate(-384.812 -217.987)"/><g transform="translate(2.017)"><path class="j" d="M387.637,215.5l.1.214.216.034-.156.167.037.236-.193-.111-.193.111.037-.236-.156-.167.216-.034Z" transform="translate(-387.324 -215.502)"/><path class="j" d="M387.637,217.606l.1.214.216.034-.156.167.037.236-.193-.111-.193.111.037-.236-.156-.167.216-.034Z" transform="translate(-387.324 -216.195)"/><path class="j" d="M387.637,219.71l.1.214.216.034-.156.167.037.236-.193-.111-.193.111.037-.236-.156-.167.216-.034Z" transform="translate(-387.324 -216.888)"/><path class="j" d="M387.637,221.815l.1.214.216.034-.156.167.037.236-.193-.111-.193.111.037-.236-.156-.167.216-.034Z" transform="translate(-387.324 -217.582)"/><path class="j" d="M387.637,223.919l.1.214.216.034-.156.167.037.236-.193-.111-.193.111.037-.236-.156-.167.216-.034Z" transform="translate(-387.324 -218.275)"/><path class="j" d="M389.141,216.732l.1.214.216.034-.156.167.037.236-.193-.111-.193.111.037-.236-.156-.167.216-.034Z" transform="translate(-387.82 -215.907)"/><path class="j" d="M389.141,218.836l.1.214.216.034-.156.167.037.236-.193-.111-.193.111.037-.236-.156-.167.216-.034Z" transform="translate(-387.82 -216.6)"/><path class="j" d="M389.141,220.94l.1.214.216.034-.156.167.037.236-.193-.111-.193.111.037-.236-.156-.167.216-.034Z" transform="translate(-387.82 -217.294)"/><path class="j" d="M389.141,223.044l.1.214.216.034-.156.167.037.236-.193-.111-.193.111.037-.236-.156-.167.216-.034Z" transform="translate(-387.82 -217.987)"/></g><g transform="translate(4.034)"><path class="j" d="M390.645,215.5l.1.214.216.034-.156.167.037.236-.193-.111-.193.111.037-.236-.156-.167.216-.034Z" transform="translate(-390.332 -215.502)"/><path class="j" d="M390.645,217.606l.1.214.216.034-.156.167.037.236-.193-.111-.193.111.037-.236-.156-.167.216-.034Z" transform="translate(-390.332 -216.195)"/><path class="j" d="M390.645,219.71l.1.214.216.034-.156.167.037.236-.193-.111-.193.111.037-.236-.156-.167.216-.034Z" transform="translate(-390.332 -216.888)"/><path class="j" d="M390.645,221.815l.1.214.216.034-.156.167.037.236-.193-.111-.193.111.037-.236-.156-.167.216-.034Z" transform="translate(-390.332 -217.582)"/><path class="j" d="M390.645,223.919l.1.214.216.034-.156.167.037.236-.193-.111-.193.111.037-.236-.156-.167.216-.034Z" transform="translate(-390.332 -218.275)"/><path class="j" d="M392.149,216.732l.1.214.216.034-.156.167.037.236-.193-.111-.193.111.037-.236-.156-.167.216-.034Z" transform="translate(-390.828 -215.907)"/><path class="j" d="M392.149,218.836l.1.214.216.034-.156.167.037.236-.193-.111-.193.111.037-.236-.156-.167.216-.034Z" transform="translate(-390.828 -216.6)"/><path class="j" d="M392.149,220.94l.1.214.216.034-.156.167.037.236-.193-.111-.193.111.037-.236-.156-.167.216-.034Z" transform="translate(-390.828 -217.294)"/><path class="j" d="M392.149,223.044l.1.214.216.034-.156.167.037.236-.193-.111-.193.111.037-.236-.156-.167.216-.034Z" transform="translate(-390.828 -217.987)"/></g><g transform="translate(6.051)"><path class="j" d="M393.653,215.5l.1.214.216.034-.156.167.037.236-.193-.111-.193.111.037-.236-.156-.167.216-.034Z" transform="translate(-393.34 -215.502)"/><path class="j" d="M393.653,217.606l.1.214.216.034-.156.167.037.236-.193-.111-.193.111.037-.236-.156-.167.216-.034Z" transform="translate(-393.34 -216.195)"/><path class="j" d="M393.653,219.71l.1.214.216.034-.156.167.037.236-.193-.111-.193.111.037-.236-.156-.167.216-.034Z" transform="translate(-393.34 -216.888)"/><path class="j" d="M393.653,221.815l.1.214.216.034-.156.167.037.236-.193-.111-.193.111.037-.236-.156-.167.216-.034Z" transform="translate(-393.34 -217.582)"/><path class="j" d="M393.653,223.919l.1.214.216.034-.156.167.037.236-.193-.111-.193.111.037-.236-.156-.167.216-.034Z" transform="translate(-393.34 -218.275)"/><path class="j" d="M395.157,216.732l.1.214.216.034-.156.167.037.236-.193-.111-.193.111.037-.236-.156-.167.216-.034Z" transform="translate(-393.835 -215.907)"/><path class="j" d="M395.157,218.836l.1.214.216.034-.156.167.037.236-.193-.111-.193.111.037-.236-.156-.167.216-.034Z" transform="translate(-393.835 -216.6)"/><path class="j" d="M395.157,220.94l.1.214.216.034-.156.167.037.236-.193-.111-.193.111.037-.236-.156-.167.216-.034Z" transform="translate(-393.835 -217.294)"/><path class="j" d="M395.157,223.044l.1.214.216.034-.156.167.037.236-.193-.111-.193.111.037-.236-.156-.167.216-.034Z" transform="translate(-393.835 -217.987)"/></g><g transform="translate(8.068)"><path class="j" d="M396.66,215.5l.1.214.216.034-.156.167.037.236-.193-.111-.193.111.037-.236-.156-.167.216-.034Z" transform="translate(-396.348 -215.502)"/><path class="j" d="M396.66,217.606l.1.214.216.034-.156.167.037.236-.193-.111-.193.111.037-.236-.156-.167.216-.034Z" transform="translate(-396.348 -216.195)"/><path class="j" d="M396.66,219.71l.1.214.216.034-.156.167.037.236-.193-.111-.193.111.037-.236-.156-.167.216-.034Z" transform="translate(-396.348 -216.888)"/><path class="j" d="M396.66,221.815l.1.214.216.034-.156.167.037.236-.193-.111-.193.111.037-.236-.156-.167.216-.034Z" transform="translate(-396.348 -217.582)"/><path class="j" d="M396.66,223.919l.1.214.216.034-.156.167.037.236-.193-.111-.193.111.037-.236-.156-.167.216-.034Z" transform="translate(-396.348 -218.275)"/><path class="j" d="M398.164,216.732l.1.214.216.034-.156.167.037.236-.193-.111-.193.111.037-.236-.156-.167.216-.034Z" transform="translate(-396.843 -215.907)"/><path class="j" d="M398.164,218.836l.1.214.216.034-.156.167.037.236-.193-.111-.193.111.037-.236-.156-.167.216-.034Z" transform="translate(-396.843 -216.6)"/><path class="j" d="M398.164,220.94l.1.214.216.034-.156.167.037.236-.193-.111-.193.111.037-.236-.156-.167.216-.034Z" transform="translate(-396.843 -217.294)"/><path class="j" d="M398.164,223.044l.1.214.216.034-.156.167.037.236-.193-.111-.193.111.037-.236-.156-.167.216-.034Z" transform="translate(-396.843 -217.987)"/></g><g transform="translate(10.085)"><path class="j" d="M399.668,215.5l.1.214.216.034-.156.167.037.236-.193-.111-.193.111.037-.236-.156-.167.216-.034Z" transform="translate(-399.355 -215.502)"/><path class="j" d="M399.668,217.606l.1.214.216.034-.156.167.037.236-.193-.111-.193.111.037-.236-.156-.167.216-.034Z" transform="translate(-399.355 -216.195)"/><path class="j" d="M399.668,219.71l.1.214.216.034-.156.167.037.236-.193-.111-.193.111.037-.236-.156-.167.216-.034Z" transform="translate(-399.355 -216.888)"/><path class="j" d="M399.668,221.815l.1.214.216.034-.156.167.037.236-.193-.111-.193.111.037-.236-.156-.167.216-.034Z" transform="translate(-399.355 -217.582)"/><path class="j" d="M399.668,223.919l.1.214.216.034-.156.167.037.236-.193-.111-.193.111.037-.236-.156-.167.216-.034Z" transform="translate(-399.355 -218.275)"/></g></g></g></g></g><g transform="translate(0 71.229)"><path class="f" d="M134.814,228.683H123.063a23.008,23.008,0,1,0,1.074,6.929c0-.172-.009-.343-.013-.514Z" transform="translate(-77.642 -212.589)"/><g transform="translate(10.42 7.118)"><g transform="translate(0 18.469)"><path class="a" d="M95.128,255.847a15.993,15.993,0,0,1-1.378,2.067,6.646,6.646,0,0,0-.569-.716,19.969,19.969,0,0,0,3.193-6.453l1.1.331c-.053.133-.172.159-.318.146a29.454,29.454,0,0,1-1.259,3.14l.384.106c-.027.079-.093.146-.266.159v8.427h-.888Zm9.077.318c.106-.49.239-1.233.357-1.948h-2.637v7.739c0,.954-.345,1.127-2.2,1.127a3.668,3.668,0,0,0-.332-.915c.332.013.649.013.9.013h.53c.172,0,.225-.053.225-.225v-7.739H98.918a11.327,11.327,0,0,1-1.365,2.5,3.89,3.89,0,0,0-.675-.543,14.45,14.45,0,0,0,2.186-5.394l1.1.292c-.026.093-.119.146-.292.133a20.524,20.524,0,0,1-.636,2.173h5.856l.465.013a22.468,22.468,0,0,1-.6,2.915Zm-4.24.437c-.04.093-.133.146-.292.146a12.971,12.971,0,0,1-1.988,4.426,4.25,4.25,0,0,0-.7-.45,12.121,12.121,0,0,0,1.908-4.413Zm4.81,4.465a18.341,18.341,0,0,0-1.815-4.571l.782-.278a17.52,17.52,0,0,1,1.882,4.532Z" transform="translate(-93.181 -250.745)"/><path class="a" d="M117.677,253.521l.5.133-.079.185a17.285,17.285,0,0,1-1.271,5.7,9.5,9.5,0,0,1,1.563,1.444l-.543.729a9.426,9.426,0,0,0-1.418-1.378,7.163,7.163,0,0,1-2.623,2.77,3.664,3.664,0,0,0-.557-.729,6.263,6.263,0,0,0,2.491-2.584,17.57,17.57,0,0,0-1.51-1.021l-.159.583-.756-.4c.331-1.166.743-2.849,1.127-4.559h-1.325v-.835h1.511c.212-.994.4-1.948.556-2.8l1.087.132c-.013.093-.093.146-.265.16-.146.755-.331,1.616-.53,2.5h2.041Zm-2.385.874c-.278,1.233-.583,2.478-.862,3.565.557.3,1.127.676,1.683,1.047a15.725,15.725,0,0,0,1.1-4.612Zm10.111,2.279v.861h-3.193v4.386c0,1.02-.4,1.18-2.743,1.153a4.566,4.566,0,0,0-.331-.888c.636.013,1.219.026,1.59.026.451,0,.583,0,.583-.278v-4.4H118.06v-.861h3.247v-2.252l.437.026a13.174,13.174,0,0,0,1.961-2.16h-5.1v-.835h5.777l.172-.053.7.437a.394.394,0,0,1-.213.133,17.09,17.09,0,0,1-2.835,3.061v1.643Z" transform="translate(-99.748 -250.752)"/></g><g transform="translate(1.757)"><rect class="b" width="22.766" height="14.334"/><path class="j" d="M98.94,224.464l.55,1.115,1.231.179-.89.868.21,1.226-1.1-.579-1.1.579.21-1.226-.891-.868,1.231-.179Z" transform="translate(-96.249 -223.619)"/><path class="j" d="M104.692,223.81l.284.575.634.092-.459.447.108.632-.567-.3-.567.3.108-.632-.459-.447.634-.092Z" transform="translate(-98.428 -223.404)"/><path class="j" d="M105.836,228.149l.284.575.634.092-.459.447.108.632-.567-.3-.567.3.108-.632-.459-.447.634-.092Z" transform="translate(-98.805 -224.833)"/><path class="j" d="M103.02,230.985l.284.575.634.092-.459.447.108.632-.567-.3-.567.3.108-.632-.459-.447.634-.092Z" transform="translate(-97.877 -225.767)"/><path class="j" d="M99.11,232.287l.284.575.634.092-.459.447.108.632-.567-.3-.567.3.108-.632-.459-.447.634-.092Z" transform="translate(-96.589 -226.196)"/></g></g></g></g><g transform="translate(92.775 111.487)"><g transform="translate(54.976)"><path class="k" d="M271.395,141.813A27.813,27.813,0,0,0,243.581,114H233.9a27.813,27.813,0,0,0-27.813,27.813" transform="translate(-206.084 -114)"/><line class="l" y1="20.607" transform="translate(65.311 27.813)"/><line class="l" y2="20.607" transform="translate(0 27.813)"/></g><g transform="translate(3.222 79.326)"><path class="m" d="M200.636,232.292s1.733,12.128,1.386,15.247-1.039,6.237-9.7,2.772-24.257,2.772-34.305,14.9-29.108,52.671-29.108,57.522,3.812,11.435,10.742,12.475S162.866,316.5,162.866,316.5s6.931,39.156,6.931,42.275-3.119,23.563-3.119,23.563h98.065l-3.812-25.3,6.931-55.789s28.761,39.156,35,40.889,15.94-1.385,18.366-8.663-1.386-14.9-6.237-20.444-35.345-54.4-40.889-58.908-21.138-4.852-26.681-3.466-14.9,3.466-17.326,2.079-2.426-14.554,0-20.445C230.091,232.292,208.953,237.836,200.636,232.292Z" transform="translate(-128.907 -232.292)"/><path class="c" d="M215.673,389.625a32.972,32.972,0,0,0,3.415,1.122" transform="translate(-157.488 -284.119)"/><path class="c" d="M189.039,356.478s1.54,13.47,14.231,20.523" transform="translate(-148.715 -273.2)"/><line class="c" x2="6.746" y2="9.859" transform="translate(79.76 43.842)"/><line class="c" y1="3.713" x2="1.779" transform="translate(146.475 49.55)"/><path class="c" d="M340.749,304.634l-4.63,20.445,5.686-11.865" transform="translate(-197.164 -256.122)"/><path class="c" d="M373.975,357.279s7.317-4.726,14.529-4.67" transform="translate(-209.634 -271.925)"/></g><g transform="translate(147.589 163.999)"><path class="n" d="M349.279,373.3a99.412,99.412,0,0,0,13.272-8.6,29.719,29.719,0,0,1,21.122-5.982c6.916.748,10.655,9.346,10.841,17.944s-4.486,13.832-12.9,15.141-18.319-.561-24.487-2.056a80.908,80.908,0,0,0-9.907-1.869S339.185,375.541,349.279,373.3Z" transform="translate(-344.19 -358.559)"/><path class="m" d="M403.073,376.662c-.186-8.6-3.925-17.2-10.841-17.944a29.719,29.719,0,0,0-21.122,5.982c-.31.244-.624.483-.937.722,8.048.271,24.317,3.562,21.766,26.03C399.232,389.713,403.246,384.638,403.073,376.662Z" transform="translate(-352.749 -358.559)"/></g><path class="n" d="M234.3,232.292s1.733,12.128,1.386,15.247c-.26,2.339-.714,4.678-4.581,4.239,5.524,9.034,21.574,30.234,36.553,1.373a7.9,7.9,0,0,1-3.9-.415c-2.426-1.386-2.426-14.554,0-20.445C263.756,232.292,242.618,237.836,234.3,232.292Z" transform="translate(-159.351 -152.966)"/><path class="b" d="M235.871,232.292s.45,3.15.846,6.652a30.8,30.8,0,0,0,13.009,3.541,25.062,25.062,0,0,0,14.153-4.1,25.29,25.29,0,0,1,1.446-6.092S244.188,237.836,235.871,232.292Z" transform="translate(-160.92 -152.966)"/><g transform="translate(49.74 37.385)"><rect class="b" width="10.416" height="24.773" rx="5.208"/><path class="i" d="M206.584,169.772c-.156-.015-.314-.023-.473-.023h-1.184c-.16,0-.318.008-.473.023V194.5c.156.015.313.023.473.023h1.184c.16,0,.318-.008.473-.023Z" transform="translate(-200.311 -169.749)"/></g><g transform="translate(115.276 37.385)"><rect class="b" width="10.416" height="24.773" rx="5.208"/><path class="i" d="M304.313,169.772c-.156-.015-.313-.023-.473-.023h-1.184c-.16,0-.318.008-.473.023V194.5c.156.015.314.023.473.023h1.184c.16,0,.318-.008.473-.023Z" transform="translate(-298.039 -169.749)"/></g><g transform="translate(0 55.658)"><path class="n" d="M162.679,198.286a4.888,4.888,0,0,0-3.883,2.589c-1.552,2.588-6.471,12.165-5.953,15.013s22,23.037,22,24.331-17.083,24.589-28.472,34.943-20.448,22-22,31.319,3.882,17.083,9.577,18.636,12.683-1.812,20.707-11.906,30.025-54.1,33.39-69.11c0,0,.777-6.729-2.33-10.612s-10.872-12.942-10.872-12.942,1.553-17.86.259-19.154-2.588,1.553-2.588,1.553-1.2-5.983-2.847-5.695c-1.8.316-2.33,2.588-2.33,2.588S166.044,194.662,162.679,198.286Z" transform="translate(-124.103 -196.998)"/><path class="c" d="M194.646,205.866s-3.711,14.868-3.334,17.38" transform="translate(-146.233 -199.92)"/><path class="c" d="M186.322,201.234s-3.935,14.457-4.437,16.466a4.967,4.967,0,0,0,.628,3.893" transform="translate(-143.087 -198.394)"/><path class="c" d="M178.9,198.918s-5.556,15.507-5.556,17.14A8.577,8.577,0,0,0,174.6,219.7" transform="translate(-140.323 -197.631)"/><path class="m" d="M157.731,295.528a136.886,136.886,0,0,1-11.358,12.089c-11.389,10.354-20.448,22-22,31.319s3.882,17.083,9.577,18.636,12.683-1.812,20.707-11.906c4.616-5.808,13.86-22.84,21.519-39.118C164.505,303.43,159.687,298.6,157.731,295.528Z" transform="translate(-124.103 -229.455)"/></g><g transform="translate(59.858 3.888)"><g transform="translate(0)"><path class="n" d="M213.438,140.458s-.451,36.034.9,42.79,13.512,18.242,27.475,18.693,25-12.386,26.35-19.143,0-33.781-.225-44.591-15.764-20.494-31.529-18.017S212.536,131.9,213.438,140.458Z" transform="translate(-213.365 -119.798)"/><g transform="translate(0.072 23.735)"><path class="c" d="M262.307,172.436s.9,6.306,1.8,7.657,2.478,3.153-.675,4.5-5.63-.225-5.63-1.8" transform="translate(-228.075 -160.872)"/><path class="i" d="M260.928,203.8s-12.161,1.577-17.566-3.828c0,0,1.351,8.333,5.4,9.684S260.928,203.8,260.928,203.8Z" transform="translate(-223.318 -169.943)"/><line class="c" x2="1.126" y2="3.603" transform="translate(21.845 11.789)"/><path class="o" d="M238.66,177.809s3.153,2.027,9.009.225" transform="translate(-221.77 -162.642)"/><line class="c" x2="1.126" y2="3.603" transform="translate(43.916 11.789)"/><path class="o" d="M271.572,177.809s3.153,2.027,9.009.225" transform="translate(-232.611 -162.642)"/><path class="o" d="M236.31,161.045a11.822,11.822,0,0,1,9.459-4.73" transform="translate(-220.995 -155.562)"/><path class="o" d="M268.55,155.495s6.531-1.8,11.035,3.378" transform="translate(-231.616 -155.192)"/><path class="c" d="M246.9,168.454h0a6.21,6.21,0,0,1-.084,6.42l-.125.2a10.478,10.478,0,0,1-8.9,4.946h-1.407a8.175,8.175,0,0,1-7.069-4.069h0a6.77,6.77,0,0,1-.388-6.017h0a6.77,6.77,0,0,1,5.821-4.139l6.4-.4A6.211,6.211,0,0,1,246.9,168.454Z" transform="translate(-218.389 -158.549)"/><path class="c" d="M266.529,168.454h0a6.211,6.211,0,0,0,.083,6.42l.125.2a10.478,10.478,0,0,0,8.9,4.946h1.406a8.174,8.174,0,0,0,7.069-4.069h0a6.77,6.77,0,0,0,.389-6.017h0a6.772,6.772,0,0,0-5.821-4.139l-6.405-.4A6.21,6.21,0,0,0,266.529,168.454Z" transform="translate(-230.669 -158.549)"/><path class="c" d="M257.131,171.42s2.027-1.577,5.856,0" transform="translate(-227.854 -160.307)"/><line class="c" x2="11.035" transform="translate(26.575 7.735)"/><line class="c" x1="10.536" transform="translate(0 11.386)"/></g></g><path class="a" d="M253.749,131s5.834,18.738,14.693,23.579c-.194-6.428-.423-12.462-.5-16.372-.225-10.81-15.764-20.494-31.529-18.017s-23.872,11.711-22.971,20.269c0,0-.074,5.886-.072,13.345C220.984,150.524,241.011,141.405,253.749,131Z" transform="translate(-213.365 -119.798)"/><g class="p"><path class="q" d="M211.135,149.361s29.544-12.389,45.507-28.114" transform="translate(-212.63 -120.275)"/><path class="q" d="M207.582,135.492s30.973-7.148,48.842-25.97" transform="translate(-211.46 -116.413)"/><path class="q" d="M282.193,124.444s.477,12.151,13.343,23.349" transform="translate(-236.038 -121.328)"/></g><g transform="translate(31.64 66.469)"><path class="a" d="M271.71,231.169s0,8.168-6.126,21.185-6.381,26.034-2.3,35.732,15.059,13.527,26.8,9.188,13.272-23.737,12-35.478-12.761-25.523-15.314-32.414-4.339-10.465-4.339-10.465-6.636,9.188-10.719,11.23Z" transform="translate(-260.547 -218.918)"/><g class="r"><path class="q" d="M279.885,223.57a64.148,64.148,0,0,1-4.288,32.88c-7.147,17.154-1.668,35.5,6.671,39.311s16.44,2.383,20.49-2.859" transform="translate(-264.417 -220.45)"/><path class="q" d="M288.233,217.886s8.1,19.06,4.765,33.355-1.906,32.4,8.1,35.977,15.725-3.574,15.725-3.574" transform="translate(-269.667 -218.578)"/><path class="q" d="M302.8,236.361s6.91,26.208,6.91,39.788,8.339,11.436,10.483,4.765" transform="translate(-274.466 -224.664)"/></g><path class="c" d="M271.71,231.169s0,8.168-6.126,21.185-6.381,26.034-2.3,35.732,15.059,13.527,26.8,9.188,13.272-23.737,12-35.478-12.761-25.523-15.314-32.414-4.339-10.465-4.339-10.465-6.636,9.188-10.719,11.23Z" transform="translate(-260.547 -218.918)"/></g></g><rect class="b" width="50.536" height="67.127" rx="5.191" transform="translate(87.154 152.951) rotate(2.306)"/><path class="n" d="M331.294,377.183s-22.3-6.934-26.093-8.1-25.7,15.187-26.578,17.523,2.336,2.337,2.336,2.337-1.355,2.336.689,3.5a11.591,11.591,0,0,0,2.04,1.092s-1.168,2.629,1.168,3.505,5.549-1.461,5.549-1.461l5.257-3.8s-6.318,7.731-4.965,9.346c1.858,2.218,3.044-.156,3.044-.156l7.177-8.606,7.3-3.5a33.846,33.846,0,0,0,15.188,3.8c9.346.292,11.39-3.8,11.39-3.8" transform="translate(-174.953 -198.006)"/><path class="c" d="M286.25,398.74s8.189-5.619,10.224-7.653,8.648-6.274,10.683-6.274" transform="translate(-177.516 -203.208)"/><path class="c" d="M304.107,399.569s4.014-4.545,5.54-5.223,3.731-1.7,3.731-1.7" transform="translate(-183.398 -205.79)"/><path class="c" d="M282.181,391.778s11.4-8.04,15.3-10.414a54.921,54.921,0,0,1,7.291-3.73" transform="translate(-176.175 -200.843)"/></g></g></svg>