<svg xmlns="http://www.w3.org/2000/svg" width="812.857" height="512.896" viewBox="0 0 812.857 512.896"><defs><style>.a{fill:#f4eefc;}.b{fill:#ddccf6;}.c{fill:#c7aaf0;}.d{fill:#b68bf3;}.e{fill:#9a5bf3;}.f{fill:#8032f0;}.g{fill:#401978;}.h{fill:#200d3c;}.i{fill:#e1e1e1;}.j{fill:#ececec;}.k{fill:#f5f5f5;}.l{fill:#fafafa;}.m{fill:#1a2e35;}.n{fill:#375a64;}.o{fill:#ff4f5b;}.p{fill:#be8431;}.q{fill:#fdc067;}.r,.u{fill:#fff;}.r{stroke:#1a2e35;stroke-miterlimit:10;stroke-width:1.123px;}.s{fill:#6027b6;}.t{opacity:0.6;}</style></defs><g transform="translate(1813.857 -3609.603)"><g transform="translate(-1738.678 3641.028)"><path class="a" d="M13.283,0h62.5a0,0,0,0,1,0,0V35.851a0,0,0,0,1,0,0h-62.5A13.283,13.283,0,0,1,0,22.567V13.283A13.283,13.283,0,0,1,13.283,0Z" transform="translate(0 0)"/></g><g transform="translate(-1662.894 3641.028)"><rect class="b" width="75.784" height="35.851" transform="translate(0 0)"/></g><g transform="translate(-1587.108 3641.028)"><rect class="c" width="75.784" height="35.851" transform="translate(0 0)"/></g><g transform="translate(-1511.324 3641.028)"><rect class="d" width="75.784" height="35.851" transform="translate(0 0)"/></g><g transform="translate(-1435.852 3641.028)"><rect class="e" width="75.784" height="35.851" transform="translate(0 0)"/></g><g transform="translate(-1360.326 3641.028)"><rect class="f" width="75.784" height="35.851" transform="translate(0 0)"/></g><g transform="translate(-1284.799 3641.028)"><rect class="g" width="75.784" height="35.851" transform="translate(0 0)"/></g><g transform="translate(-1209.273 3641.028)"><path class="h" d="M0,0H62.5A13.283,13.283,0,0,1,75.784,13.283v9.284A13.283,13.283,0,0,1,62.5,35.851H0a0,0,0,0,1,0,0V0A0,0,0,0,1,0,0Z" transform="translate(0 0)"/></g><g transform="translate(-1322.331 3806.922)"><g transform="translate(160.186 8.15)"><path class="i" d="M-604.867,3986.477c.059.177-2.958,1.337-6.737,2.592s-6.892,2.129-6.951,1.952,2.957-1.337,6.739-2.592S-604.926,3986.3-604.867,3986.477Z" transform="translate(618.557 -3986.454)"/></g><g transform="translate(0 0)"><g transform="translate(0 256.825)"><path class="i" d="M-912.352,4443.185v56.794h7.6l10.2-57.433Z" transform="translate(912.352 -4442.547)"/></g><g transform="translate(69.129 256.825)"><path class="i" d="M-785.562,4443.185v56.794h7.6l10.2-57.433Z" transform="translate(785.562 -4442.547)"/></g><g transform="translate(137.766 256.825)"><path class="i" d="M-641.867,4443.185v56.794h-7.6l-10.2-57.433Z" transform="translate(659.676 -4442.547)"/></g><g transform="translate(186.331 256.825)"><path class="i" d="M-552.8,4443.185v56.794h-7.6l-10.2-57.433Z" transform="translate(570.604 -4442.547)"/></g><g transform="translate(0 129.419)"><path class="i" d="M-864.847,4211.991s-30.049-8.665-38.336,2.886-9.169,122.828-9.169,122.828,53.629.976,54.617,0S-864.847,4211.991-864.847,4211.991Z" transform="translate(912.352 -4208.871)"/></g><g transform="translate(44.041)"><path class="j" d="M-673.006,4209.457l1.312-192.939a44.709,44.709,0,0,0-44.918-45.013h-70.821a44.143,44.143,0,0,0-44.131,45.184l4.548,192.768Z" transform="translate(831.576 -3971.505)"/></g><g transform="translate(9.169 195.771)"><path class="j" d="M-702.093,4372.749s-27.307-40.276-59.394-41.595-101.249,0-101.249,0-30.66,1.164-32.8,39.139v22.4h193.443Z" transform="translate(895.536 -4330.568)"/></g><g transform="translate(7.605 195.71)"><path class="i" d="M-766.18,4332.257l-79.409-.418c-8.291-.043-17.721-1.062-25.757,1.22-23.665,6.717-27.143,36.989-25.26,57.871.077.856-1.258.852-1.335,0-1.578-17.5.27-42.03,15.245-53.689,8.637-6.725,18.675-6.833,28.983-6.778l87.534.459a.668.668,0,0,1,0,1.336Z" transform="translate(898.405 -4330.456)"/></g><g transform="translate(65.912 3.83)"><path class="i" d="M-791.463,3980.734a18.993,18.993,0,0,1,2.035-.611c.686-.116,1.534-.28,2.542-.429,1.012-.107,2.178-.26,3.5-.374,5.27-.452,12.919-.725,22.368-.778,4.724-.032,9.9,0,15.455.073,5.543.139,11.507-.006,17.735.816a82.354,82.354,0,0,1,9.471,1.7,43.516,43.516,0,0,1,9.474,3.374,36.116,36.116,0,0,1,8.337,6.261,35.439,35.439,0,0,1,6.46,8.573,24.806,24.806,0,0,1,1.968,5.068,36.169,36.169,0,0,1,.812,5.281c.415,3.488.757,6.932,1.093,10.316.652,6.77,1.132,13.313,1.527,19.548.78,12.473,1.128,23.721,1.363,33.165s.315,17.088.373,22.371c.02,2.613.034,4.656.045,6.082,0,.669,0,1.194-.005,1.582a3.123,3.123,0,0,1-.025.539,3.231,3.231,0,0,1-.044-.538c-.015-.388-.036-.912-.062-1.582-.041-1.426-.1-3.467-.173-6.08-.14-5.315-.34-12.947-.587-22.362-.3-9.439-.693-20.679-1.506-33.138-.411-6.229-.905-12.763-1.565-19.524-.34-3.379-.684-6.818-1.1-10.3a35.714,35.714,0,0,0-.8-5.189,24.168,24.168,0,0,0-1.915-4.926,34.831,34.831,0,0,0-6.333-8.407,35.564,35.564,0,0,0-8.169-6.151,43.016,43.016,0,0,0-9.325-3.335,82.156,82.156,0,0,0-9.391-1.713c-6.171-.833-12.117-.71-17.668-.874-5.551-.1-10.723-.156-15.444-.155-9.442-.008-17.084.192-22.348.563-1.316.094-2.48.226-3.492.312l-2.54.364c-.681.122-1.183.292-1.532.365A3.272,3.272,0,0,1-791.463,3980.734Z" transform="translate(791.463 -3978.529)"/></g><g transform="translate(168.146 56.744)"><path class="i" d="M-592.956,4075.605c.062.176-2.35,1.184-5.387,2.252s-5.55,1.791-5.612,1.615,2.35-1.184,5.388-2.251S-593.018,4075.429-592.956,4075.605Z" transform="translate(603.956 -4075.579)"/></g><g transform="translate(168.147 67.387)"><path class="i" d="M-598.926,4095.568c-.008.187-1.141.287-2.529.226s-2.508-.264-2.5-.45,1.141-.287,2.529-.225S-598.918,4095.382-598.926,4095.568Z" transform="translate(603.954 -4095.1)"/></g><g transform="translate(117.612 46.295)"><g transform="translate(7.293 17.163)"><path class="i" d="M-680.427,4088.6c-.012-.033.236-.184.749-.212a2.973,2.973,0,0,1,2.007.729,2.893,2.893,0,0,1,.981,3.011,3.418,3.418,0,0,1-2.96,2.5,3.537,3.537,0,0,1-3.3-2.036,3.257,3.257,0,0,1,.225-3.166,3.444,3.444,0,0,1,1.621-1.38c.474-.181.758-.168.764-.132a4.549,4.549,0,0,0-1.973,1.752,2.811,2.811,0,0,0-.079,2.651,2.968,2.968,0,0,0,2.7,1.636,2.844,2.844,0,0,0,2.405-2,2.421,2.421,0,0,0-.7-2.486,2.973,2.973,0,0,0-1.7-.821C-680.146,4088.6-680.414,4088.653-680.427,4088.6Z" transform="translate(683.264 -4087.892)"/></g><g transform="translate(6.891)"><path class="i" d="M-678.163,4056.419c.071.091-.86.774-2.01,2.188a14.263,14.263,0,0,0-2.955,6.335,14.277,14.277,0,0,0,.521,6.974c.575,1.728,1.2,2.7,1.106,2.756a6.806,6.806,0,0,1-1.554-2.592,13.259,13.259,0,0,1-.737-7.259,13.25,13.25,0,0,1,3.258-6.527A6.815,6.815,0,0,1-678.163,4056.419Z" transform="translate(684.001 -4056.414)"/></g><g transform="translate(6.508 23.29)"><path class="i" d="M-680.227,4118.731a8.867,8.867,0,0,1-1.98-2.654,19.38,19.38,0,0,1-2.4-7.628,18.585,18.585,0,0,1,.083-4.436,6.894,6.894,0,0,1,1.368-3.4,4.115,4.115,0,0,1,2.053-1.387c.575-.153.906-.084.9-.049a4.731,4.731,0,0,0-2.582,1.73c-1.2,1.559-1.422,4.465-1.155,7.478a21.783,21.783,0,0,0,2.152,7.47C-680.9,4117.659-680.135,4118.664-680.227,4118.731Z" transform="translate(684.703 -4099.129)"/></g><g transform="translate(0 18.886)"><path class="i" d="M-696.63,4092.375c-.139-.117,1.224-1.326,3.342-1.321,2.119-.021,3.491,1.178,3.353,1.3-.1.17-1.474-.649-3.35-.621C-695.161,4091.715-696.526,4092.543-696.63,4092.375Z" transform="translate(696.64 -4091.054)"/></g></g><g transform="translate(72.554 46.295)"><g transform="translate(7.293 17.163)"><path class="i" d="M-763.069,4088.6c-.012-.033.237-.184.749-.212a2.972,2.972,0,0,1,2.006.729,2.893,2.893,0,0,1,.981,3.011,3.418,3.418,0,0,1-2.96,2.5,3.537,3.537,0,0,1-3.3-2.036,3.257,3.257,0,0,1,.226-3.166,3.441,3.441,0,0,1,1.62-1.38c.474-.181.759-.168.765-.132a4.552,4.552,0,0,0-1.973,1.752,2.813,2.813,0,0,0-.079,2.651,2.968,2.968,0,0,0,2.7,1.636,2.844,2.844,0,0,0,2.405-2,2.418,2.418,0,0,0-.7-2.486,2.974,2.974,0,0,0-1.7-.821C-762.788,4088.6-763.055,4088.653-763.069,4088.6Z" transform="translate(765.906 -4087.892)"/></g><g transform="translate(6.891)"><path class="i" d="M-760.8,4056.419c.07.091-.86.774-2.01,2.188a14.257,14.257,0,0,0-2.955,6.335,14.262,14.262,0,0,0,.521,6.974c.575,1.728,1.2,2.7,1.105,2.756a6.805,6.805,0,0,1-1.554-2.592,13.258,13.258,0,0,1-.737-7.259,13.26,13.26,0,0,1,3.258-6.527A6.813,6.813,0,0,1-760.8,4056.419Z" transform="translate(766.643 -4056.414)"/></g><g transform="translate(6.508 23.29)"><path class="i" d="M-762.869,4118.731a8.867,8.867,0,0,1-1.98-2.654,19.389,19.389,0,0,1-2.4-7.628,18.61,18.61,0,0,1,.083-4.436,6.9,6.9,0,0,1,1.368-3.4,4.115,4.115,0,0,1,2.053-1.387c.575-.153.906-.084.9-.049a4.731,4.731,0,0,0-2.581,1.73c-1.2,1.559-1.423,4.465-1.155,7.478a21.782,21.782,0,0,0,2.152,7.47C-763.542,4117.659-762.777,4118.664-762.869,4118.731Z" transform="translate(767.345 -4099.129)"/></g><g transform="translate(0 18.886)"><path class="i" d="M-779.272,4092.375c-.139-.117,1.225-1.326,3.342-1.321,2.118-.021,3.49,1.178,3.352,1.3-.1.17-1.474-.649-3.35-.621C-777.8,4091.715-779.167,4092.543-779.272,4092.375Z" transform="translate(779.282 -4091.054)"/></g></g><g transform="translate(137.766 126.925)"><path class="k" d="M-595.651,4208.622s-45.942-11.887-54.25,3.752-9.775,123.369-9.775,123.369,66.338,2.444,66.5-.352S-595.651,4208.622-595.651,4208.622Z" transform="translate(659.676 -4204.297)"/><g transform="translate(17.405 1.235)"><path class="j" d="M-578.654,4209.141s-30.343-7.806-38.629,3.744-10.469,124.425-10.469,124.425,48.424,1.428,49.412.452S-578.654,4209.141-578.654,4209.141Z" transform="translate(627.753 -4206.563)"/></g></g><g transform="translate(184.387 186.211)"><path class="i" d="M-572.055,4313.807c-.029-.018.119-.261.57-.3a1.543,1.543,0,0,1,1.466.963,4.869,4.869,0,0,1,.271,2.559,2.472,2.472,0,0,1-.721,1.452,2.008,2.008,0,0,1-1.724.467,2.331,2.331,0,0,1-1.813-1.556,3.081,3.081,0,0,1,.045-2.089,4.238,4.238,0,0,1,1.928-2.105l.037.271c-.51-.216-.774-.358-.757-.411s.314-.008.852.122l.282.067-.245.2a4.555,4.555,0,0,0-1.558,2.043,2.6,2.6,0,0,0,.025,1.675,1.7,1.7,0,0,0,1.319,1.113,1.473,1.473,0,0,0,1.717-1.367,4.86,4.86,0,0,0-.1-2.258,1.288,1.288,0,0,0-1.032-.889C-571.836,4313.721-572.025,4313.855-572.055,4313.807Z" transform="translate(574.168 -4313.034)"/></g><g transform="translate(177.857 166.512)"><path class="i" d="M-586.138,4276.9a13.924,13.924,0,0,1,1.888,2.755,63.555,63.555,0,0,1,3.663,7.173,63.708,63.708,0,0,1,2.741,7.576,13.875,13.875,0,0,1,.723,3.259,19.862,19.862,0,0,1-1.178-3.113c-.679-1.934-1.663-4.587-2.905-7.453s-2.512-5.393-3.461-7.21A19.82,19.82,0,0,1-586.138,4276.9Z" transform="translate(586.146 -4276.903)"/></g><g transform="translate(187.68 168.412)"><path class="i" d="M-559.829,4280.389a15.171,15.171,0,0,1-1.175,2.833c-.786,1.717-1.871,4.085-3.014,6.726s-2.125,5.055-2.837,6.8a15.2,15.2,0,0,1-1.258,2.8,12.726,12.726,0,0,1,.811-2.963c.6-1.8,1.518-4.25,2.665-6.9s2.307-5,3.206-6.67A12.792,12.792,0,0,1-559.829,4280.389Z" transform="translate(568.129 -4280.387)"/></g><g transform="translate(178.049 191.474)"><path class="i" d="M-585.773,4354.922a4.859,4.859,0,0,1,.081-1.3c.095-.833.264-2.033.5-3.512.467-2.958,1.219-7.03,2.224-11.489s2.076-8.46,2.924-11.333c.424-1.437.786-2.593,1.058-3.385a4.887,4.887,0,0,1,.486-1.212,38.869,38.869,0,0,1-1.083,4.724c-.729,2.9-1.721,6.906-2.726,11.355s-1.826,8.493-2.413,11.424A38.9,38.9,0,0,1-585.773,4354.922Z" transform="translate(585.794 -4322.687)"/></g><g transform="translate(187.868 191.579)"><path class="i" d="M-559.71,4342.651a17.117,17.117,0,0,1-1.091-2.945c-.62-1.831-1.51-4.344-2.62-7.071s-2.237-5.145-3.075-6.887a17.1,17.1,0,0,1-1.28-2.866,12.641,12.641,0,0,1,1.7,2.646,63.719,63.719,0,0,1,3.276,6.852,63.641,63.641,0,0,1,2.451,7.187A12.632,12.632,0,0,1-559.71,4342.651Z" transform="translate(567.785 -4322.88)"/></g></g></g><g transform="translate(-1679.607 3971.243)"><g transform="translate(154.163 115.277)"><rect class="j" width="8.78" height="34.907" transform="translate(8.78 34.907) rotate(180)"/></g><g transform="translate(43.353 115.277)"><rect class="j" width="8.78" height="34.907" transform="translate(8.78 34.907) rotate(180)"/></g><g transform="translate(95.772 115.277)"><rect class="i" width="8.78" height="34.907" transform="translate(8.78 34.907) rotate(180)"/></g><g transform="translate(1.55 115.277)"><rect class="i" width="8.78" height="34.907" transform="translate(8.78 34.907) rotate(180)"/></g><g transform="translate(43.19 34.787)"><rect class="j" width="119.754" height="80.49"/></g><g transform="translate(0 34.787)"><rect class="i" width="43.19" height="80.49"/></g><g transform="translate(54.309 49.086)"><path class="i" d="M-1467.827,4388.86c.006-.007.012-.16.02-.455.005-.318.011-.748.02-1.3.011-1.168.027-2.851.047-5.025.025-4.39.062-10.762.108-18.812l-.2.195,96.385.125c-.141-.142.324.319-.314-.32v3.282q0,1.638,0,3.266,0,3.254,0,6.46,0,6.409.005,12.588l.313-.313-68.753.142-20.254.089-5.464.041-1.424.02c-.322.007-.5.021-.5.021a3.692,3.692,0,0,0,.457.02l1.385.02,5.4.041,20.182.089,68.971.142h.313v-.313q0-6.172.005-12.588,0-3.2,0-6.46,0-1.627,0-3.266v-3.282c-.641-.641-.181-.177-.326-.32l-96.385.125h-.2v.195c.046,8.1.083,14.511.108,18.927.021,2.157.036,3.825.047,4.982.009.541.015.959.02,1.27A3.056,3.056,0,0,0-1467.827,4388.86Z" transform="translate(1468.023 -4362.914)"/></g><g transform="translate(98.48 58.014)"><path class="i" d="M-1387.009,4383.508a4.219,4.219,0,0,0,4.22,4.22,4.22,4.22,0,0,0,4.221-4.22,4.221,4.221,0,0,0-4.221-4.221A4.22,4.22,0,0,0-1387.009,4383.508Z" transform="translate(1387.009 -4379.287)"/></g><g transform="translate(123.755 4.087)"><path class="k" d="M-1319.409,4280.381l-4.718,6.782s10.617,2.949,10.617,12.387-6.488,11.206-13.565,11.206-13.86-2.065-13.566-11.5,9.142-12.976,9.142-12.976l-4.423-5.9Z" transform="translate(1340.651 -4280.381)"/></g><g transform="translate(11.69 16.6)"><path class="i" d="M-1546.19,4303.33v17.282h74.312a8.641,8.641,0,0,0,8.641-8.641h0a8.641,8.641,0,0,0-8.641-8.641" transform="translate(1546.19 -4303.33)"/><g transform="translate(0 3.623)"><path class="l" d="M1.746,0H29.488a0,0,0,0,1,0,0V10.037a0,0,0,0,1,0,0H1.746A1.746,1.746,0,0,1,0,8.291V1.746A1.746,1.746,0,0,1,1.746,0Z" transform="translate(29.488 10.037) rotate(180)"/></g></g><g transform="translate(11.69)"><path class="k" d="M-1546.19,4272.885v17.283h74.312a8.641,8.641,0,0,0,8.641-8.642h0a8.641,8.641,0,0,0-8.641-8.641Z" transform="translate(1546.19 -4272.885)"/><g transform="translate(0 3.623)"><path class="i" d="M1.746,0H29.488a0,0,0,0,1,0,0V10.037a0,0,0,0,1,0,0H1.746A1.746,1.746,0,0,1,0,8.291V1.746A1.746,1.746,0,0,1,1.746,0Z" transform="translate(29.488 10.037) rotate(180)"/></g></g></g><g transform="translate(-1189.17 3720.803)"><g transform="translate(57.643 16.659)"><rect class="i" width="2.594" height="135.846" transform="translate(0 2.359) rotate(-65.376)"/></g><g transform="translate(150.706 60.839)"><rect class="i" width="2.594" height="339.539"/></g><g transform="translate(148.917 150.636)"><rect class="k" width="6.687" height="45.57" rx="2.324" transform="translate(6.687 45.57) rotate(180)"/></g><g transform="translate(42.345 4.596)"><path class="j" d="M-571.656,3835.092l-3.446,5.935-15.356-8.928,3.913-6.1a8.725,8.725,0,0,1,11.461-2.982h0A8.725,8.725,0,0,1-571.656,3835.092Z" transform="translate(590.459 -3821.984)"/></g><g transform="translate(3.46 14.711)"><path class="k" d="M-607.054,3847.122l8.757,41.411-63.48-35.955,38.885-12.043Z" transform="translate(661.777 -3840.535)"/></g><g transform="translate(0 25.571)"><path class="i" d="M-667.625,3863.356c3.179-5.875,20.7-2.551,39.125,7.423s30.792,22.822,27.613,28.7-20.7,2.551-39.125-7.423S-670.8,3869.229-667.625,3863.356Z" transform="translate(668.123 -3860.454)"/></g><g transform="translate(114.828 390.263)"><path class="i" d="M-384.175,4539.447h-73.342s10.909-11.111,37.175-10.042S-384.175,4539.447-384.175,4539.447Z" transform="translate(457.517 -4529.333)"/></g><g transform="translate(147.03 55.915)"><path class="k" d="M-398.457,3921.081a4.974,4.974,0,0,0,4.974,4.975,4.974,4.974,0,0,0,4.974-4.975,4.974,4.974,0,0,0-4.974-4.974A4.974,4.974,0,0,0-398.457,3921.081Z" transform="translate(398.457 -3916.107)"/></g><g transform="translate(55.992 0)"><path class="j" d="M-563.144,3820.578l3.477-5.9-3.013-1.125-2.749,6.187Z" transform="translate(565.429 -3813.554)"/></g><g transform="translate(42.346 14.185)"><path class="i" d="M-590.457,3839.747c-.026.227,4.36-.044,9.1,2.183,4.774,2.155,7.417,5.664,7.572,5.5a7.626,7.626,0,0,0-1.717-2.225,19.127,19.127,0,0,0-5.57-3.89,19.124,19.124,0,0,0-6.576-1.705A7.644,7.644,0,0,0-590.457,3839.747Z" transform="translate(590.457 -3839.57)"/></g><g transform="translate(24.786 34.999)"><path class="l" d="M-603.218,3881.285v12.342a5.946,5.946,0,0,1-1.389,3.94c-1.578,1.8-4.855,3.221-11.493-.286-7.8-4.121-7.025-8.746-5.765-11.248a6.13,6.13,0,0,1,2.408-2.519l9.905-5.77Z" transform="translate(622.664 -3877.745)"/><g transform="translate(6.835 1.269)"><path class="i" d="M-601.684,3880.074a9.831,9.831,0,0,0-.733,1.441,39.361,39.361,0,0,1-2.14,3.824c-.493.782-1.063,1.62-1.7,2.5a5.418,5.418,0,0,1-1.084,1.177,1.445,1.445,0,0,1-1.389.292,1.165,1.165,0,0,1-.741-1.162,1.166,1.166,0,0,1,.974-1.045,3.189,3.189,0,0,1,1.762.413c.615.291,1.227.614,1.829.969s1.181.734,1.734,1.132.992.807.933,1.328a3.353,3.353,0,0,1-.682,1.577c-.33.382-.824.265-1.143-.144a1.462,1.462,0,0,1-.142-1.424,9.219,9.219,0,0,1,.725-1.467l1.471-2.665c.83-1.542,1.529-2.842,2.089-3.882a7.4,7.4,0,0,0,.685-1.469,7.41,7.41,0,0,0-.916,1.338l-2.276,3.775-1.544,2.624a9.384,9.384,0,0,0-.8,1.556,2.676,2.676,0,0,0-.159.981,1.785,1.785,0,0,0,.371,1.016,1.57,1.57,0,0,0,.963.619,1.289,1.289,0,0,0,1.146-.407,3.245,3.245,0,0,0,.57-.921,3.13,3.13,0,0,0,.308-1.063,1.674,1.674,0,0,0-.368-1.17,3.984,3.984,0,0,0-.834-.749q-.852-.618-1.784-1.17t-1.886-1a3.781,3.781,0,0,0-2.165-.457,1.828,1.828,0,0,0-1.508,1.645,1.8,1.8,0,0,0,1.162,1.8,2.048,2.048,0,0,0,1.976-.4,5.87,5.87,0,0,0,1.183-1.328c.627-.9,1.18-1.768,1.654-2.577a28.966,28.966,0,0,0,1.971-3.966A5.984,5.984,0,0,0-601.684,3880.074Z" transform="translate(610.129 -3880.073)"/></g></g></g><g transform="translate(-1647.993 3736.948)"><g transform="translate(0 0)"><rect class="i" width="139.76" height="91.888" transform="translate(0 139.76) rotate(-90)"/></g><g transform="translate(3.757 4.934)"><g transform="translate(0 0)"><rect class="l" width="129.965" height="84.022" transform="translate(0 129.965) rotate(-90)"/></g></g><g transform="translate(34.384 48.717)"><g transform="translate(0 0)"><rect class="i" width="42.398" height="23.12" transform="translate(0 42.398) rotate(-90)"/></g></g></g><g transform="translate(-1813.857 4121.131)"><g transform="translate(0 0)"><path class="m" d="M-1043.462,4548.132c0,.186-172.473.337-385.179.337-212.781,0-385.216-.151-385.216-.337s172.436-.338,385.216-.338C-1215.935,4547.794-1043.462,4547.945-1043.462,4548.132Z" transform="translate(1813.857 -4547.794)"/></g></g><g transform="translate(-1436.541 3621.406)"><g transform="translate(0 0)"><g transform="translate(0 5.026)"><circle class="m" cx="26.145" cy="26.145" r="26.145" transform="translate(0 50.56) rotate(-75.223)"/></g><g transform="translate(1.633 0)"><g transform="translate(0)"><circle class="n" cx="26.145" cy="26.145" r="26.145" transform="translate(0 36.974) rotate(-45)"/></g></g></g><g transform="translate(15.474 13.913)"><path class="m" d="M-1047.512,3679.831a36.046,36.046,0,0,0-.841-5.534,21.812,21.812,0,0,0-2.544-6.01,22.6,22.6,0,0,0-5.764-6.385,22.411,22.411,0,0,0-9.492-4.187,22.609,22.609,0,0,0-11.815,1,21.137,21.137,0,0,0-5.684,3.065,25.339,25.339,0,0,0-2.548,2.168,25.546,25.546,0,0,0-2.2,2.606,22.57,22.57,0,0,0-4.367,13.276,22.571,22.571,0,0,0,4.365,13.28,25.524,25.524,0,0,0,2.2,2.606,25.314,25.314,0,0,0,2.548,2.17,21.127,21.127,0,0,0,5.685,3.065,22.606,22.606,0,0,0,11.816,1,22.424,22.424,0,0,0,9.493-4.187,22.606,22.606,0,0,0,5.763-6.385,21.793,21.793,0,0,0,2.544-6.011,36.022,36.022,0,0,0,.841-5.533,1.554,1.554,0,0,1,.016.37c-.006.283-.013.641-.022,1.087a10.471,10.471,0,0,1-.146,1.763,16.053,16.053,0,0,1-.433,2.378,21.546,21.546,0,0,1-2.474,6.139,22.776,22.776,0,0,1-5.8,6.573,22.811,22.811,0,0,1-9.679,4.358,23.108,23.108,0,0,1-12.131-.965,21.679,21.679,0,0,1-5.857-3.132,25.816,25.816,0,0,1-2.627-2.225,26.02,26.02,0,0,1-2.27-2.677,23.177,23.177,0,0,1-4.508-13.672,23.18,23.18,0,0,1,4.509-13.668,26.079,26.079,0,0,1,2.271-2.676,25.872,25.872,0,0,1,2.626-2.224,21.7,21.7,0,0,1,5.856-3.132,23.111,23.111,0,0,1,12.13-.964,22.8,22.8,0,0,1,9.678,4.357,22.772,22.772,0,0,1,5.8,6.572,21.552,21.552,0,0,1,2.474,6.14,15.968,15.968,0,0,1,.434,2.377,10.48,10.48,0,0,1,.146,1.763c.009.446.016.8.022,1.087A1.549,1.549,0,0,1-1047.512,3679.831Z" transform="translate(1093.442 -3656.77)"/></g></g><g transform="translate(-1410.237 3654.483)"><path class="m" d="M-1067.74,3700.851c-.122.141-2.574-1.774-5.476-4.277l-.059-.051-.3-.263.311-.254c2.943-2.4,5.411-4.224,5.528-4.08s-2.16,2.2-5.1,4.6l.007-.517.059.051C-1069.872,3698.566-1067.618,3700.709-1067.74,3700.851Z" transform="translate(1073.579 -3691.917)"/><g transform="translate(21.117 0.001)"><path class="m" d="M-1034.844,3691.926c.122-.141,2.573,1.774,5.476,4.277l.059.051.3.263-.311.254c-2.943,2.4-5.411,4.223-5.528,4.08s2.16-2.2,5.1-4.6l-.007.517-.059-.051C-1032.712,3694.211-1034.966,3692.067-1034.844,3691.926Z" transform="translate(1034.849 -3691.919)"/></g><g transform="translate(0.525 4.011)"><path class="m" d="M-1047.4,3699.613c0,.186-5.645.337-12.606.337s-12.606-.151-12.606-.337,5.643-.338,12.606-.338S-1047.4,3699.427-1047.4,3699.613Z" transform="translate(1072.616 -3699.275)"/></g></g><g transform="translate(-1802.423 3639.104)"><g transform="translate(0)"><path class="m" d="M-1749.051,3685.725a34.961,34.961,0,0,0-.808-5.278,20.81,20.81,0,0,0-2.428-5.732,21.561,21.561,0,0,0-5.5-6.087,21.379,21.379,0,0,0-9.052-3.991,21.562,21.562,0,0,0-11.265.954,20.149,20.149,0,0,0-5.419,2.923,24.206,24.206,0,0,0-2.429,2.067,24.345,24.345,0,0,0-2.1,2.484,21.52,21.52,0,0,0-4.163,12.656,21.522,21.522,0,0,0,4.162,12.661,24.192,24.192,0,0,0,2.1,2.485,24.229,24.229,0,0,0,2.429,2.069,20.165,20.165,0,0,0,5.42,2.923,21.563,21.563,0,0,0,11.266.954,21.391,21.391,0,0,0,9.052-3.991,21.562,21.562,0,0,0,5.5-6.088,20.823,20.823,0,0,0,2.428-5.731,34.984,34.984,0,0,0,.807-5.278,1.4,1.4,0,0,1,.017.353c0,.272-.012.614-.019,1.038a10.027,10.027,0,0,1-.138,1.682,15.31,15.31,0,0,1-.413,2.269,20.535,20.535,0,0,1-2.359,5.86,21.739,21.739,0,0,1-5.532,6.275,21.769,21.769,0,0,1-9.238,4.162,22.059,22.059,0,0,1-11.581-.919,20.71,20.71,0,0,1-5.592-2.99,24.732,24.732,0,0,1-2.508-2.125,24.78,24.78,0,0,1-2.168-2.555,22.125,22.125,0,0,1-4.3-13.053,22.125,22.125,0,0,1,4.306-13.048,24.887,24.887,0,0,1,2.168-2.555,24.676,24.676,0,0,1,2.508-2.123,20.71,20.71,0,0,1,5.591-2.99,22.062,22.062,0,0,1,11.58-.919,21.753,21.753,0,0,1,9.238,4.161,21.728,21.728,0,0,1,5.533,6.274,20.561,20.561,0,0,1,2.359,5.861,15.407,15.407,0,0,1,.413,2.27,10.026,10.026,0,0,1,.138,1.682c.007.424.014.765.019,1.037A1.391,1.391,0,0,1-1749.051,3685.725Z" transform="translate(1792.886 -3663.71)"/></g><g transform="translate(10.965 21.677)"><path class="m" d="M-1751.731,3703.805c0,.187-4.711.338-10.522.338s-10.523-.151-10.523-.338,4.71-.337,10.523-.337S-1751.731,3703.619-1751.731,3703.805Z" transform="translate(1772.776 -3703.468)"/></g></g><g transform="translate(-1123.662 3636.366)"><g transform="translate(0)"><path class="m" d="M-504.139,3680.7a34.972,34.972,0,0,0-.808-5.278,20.8,20.8,0,0,0-2.429-5.731,21.554,21.554,0,0,0-5.5-6.087,21.383,21.383,0,0,0-9.051-3.991,21.569,21.569,0,0,0-11.265.954,20.173,20.173,0,0,0-5.42,2.923,24.158,24.158,0,0,0-2.428,2.067,24.4,24.4,0,0,0-2.1,2.484A21.521,21.521,0,0,0-547.3,3680.7a21.521,21.521,0,0,0,4.162,12.661,24.258,24.258,0,0,0,2.1,2.485,24.146,24.146,0,0,0,2.429,2.068,20.142,20.142,0,0,0,5.42,2.923,21.561,21.561,0,0,0,11.266.954,21.381,21.381,0,0,0,9.052-3.991,21.574,21.574,0,0,0,5.5-6.088,20.8,20.8,0,0,0,2.428-5.732,34.958,34.958,0,0,0,.808-5.277,1.386,1.386,0,0,1,.016.353c0,.272-.011.614-.019,1.038a10.061,10.061,0,0,1-.138,1.682,15.3,15.3,0,0,1-.412,2.269,20.563,20.563,0,0,1-2.359,5.86,21.725,21.725,0,0,1-5.533,6.275,21.757,21.757,0,0,1-9.238,4.162,22.056,22.056,0,0,1-11.581-.919,20.718,20.718,0,0,1-5.592-2.989,24.736,24.736,0,0,1-2.508-2.124,24.893,24.893,0,0,1-2.168-2.556,22.124,22.124,0,0,1-4.3-13.053,22.125,22.125,0,0,1,4.306-13.048,24.913,24.913,0,0,1,2.167-2.555,24.763,24.763,0,0,1,2.508-2.123,20.715,20.715,0,0,1,5.591-2.99,22.061,22.061,0,0,1,11.579-.919,21.757,21.757,0,0,1,9.238,4.161,21.736,21.736,0,0,1,5.534,6.274,20.554,20.554,0,0,1,2.359,5.861,15.31,15.31,0,0,1,.412,2.27,10.059,10.059,0,0,1,.138,1.682c.008.424.014.765.019,1.037A1.384,1.384,0,0,1-504.139,3680.7Z" transform="translate(547.974 -3658.689)"/><g transform="translate(10.964 21.677)"><path class="m" d="M-506.82,3698.785c0,.186-4.711.338-10.522.338s-10.523-.152-10.523-.338,4.711-.337,10.523-.337S-506.82,3698.6-506.82,3698.785Z" transform="translate(527.865 -3698.447)"/></g></g><g transform="translate(21.149 11.125)"><path class="m" d="M-508.847,3699.421c-.187,0-.338-4.551-.338-10.163s.151-10.164.338-10.164.337,4.549.337,10.164S-508.66,3699.421-508.847,3699.421Z" transform="translate(509.185 -3679.094)"/></g></g><g transform="translate(-1785.41 3892.63)"><g transform="translate(94.211 62.35)"><path class="o" d="M-1575.879,4330.77c-12.519-10.3-14.174-27.714-12.435-43.116.289-2.57.22-5.311,1.624-7.476s4.387-3.486,6.609-2.217c1.844,1.052,2.5,3.344,3.429,5.27a15.126,15.126,0,0,0,5.592,6.25c1.574.981,3.564,1.661,5.255.9,2.32-1.052,2.823-4.1,3.009-6.668q.519-7.173,1.038-14.342a23.983,23.983,0,0,1,1.372-7.554c.989-2.371,2.928-4.493,5.421-4.984s5.4,1.152,5.716,3.7a23.828,23.828,0,0,1-.178,3.2,2.7,2.7,0,0,0,1.378,2.662c1,.381,2.083-.265,2.908-.955,2.85-2.381,4.907-5.574,6.847-8.759s3.834-6.451,6.458-9.086,6.12-4.611,9.809-4.53,7.422,2.655,8.066,6.332-1.751,7.189-4.276,9.935a57.415,57.415,0,0,1-12.809,10.421,4.723,4.723,0,0,0-2.162,1.986c-.691,1.665.8,3.491,2.438,4.185,1.861.786,3.95.751,5.93,1.144s4.077,1.444,4.685,3.393c.844,2.7-1.563,5.277-3.861,6.906a49.187,49.187,0,0,1-15.168,7.235,16.579,16.579,0,0,0-5.6,2.2c-1.625,1.207-2.724,3.438-1.947,5.315s3.09,2.644,5.094,2.433,3.857-1.145,5.8-1.707c3.628-1.053,8.159-.451,10.176,2.771a8.14,8.14,0,0,1,.3,7.242,18.772,18.772,0,0,1-4.385,6.031,49.456,49.456,0,0,1-22.213,13.137c-8.4,2.191-16.029,2.362-23.918-1.246" transform="translate(1588.891 -4243.057)"/><path class="p" d="M-1575.879,4330.77c-12.519-10.3-14.174-27.714-12.435-43.116.289-2.57.22-5.311,1.624-7.476s4.387-3.486,6.609-2.217c1.844,1.052,2.5,3.344,3.429,5.27a15.126,15.126,0,0,0,5.592,6.25c1.574.981,3.564,1.661,5.255.9,2.32-1.052,2.823-4.1,3.009-6.668q.519-7.173,1.038-14.342a23.983,23.983,0,0,1,1.372-7.554c.989-2.371,2.928-4.493,5.421-4.984s5.4,1.152,5.716,3.7a23.828,23.828,0,0,1-.178,3.2,2.7,2.7,0,0,0,1.378,2.662c1,.381,2.083-.265,2.908-.955,2.85-2.381,4.907-5.574,6.847-8.759s3.834-6.451,6.458-9.086,6.12-4.611,9.809-4.53,7.422,2.655,8.066,6.332-1.751,7.189-4.276,9.935a57.415,57.415,0,0,1-12.809,10.421,4.723,4.723,0,0,0-2.162,1.986c-.691,1.665.8,3.491,2.438,4.185,1.861.786,3.95.751,5.93,1.144s4.077,1.444,4.685,3.393c.844,2.7-1.563,5.277-3.861,6.906a49.187,49.187,0,0,1-15.168,7.235,16.579,16.579,0,0,0-5.6,2.2c-1.625,1.207-2.724,3.438-1.947,5.315s3.09,2.644,5.094,2.433,3.857-1.145,5.8-1.707c3.628-1.053,8.159-.451,10.176,2.771a8.14,8.14,0,0,1,.3,7.242,18.772,18.772,0,0,1-4.385,6.031,49.456,49.456,0,0,1-22.213,13.137c-8.4,2.191-16.029,2.362-23.918-1.246" transform="translate(1588.891 -4243.057)"/><g transform="translate(10.671 2.526)"><path class="m" d="M-1508.487,4247.69a1.748,1.748,0,0,1-.268.225l-.814.619c-.719.541-1.777,1.339-3.113,2.4a96.475,96.475,0,0,0-10.624,9.8c-2.095,2.226-4.288,4.76-6.594,7.523s-4.742,5.743-7.191,8.965a116.589,116.589,0,0,0-7.187,10.46c-1.142,1.883-2.185,3.864-3.248,5.884s-2.133,4.07-3.22,6.145a236.274,236.274,0,0,0-11.077,23.954,114.812,114.812,0,0,0-5.927,20.7,84.087,84.087,0,0,0-1.379,14.46c0,1.718.026,3.053.077,3.957.015.433.028.773.037,1.028a2.081,2.081,0,0,1,0,.353,1.814,1.814,0,0,1-.047-.35c-.02-.254-.049-.594-.085-1.026-.081-.9-.137-2.238-.165-3.96a80.406,80.406,0,0,1,1.234-14.521,112.952,112.952,0,0,1,5.851-20.8,230.4,230.4,0,0,1,11.064-24.017l3.223-6.146c1.063-2.014,2.117-4.013,3.268-5.9a114.984,114.984,0,0,1,7.239-10.485c2.464-3.224,4.919-6.194,7.235-8.953s4.537-5.284,6.653-7.5a91.263,91.263,0,0,1,10.754-9.713c1.354-1.044,2.432-1.818,3.169-2.334l.842-.581A1.982,1.982,0,0,1-1508.487,4247.69Z" transform="translate(1569.319 -4247.69)"/></g><g transform="translate(33.913 13.769)"><path class="m" d="M-1525.152,4296.812a5.23,5.23,0,0,1-.165-1.113c-.079-.719-.159-1.762-.238-3.054-.162-2.582-.263-6.153-.36-10.092s-.249-7.5-.45-10.072c-.1-1.287-.185-2.327-.256-3.044a5.194,5.194,0,0,1-.056-1.125,5.14,5.14,0,0,1,.238,1.1c.127.713.267,1.751.406,3.037.287,2.573.493,6.147.59,10.091.086,3.888.163,7.4.222,10.091.034,1.214.064,2.236.088,3.057A5.116,5.116,0,0,1-1525.152,4296.812Z" transform="translate(1526.692 -4268.311)"/></g><g transform="translate(35.452 38.487)"><path class="m" d="M-1490.421,4313.861a7.21,7.21,0,0,1-1.327.054c-.852.009-2.084.015-3.607.071-3.045.088-7.246.358-11.869.858s-8.787,1.146-11.785,1.695c-1.5.264-2.711.51-3.548.675a6.94,6.94,0,0,1-1.311.214,7.214,7.214,0,0,1,1.271-.4c.827-.22,2.029-.517,3.526-.825,2.991-.635,7.162-1.328,11.8-1.839a116.476,116.476,0,0,1,11.912-.72c1.528-.013,2.764.032,3.617.082A6.958,6.958,0,0,1-1490.421,4313.861Z" transform="translate(1523.868 -4313.646)"/></g><g transform="translate(4.925 34.365)"><path class="m" d="M-1566.57,4349.49a1.656,1.656,0,0,1-.194-.419l-.469-1.236c-.4-1.076-.947-2.648-1.592-4.6-1.293-3.9-2.91-9.346-4.613-15.379s-3.268-11.488-4.478-15.41l-1.446-4.642c-.155-.506-.282-.923-.387-1.266a1.707,1.707,0,0,1-.1-.453,1.74,1.74,0,0,1,.195.421l.47,1.236c.4,1.075.946,2.647,1.592,4.6,1.293,3.9,2.91,9.346,4.614,15.381s3.267,11.485,4.477,15.408c.595,1.906,1.083,3.476,1.446,4.642.155.505.282.923.387,1.266A1.721,1.721,0,0,1-1566.57,4349.49Z" transform="translate(1579.859 -4306.086)"/></g><g transform="translate(18.214 67.092)"><path class="m" d="M-1510.574,4366.116a1.773,1.773,0,0,1-.449.145l-1.306.326-4.81,1.151c-4.061.973-9.656,2.381-15.834,3.945s-11.793,2.923-15.876,3.813c-2.041.445-3.7.789-4.845,1l-1.324.238a1.689,1.689,0,0,1-.468.051,1.8,1.8,0,0,1,.449-.146l1.306-.325,4.809-1.152c4.062-.972,9.656-2.381,15.837-3.946s11.79-2.922,15.873-3.812c2.041-.445,3.7-.789,4.845-1l1.324-.239A1.712,1.712,0,0,1-1510.574,4366.116Z" transform="translate(1555.486 -4366.11)"/></g></g><g transform="translate(0)"><path class="q" d="M-1665.917,4264.128c19.331-15.9,21.885-42.79,19.2-66.569-.447-3.97-.34-8.2-2.508-11.543s-6.773-5.382-10.2-3.425c-2.847,1.624-3.864,5.163-5.294,8.136a23.356,23.356,0,0,1-8.633,9.65c-2.431,1.514-5.5,2.565-8.114,1.382-3.582-1.625-4.359-6.334-4.646-10.3q-.8-11.072-1.6-22.143c-.287-3.96-.593-8-2.119-11.664s-4.522-6.936-8.37-7.695-8.335,1.779-8.826,5.716c-.2,1.639.256,3.286.275,4.937s-.6,3.531-2.128,4.111c-1.544.589-3.216-.409-4.49-1.475-4.4-3.675-7.578-8.606-10.572-13.522s-5.921-9.961-9.972-14.028-9.449-7.12-15.144-7-11.46,4.1-12.455,9.777c-1,5.693,2.7,11.1,6.6,15.338a88.625,88.625,0,0,0,19.776,16.09c1.318.788,2.745,1.638,3.338,3.067,1.068,2.571-1.227,5.389-3.764,6.461-2.874,1.214-6.1,1.16-9.157,1.767s-6.295,2.23-7.233,5.24c-1.3,4.173,2.414,8.148,5.962,10.663a75.92,75.92,0,0,0,23.419,11.17c3,.836,6.134,1.53,8.642,3.391s4.206,5.308,3.007,8.208-4.771,4.081-7.866,3.754-5.954-1.766-8.947-2.634c-5.6-1.626-12.6-.7-15.712,4.277-2.047,3.271-1.91,7.59-.462,11.183s4.046,6.581,6.771,9.311c9.523,9.544,21.332,16.9,34.3,20.285s24.749,3.647,36.929-1.925" transform="translate(1761.683 -4128.701)"/><g transform="translate(5.456 3.901)"><path class="m" d="M-1751.675,4135.856a2.849,2.849,0,0,0,.414.346l1.258.956c1.109.834,2.744,2.066,4.806,3.709a149.321,149.321,0,0,1,16.4,15.13c3.234,3.438,6.621,7.351,10.182,11.617s7.322,8.867,11.1,13.843a179.431,179.431,0,0,1,11.1,16.149c1.764,2.906,3.373,5.966,5.016,9.085s3.293,6.284,4.971,9.486a364.776,364.776,0,0,1,17.1,36.983,177.406,177.406,0,0,1,9.152,31.962,129.874,129.874,0,0,1,2.129,22.329c0,2.651-.04,4.713-.118,6.107-.025.669-.044,1.194-.059,1.589a3.225,3.225,0,0,0,0,.544,2.919,2.919,0,0,0,.071-.54c.031-.393.076-.917.132-1.584.124-1.394.212-3.457.255-6.116a124.136,124.136,0,0,0-1.907-22.42,174.249,174.249,0,0,0-9.033-32.116,355.546,355.546,0,0,0-17.083-37.081l-4.977-9.49c-1.641-3.111-3.268-6.2-5.046-9.115a177.748,177.748,0,0,0-11.177-16.189c-3.8-4.977-7.6-9.562-11.172-13.823s-7.005-8.158-10.272-11.583a141.05,141.05,0,0,0-16.6-15c-2.092-1.611-3.754-2.808-4.893-3.6l-1.3-.9A3.071,3.071,0,0,0-1751.675,4135.856Z" transform="translate(1751.676 -4135.856)"/></g><g transform="translate(61.073 21.26)"><path class="m" d="M-1649.623,4211.7a8.078,8.078,0,0,0,.254-1.719c.121-1.11.245-2.722.368-4.715.25-3.986.407-9.5.557-15.582s.385-11.583.695-15.553c.149-1.986.286-3.592.4-4.7a7.948,7.948,0,0,0,.086-1.736,7.876,7.876,0,0,0-.367,1.7c-.2,1.1-.412,2.7-.626,4.689-.443,3.972-.762,9.489-.911,15.58-.133,6-.253,11.431-.344,15.58-.053,1.875-.1,3.454-.136,4.721A7.885,7.885,0,0,0-1649.623,4211.7Z" transform="translate(1649.669 -4167.694)"/></g><g transform="translate(9.478 59.424)"><path class="m" d="M-1744.3,4238.022a11.024,11.024,0,0,0,2.049.084c1.315.014,3.218.022,5.568.11,4.7.136,11.188.552,18.325,1.324s13.567,1.771,18.2,2.618c2.319.408,4.186.788,5.478,1.042a10.942,10.942,0,0,0,2.025.331,10.932,10.932,0,0,0-1.962-.612c-1.276-.34-3.132-.8-5.445-1.274-4.617-.981-11.057-2.051-18.217-2.84a180.4,180.4,0,0,0-18.393-1.112c-2.359-.019-4.268.05-5.585.126A10.866,10.866,0,0,0-1744.3,4238.022Z" transform="translate(1744.3 -4237.689)"/></g><g transform="translate(87.731 53.06)"><path class="m" d="M-1600.771,4293.035a2.594,2.594,0,0,0,.3-.647c.2-.517.436-1.147.726-1.91.622-1.661,1.461-4.089,2.457-7.1,2-6.023,4.493-14.431,7.122-23.744s5.047-17.737,6.915-23.794l2.234-7.167.6-1.955a2.584,2.584,0,0,0,.161-.7,2.722,2.722,0,0,0-.3.649c-.2.517-.435,1.146-.725,1.909-.623,1.661-1.461,4.088-2.457,7.1-2,6.024-4.494,14.432-7.124,23.749s-5.046,17.733-6.913,23.791c-.919,2.943-1.672,5.366-2.233,7.166-.239.781-.436,1.426-.6,1.954A2.677,2.677,0,0,0-1600.771,4293.035Z" transform="translate(1600.776 -4226.019)"/></g><g transform="translate(18.393 103.59)"><path class="m" d="M-1727.949,4318.7a2.735,2.735,0,0,0,.693.224l2.016.5,7.427,1.777c6.271,1.5,14.908,3.677,24.448,6.091s18.209,4.514,24.513,5.887c3.151.688,5.707,1.218,7.481,1.547l2.044.369a2.674,2.674,0,0,0,.723.078,2.783,2.783,0,0,0-.693-.225l-2.016-.5-7.425-1.778c-6.271-1.5-14.909-3.676-24.452-6.092s-18.205-4.512-24.508-5.884c-3.151-.688-5.707-1.218-7.482-1.549l-2.044-.368A2.642,2.642,0,0,0-1727.949,4318.7Z" transform="translate(1727.949 -4318.694)"/></g></g><g transform="translate(66.919 165.269)"><g transform="translate(4.969 15.782)"><path class="m" d="M-1629.835,4460.767l1.775,47.745h51.44l4.071-47.745Z" transform="translate(1629.835 -4460.767)"/></g><rect class="m" width="68.391" height="15.783"/><g transform="translate(5.397 15.198)"><path class="n" d="M-1571.477,4460.016c0,.177-12.889.32-28.785.32s-28.787-.144-28.787-.32,12.886-.32,28.787-.32S-1571.477,4459.838-1571.477,4460.016Z" transform="translate(1629.049 -4459.695)"/></g></g></g><g transform="translate(-1448.922 3647.534)"><g transform="translate(56.003 207.134)"><path class="m" d="M-915.543,4317.771l-43.42-224.753.056-.014c-.083-.333-.165-.649-.247-.977l-.008-.042h0c-6.664-26.427-11.926-32.91-11.926-32.91l-64.95,1.771c-5.1,9.162-5.742,31.139-5.742,31.139-.7,2.693,9.309,221.332,9.309,221.332l26.921-.079,7.35-207.344,58.089,212.424Z" transform="translate(1041.817 -4059.075)"/><g transform="translate(28.303 39.778)"><path class="n" d="M-957.417,4132.049c.055.213-7.174,2.269-16.144,4.589s-16.29,4.032-16.345,3.819,7.172-2.268,16.145-4.59S-957.472,4131.836-957.417,4132.049Z" transform="translate(989.907 -4132.031)"/></g><g transform="translate(7.766 26.304)"><path class="n" d="M-1020.943,4338.037c-.187,0-1.818-51.643-3.644-115.344-1.827-63.724-3.156-115.368-2.969-115.374s1.818,51.632,3.644,115.355C-1022.086,4286.375-1020.757,4338.031-1020.943,4338.037Z" transform="translate(1027.574 -4107.319)"/></g><g transform="translate(20.887 26.036)"><path class="n" d="M-1002.6,4333.954c-.187,0-.514-50.847-.731-113.557-.217-62.731-.241-113.569-.055-113.57s.514,50.835.731,113.568C-1002.435,4283.1-1002.41,4333.954-1002.6,4333.954Z" transform="translate(1003.508 -4106.827)"/></g><g transform="translate(29.316 22.949)"><path class="n" d="M-984.157,4101.165c.186,0-.527,51.545-1.593,115.107-1.067,63.584-2.082,115.11-2.269,115.107s.527-51.534,1.593-115.118C-985.359,4152.7-984.344,4101.162-984.157,4101.165Z" transform="translate(988.048 -4101.165)"/></g><g transform="translate(42.376 21.865)"><path class="n" d="M-962.857,4124.131c-.187.008-.594-5.571-.911-12.461s-.422-12.485-.236-12.494.594,5.57.911,12.462S-962.67,4124.123-962.857,4124.131Z" transform="translate(964.096 -4099.177)"/></g><g transform="translate(51.076 21.865)"><path class="n" d="M-891.369,4335.856c-.182.043-13.037-52.908-28.711-118.255-15.679-65.37-28.238-118.381-28.057-118.424s13.035,52.9,28.714,118.267C-903.75,4282.791-891.188,4335.813-891.369,4335.856Z" transform="translate(948.14 -4099.177)"/></g><g transform="translate(61.776 19.605)"><path class="n" d="M-874.691,4333.785c-.182.041-12.379-53.377-27.239-119.3-14.865-65.942-26.764-119.416-26.582-119.456s12.375,53.365,27.241,119.307C-886.41,4280.26-874.509,4333.744-874.691,4333.785Z" transform="translate(928.514 -4095.033)"/></g><g transform="translate(73.818 19.605)"><path class="n" d="M-859.738,4332.45c-.183.036-10.784-53.086-23.674-118.638-12.9-65.573-23.2-118.743-23.014-118.779s10.781,53.075,23.677,118.649C-869.859,4279.233-859.554,4332.414-859.738,4332.45Z" transform="translate(906.428 -4095.033)"/></g></g><g transform="translate(0 0.462)"><path class="r" d="M-1078.064,3797.158l-43.228-37.286.839-53.147.831-1.121c.449-.617.961-1.294,1.566-2.04a9.982,9.982,0,0,1,2.487-2.18,15.29,15.29,0,0,1,3.7-1.82c1.235-.28,1.522-1.892.48-2.34s-4.462.238-7.736,2.693-1.663-3.7-1.117-5.954,1.909-9.295,1.346-9.993c-.826-1.023-2.108-.312-2.6,1.95-.5,2.289-2.452,8.951-3.634,8.636-1.164-.31,1.775-11.745,1.775-11.745s1.026-2.354-.327-2.762c-2.439-.738-4.664,11.625-4.847,12.805-.127.822-1.424.526-1.24-.35.189-.9,3.2-11.345.723-12.12-1.9-.594-1.926,10.155-3.758,12.006s.858-8.169-.983-8.663c-.685-.184-1.224-.226-1.934,5.729a116.265,116.265,0,0,0-1.3,12.413l-.008,0-7.5,64.026,43.521,48.916Z" transform="translate(1144.531 -3680.018)"/></g><g transform="translate(62.958 460.297)"><g transform="translate(0.003 0.478)"><path class="s" d="M-1025.532,4525.4l-3.522,11.752,25.13-.3,1.119-12.572Z" transform="translate(1029.054 -4524.277)"/></g><g transform="translate(0.649 10.036)"><path class="m" d="M-1002.9,4542.438a15.64,15.64,0,0,1-3.659.289c-2.263.061-5.389.043-8.835-.042l-8.821-.285a17.805,17.805,0,0,1-3.655-.286,15.844,15.844,0,0,1,3.66-.277c2.262-.056,5.388-.035,8.835.051l8.819.275A18.147,18.147,0,0,1-1002.9,4542.438Z" transform="translate(1027.87 -4541.806)"/></g><g transform="translate(14.057)"><path class="m" d="M-1002.492,4523.4c.22.013.267,2.386.106,5.3s-.471,5.268-.69,5.256-.267-2.385-.105-5.3S-1002.712,4523.387-1002.492,4523.4Z" transform="translate(1003.278 -4523.399)"/></g><g class="t" transform="translate(0 10.347)"><path class="u" d="M-1029.057,4545.38l25.13-.3.212-2.379-24.924-.325-.421,2.719" transform="translate(1029.06 -4542.377)"/></g></g><g transform="translate(68.402)"><path class="r" d="M-1000.5,3681.258c-1.651.95,3.527,9.942,1.279,8.625s-5.037-11.7-6.72-10.636c-2.192,1.385,3.4,10.7,3.817,11.526.4.8-.775,1.418-1.109.657-.48-1.094-5.811-12.468-7.978-11.127-1.2.742.395,2.752.395,2.752s5.783,10.295,4.737,10.894c-1.061.608-4.662-5.327-5.734-7.41-1.059-2.059-2.48-2.418-3.015-1.215-.364.819,2.764,7.274,3.872,9.31s4.248,7.572.453,6.042-7.278-1.312-8.169-.612-.2,2.186,1.067,2.138a15.3,15.3,0,0,1,4.045.808,9.952,9.952,0,0,1,2.964,1.466c.777.564,1.446,1.086,2.039,1.567l1.092.87,21.663,53.405-19.682,45.809,30.505,11.356,13.712-60.577-31.43-58.952-.008,0a116.253,116.253,0,0,0-4.45-11.66C-999.377,3680.725-999.887,3680.905-1000.5,3681.258Z" transform="translate(1019.076 -3679.171)"/></g><g transform="translate(157.467 465.491)"><g transform="translate(0.157)"><path class="s" d="M-829.385,4535.488l-.1-2.562-25.952.75.225,8.449,1.6.052c7.141.176,36.321.43,41.045-1.042C-807.292,4539.494-829.385,4535.488-829.385,4535.488Z" transform="translate(855.434 -4532.926)"/><g class="t" transform="translate(0.037 2.097)"><path class="u" d="M-845.817,4543.433a8.3,8.3,0,0,0-3.456-5.032,9.187,9.187,0,0,0-6.093-1.583l.2,6.712Z" transform="translate(855.366 -4536.771)"/></g></g><g class="t" transform="translate(0.382 4.875)"><path class="u" d="M-818.391,4541.867s7.758,1.857,6.834,3.061-30.422,1.979-43.465,1.263l.025-.539,34.416-.632S-819.894,4541.966-818.391,4541.867Z" transform="translate(855.022 -4541.867)"/></g><g transform="translate(0 7.527)"><path class="m" d="M-855.722,4547.86a2.678,2.678,0,0,0,.445.033l1.278.038,4.7.064c3.97.029,9.456,0,15.512-.154s11.538-.407,15.5-.639l4.691-.305,1.274-.1a2.628,2.628,0,0,0,.442-.055,2.6,2.6,0,0,0-.447,0l-1.277.049-4.695.212c-3.964.179-9.442.4-15.5.554s-11.534.215-15.5.239l-4.7.028-1.278.017A2.5,2.5,0,0,0-855.722,4547.86Z" transform="translate(855.722 -4546.73)"/></g><g transform="translate(34.773 4.575)"><path class="m" d="M-791.891,4545.144a9.358,9.358,0,0,1,.813-2.106,10.078,10.078,0,0,1,1.55-1.714,3.421,3.421,0,0,0-1.822,1.568A3.037,3.037,0,0,0-791.891,4545.144Z" transform="translate(791.945 -4541.317)"/></g><g transform="translate(27.08 2.969)"><path class="m" d="M-806.041,4540.41c.075.041.426-.381.787-.943s.592-1.051.517-1.092-.426.381-.786.943S-806.115,4540.368-806.041,4540.41Z" transform="translate(806.054 -4538.372)"/></g><g transform="translate(24.963 2.636)"><path class="m" d="M-809.929,4539.158c.06.058.46-.206.894-.589s.737-.742.678-.8-.46.206-.894.589S-809.989,4539.1-809.929,4539.158Z" transform="translate(809.937 -4537.761)"/></g><g transform="translate(23.579 1.632)"><path class="m" d="M-812.475,4536.089a3.276,3.276,0,0,0,1.353.125,3.281,3.281,0,0,0,1.348-.167,3.25,3.25,0,0,0-1.353-.125A3.247,3.247,0,0,0-812.475,4536.089Z" transform="translate(812.475 -4535.92)"/></g><g transform="translate(23.076 0.187)"><path class="m" d="M-813.4,4533.3a2.769,2.769,0,0,0,1.517.367,2.788,2.788,0,0,0,1.547-.233,9.011,9.011,0,0,0-1.533-.057A8.825,8.825,0,0,0-813.4,4533.3Z" transform="translate(813.398 -4533.27)"/></g><g transform="translate(27.907 0.642)"><path class="m" d="M-804.538,4536.351a5.206,5.206,0,0,0,1.66-.054,10.477,10.477,0,0,0,1.756-.409,5.094,5.094,0,0,0,1-.414.849.849,0,0,0,.4-.491.588.588,0,0,0-.27-.609,3.18,3.18,0,0,0-3.74.927,2.658,2.658,0,0,0-.51,1.044c-.058.267-.049.416-.031.418a4.224,4.224,0,0,1,.716-1.337,3,3,0,0,1,1.392-.894,2.752,2.752,0,0,1,1.982.073c.269.175.176.466-.113.636a5.18,5.18,0,0,1-.922.395,12.188,12.188,0,0,1-1.7.459C-803.907,4536.284-804.54,4536.3-804.538,4536.351Z" transform="translate(804.538 -4534.103)"/></g><g transform="translate(26.1 0.007)"><path class="m" d="M-805.613,4535.885a1.431,1.431,0,0,0,.159-1.076,2.429,2.429,0,0,0-.487-1.117,1.7,1.7,0,0,0-1.406-.75.614.614,0,0,0-.49.727,1.624,1.624,0,0,0,.3.682,4.77,4.77,0,0,0,.813.914,2.447,2.447,0,0,0,.969.6c.028-.039-.339-.269-.812-.746a5.453,5.453,0,0,1-.724-.908c-.238-.32-.412-.9,0-.982a1.508,1.508,0,0,1,1.114.625,2.48,2.48,0,0,1,.5.992A5.234,5.234,0,0,1-805.613,4535.885Z" transform="translate(807.852 -4532.939)"/></g><g transform="translate(0.328 1.871)"><path class="m" d="M-855.121,4536.557c.007.055.738-.086,1.91.013a8.721,8.721,0,0,1,4.212,1.486,7.82,7.82,0,0,1,2.707,3.35c.425,1.02.485,1.71.543,1.7a1.29,1.29,0,0,0-.014-.485,5.98,5.98,0,0,0-.321-1.288,7.458,7.458,0,0,0-2.726-3.513,8.383,8.383,0,0,0-4.386-1.459,7.336,7.336,0,0,0-1.42.071A1.549,1.549,0,0,0-855.121,4536.557Z" transform="translate(855.121 -4536.357)"/></g><g transform="translate(12.923 6.172)"><path class="m" d="M-832.02,4544.4a15.722,15.722,0,0,0,3.782.25,15.667,15.667,0,0,0,3.77-.381c-.011-.083-1.7.057-3.776.09S-832.012,4544.321-832.02,4544.4Z" transform="translate(832.02 -4544.247)"/></g><g transform="translate(7.849 6.447)"><path class="m" d="M-841.316,4544.76c-.062.061.148.329.331.685s.287.671.376.664.122-.383-.094-.792S-841.262,4544.7-841.316,4544.76Z" transform="translate(841.327 -4544.75)"/></g><g transform="translate(5.872 4.287)"><path class="m" d="M-844.941,4540.8c-.059.059.114.3.39.549s.546.4.606.339-.115-.3-.39-.549S-844.881,4540.743-844.941,4540.8Z" transform="translate(844.952 -4540.789)"/></g><g transform="translate(3.121 3.213)"><path class="m" d="M-850,4538.969c.021.081.364.068.747.183s.662.3.729.24-.16-.383-.636-.518S-850.025,4538.894-850,4538.969Z" transform="translate(849.998 -4538.819)"/></g><g transform="translate(1.161 2.878)"><path class="m" d="M-853.59,4538.264c-.029.076.123.2.34.266s.415.069.445-.007-.123-.2-.34-.267S-853.561,4538.188-853.59,4538.264Z" transform="translate(853.594 -4538.205)"/></g></g><g transform="translate(30.75 77.733)"><path class="s" d="M-992.675,3893.942l-7.056,36.719c14.716,20.481,16.057,38.047,16.057,38.047l-79.183,9.266c.013-14.342,10.442-37.538,10.442-37.538l-12.707-43.383-23.01-29.96,22.834-20.579c-.438,1.157,21.407,13.8,21.407,13.8l31.376.267a26.276,26.276,0,0,1,4.51.9l15.33-39.736a55.726,55.726,0,0,1,11.058,38.788c-2.471,25.085-5.467,18.846-11.058,33.413" transform="translate(1088.132 -3821.741)"/><g transform="translate(36.912 104.447)"><path class="l" d="M-1005.362,4013.312c.038.023-.052.271-.277.69a7.217,7.217,0,0,1-1.2,1.642,4.278,4.278,0,0,1-2.786,1.323,3.279,3.279,0,0,1-1.832-.479,18.8,18.8,0,0,1-1.55-1.1,4.757,4.757,0,0,0-3.177-.934,4.672,4.672,0,0,0-2.559.979,8.624,8.624,0,0,0-1.677,2.027,3.52,3.52,0,0,1,1.371-2.394,4.917,4.917,0,0,1,2.812-1.232,5.222,5.222,0,0,1,3.622,1c1.049.793,1.942,1.571,2.971,1.507a3.958,3.958,0,0,0,2.478-1.05C-1005.974,4014.194-1005.466,4013.235-1005.362,4013.312Z" transform="translate(1020.431 -4013.307)"/></g><g transform="translate(76.07 128.984)"><path class="l" d="M-933.542,4058.314c.038.024-.052.271-.278.69a7.193,7.193,0,0,1-1.2,1.642,4.275,4.275,0,0,1-2.786,1.323,3.288,3.288,0,0,1-1.833-.479c-.562-.322-1.046-.742-1.549-1.1a4.764,4.764,0,0,0-3.177-.934,4.678,4.678,0,0,0-2.559.979,8.637,8.637,0,0,0-1.677,2.027,3.527,3.527,0,0,1,1.371-2.394,4.917,4.917,0,0,1,2.812-1.232,5.225,5.225,0,0,1,3.622,1c1.048.794,1.942,1.571,2.971,1.507a3.958,3.958,0,0,0,2.478-1.049C-934.154,4059.2-933.646,4058.238-933.542,4058.314Z" transform="translate(948.612 -4058.31)"/></g><g transform="translate(62.512 90.264)"><path class="l" d="M-970.029,3987.3c.036-.028.237.143.551.5a7.207,7.207,0,0,1,1.124,1.695,4.278,4.278,0,0,1,.273,3.072,3.291,3.291,0,0,1-1.086,1.552,18.882,18.882,0,0,1-1.57,1.071,4.759,4.759,0,0,0-1.979,2.655,4.67,4.67,0,0,0,.029,2.739,8.637,8.637,0,0,0,1.319,2.276c-.012.065-1.081-.46-1.769-2.117a4.916,4.916,0,0,1-.178-3.065,5.221,5.221,0,0,1,2.2-3.048c1.109-.708,2.147-1.276,2.445-2.263a3.96,3.96,0,0,0-.124-2.688C-969.414,3988.177-970.137,3987.368-970.029,3987.3Z" transform="translate(973.48 -3987.294)"/></g><g transform="translate(69.831 115.757)"><path class="l" d="M-960.017,4043.581c-.045-.007-.055-.271,0-.744a7.213,7.213,0,0,1,.489-1.974,4.278,4.278,0,0,1,2.079-2.277,3.288,3.288,0,0,1,1.877-.249,18.951,18.951,0,0,1,1.85.433,4.764,4.764,0,0,0,3.295-.336,4.673,4.673,0,0,0,2-1.873,8.611,8.611,0,0,0,.786-2.511,3.522,3.522,0,0,1-.364,2.734,4.918,4.918,0,0,1-2.138,2.2,5.221,5.221,0,0,1-3.733.439c-1.271-.339-2.391-.721-3.32-.273a3.959,3.959,0,0,0-1.9,1.909C-959.783,4042.533-959.891,4043.613-960.017,4043.581Z" transform="translate(960.055 -4034.05)"/></g><g transform="translate(74.866 141.281)"><path class="l" d="M-950.815,4083.642c-.033-.03.1-.255.408-.622a7.207,7.207,0,0,1,1.5-1.372,4.275,4.275,0,0,1,2.993-.744,3.279,3.279,0,0,1,1.7.833,18.932,18.932,0,0,1,1.3,1.385,4.766,4.766,0,0,0,2.929,1.545,4.674,4.674,0,0,0,2.7-.452,8.621,8.621,0,0,0,2.045-1.655c.066,0-.288,1.139-1.818,2.075a4.919,4.919,0,0,1-3,.65,5.221,5.221,0,0,1-3.351-1.7c-.871-.987-1.591-1.925-2.613-2.067a3.964,3.964,0,0,0-2.637.538C-950.04,4082.9-950.728,4083.737-950.815,4083.642Z" transform="translate(950.82 -4080.863)"/></g><g transform="translate(32.214 143.608)"><path class="l" d="M-1029.046,4086.845c-.024-.037.166-.22.553-.5a7.235,7.235,0,0,1,1.8-.947,4.278,4.278,0,0,1,3.084.039,3.285,3.285,0,0,1,1.435,1.237,18.9,18.9,0,0,1,.907,1.669,4.763,4.763,0,0,0,2.442,2.237,4.671,4.671,0,0,0,2.728.248,8.676,8.676,0,0,0,2.4-1.082,3.521,3.521,0,0,1-2.285,1.545,4.913,4.913,0,0,1-3.068-.132,5.223,5.223,0,0,1-2.81-2.5c-.592-1.174-1.052-2.265-2-2.661a3.956,3.956,0,0,0-2.687-.148C-1028.107,4086.323-1028.986,4086.96-1029.046,4086.845Z" transform="translate(1029.048 -4085.131)"/></g><g transform="translate(76.33 80.307)"><path class="l" d="M-948.136,3969.441c-.007-.044.24-.137.7-.238a7.2,7.2,0,0,1,2.027-.155,4.274,4.274,0,0,1,2.816,1.259,3.286,3.286,0,0,1,.826,1.7,18.843,18.843,0,0,1,.17,1.892,4.761,4.761,0,0,0,1.354,3.022,4.675,4.675,0,0,0,2.406,1.31,8.661,8.661,0,0,0,2.631-.042,3.526,3.526,0,0,1-2.711.512,4.916,4.916,0,0,1-2.764-1.338,5.221,5.221,0,0,1-1.589-3.406c-.077-1.313-.067-2.5-.784-3.238a3.96,3.96,0,0,0-2.408-1.2C-947.068,3969.333-948.126,3969.57-948.136,3969.441Z" transform="translate(948.136 -3969.031)"/></g><g transform="translate(96.812 21.66)"><path class="l" d="M-907.657,3861.47c.034-.03.243.132.574.474a7.193,7.193,0,0,1,1.2,1.64,4.276,4.276,0,0,1,.415,3.056,3.286,3.286,0,0,1-1.012,1.6,18.905,18.905,0,0,1-1.518,1.142,4.761,4.761,0,0,0-1.853,2.745,4.671,4.671,0,0,0,.156,2.735,8.611,8.611,0,0,0,1.424,2.212c-.009.065-1.1-.409-1.866-2.032a4.923,4.923,0,0,1-.321-3.054,5.223,5.223,0,0,1,2.055-3.146c1.075-.759,2.085-1.374,2.337-2.375a3.957,3.957,0,0,0-.248-2.679C-907,3862.321-907.762,3861.547-907.657,3861.47Z" transform="translate(910.569 -3861.467)"/></g><g transform="translate(61.252 72.502)"><path class="l" d="M-975.789,3955.127c-.007-.045.24-.137.7-.238a7.206,7.206,0,0,1,2.028-.155,4.276,4.276,0,0,1,2.815,1.259,3.286,3.286,0,0,1,.826,1.7c.12.637.116,1.277.17,1.893a4.761,4.761,0,0,0,1.354,3.022,4.676,4.676,0,0,0,2.406,1.31,8.631,8.631,0,0,0,2.631-.042,3.524,3.524,0,0,1-2.711.513,4.917,4.917,0,0,1-2.763-1.338,5.221,5.221,0,0,1-1.589-3.406c-.078-1.313-.068-2.5-.785-3.237a3.957,3.957,0,0,0-2.408-1.2C-974.72,3955.019-975.779,3955.257-975.789,3955.127Z" transform="translate(975.789 -3954.717)"/></g><g transform="translate(89.491 38.572)"><path class="l" d="M-924,3892.894c-.008-.044.24-.136.7-.237a7.223,7.223,0,0,1,2.027-.155,4.271,4.271,0,0,1,2.815,1.259,3.284,3.284,0,0,1,.827,1.7c.119.636.116,1.277.17,1.892a4.762,4.762,0,0,0,1.354,3.022,4.668,4.668,0,0,0,2.406,1.31,8.6,8.6,0,0,0,2.63-.042,3.524,3.524,0,0,1-2.71.513,4.921,4.921,0,0,1-2.764-1.339,5.219,5.219,0,0,1-1.589-3.405c-.078-1.313-.067-2.5-.785-3.238a3.958,3.958,0,0,0-2.407-1.2C-922.927,3892.787-923.987,3893.024-924,3892.894Z" transform="translate(923.996 -3892.485)"/></g><g transform="translate(32.036 81.044)"><path class="l" d="M-1029.371,3970.394c.021-.039.274.039.7.243a7.226,7.226,0,0,1,1.7,1.116,4.276,4.276,0,0,1,1.459,2.716,3.29,3.29,0,0,1-.386,1.854c-.294.577-.689,1.082-1.022,1.6a4.76,4.76,0,0,0-.774,3.22,4.673,4.673,0,0,0,1.1,2.507,8.628,8.628,0,0,0,2.108,1.574,3.525,3.525,0,0,1-2.459-1.25,4.916,4.916,0,0,1-1.37-2.748,5.223,5.223,0,0,1,.822-3.668c.74-1.086,1.471-2.017,1.356-3.042a3.96,3.96,0,0,0-1.172-2.422C-1028.459,3970.961-1029.443,3970.5-1029.371,3970.394Z" transform="translate(1029.375 -3970.384)"/></g><g transform="translate(18.191 44.792)"><path class="l" d="M-1054.768,3904.408c-.009-.044.234-.146.694-.268a7.231,7.231,0,0,1,2.019-.243,4.277,4.277,0,0,1,2.867,1.136,3.288,3.288,0,0,1,.9,1.667,18.907,18.907,0,0,1,.251,1.883,4.768,4.768,0,0,0,1.484,2.961,4.675,4.675,0,0,0,2.461,1.2,8.654,8.654,0,0,0,2.626-.156,3.521,3.521,0,0,1-2.686.629,4.914,4.914,0,0,1-2.819-1.217,5.219,5.219,0,0,1-1.736-3.333c-.135-1.309-.176-2.492-.924-3.2a3.953,3.953,0,0,0-2.458-1.1C-1053.705,3904.254-1054.753,3904.537-1054.768,3904.408Z" transform="translate(1054.768 -3903.895)"/></g><g transform="translate(20.248 29.808)"><path class="l" d="M-1051,3876.925c-.009-.043.234-.146.694-.268a7.2,7.2,0,0,1,2.018-.243,4.272,4.272,0,0,1,2.867,1.136,3.283,3.283,0,0,1,.9,1.666c.147.631.171,1.271.252,1.884a4.76,4.76,0,0,0,1.484,2.96,4.671,4.671,0,0,0,2.46,1.2,8.632,8.632,0,0,0,2.626-.156,3.524,3.524,0,0,1-2.686.629,4.914,4.914,0,0,1-2.819-1.217,5.22,5.22,0,0,1-1.736-3.333c-.134-1.309-.175-2.491-.924-3.2a3.957,3.957,0,0,0-2.457-1.1C-1049.932,3876.771-1050.98,3877.054-1051,3876.925Z" transform="translate(1050.995 -3876.412)"/></g><g transform="translate(19.883 64.929)"><path class="l" d="M-1051.665,3941.34c-.009-.044.234-.147.694-.268a7.212,7.212,0,0,1,2.019-.243,4.277,4.277,0,0,1,2.867,1.135,3.287,3.287,0,0,1,.9,1.667,18.98,18.98,0,0,1,.251,1.883,4.764,4.764,0,0,0,1.484,2.96,4.678,4.678,0,0,0,2.461,1.2,8.631,8.631,0,0,0,2.626-.157,3.524,3.524,0,0,1-2.686.63,4.919,4.919,0,0,1-2.819-1.217,5.222,5.222,0,0,1-1.736-3.333c-.135-1.309-.176-2.491-.924-3.2a3.962,3.962,0,0,0-2.457-1.1C-1050.6,3941.186-1051.65,3941.469-1051.665,3941.34Z" transform="translate(1051.666 -3940.827)"/></g><g transform="translate(9.904 42.442)"><path class="l" d="M-1069.964,3899.593c.022-.04.274.039.7.243a7.21,7.21,0,0,1,1.7,1.115,4.273,4.273,0,0,1,1.46,2.716,3.283,3.283,0,0,1-.387,1.854c-.294.578-.689,1.082-1.022,1.6a4.758,4.758,0,0,0-.774,3.219,4.675,4.675,0,0,0,1.1,2.507,8.638,8.638,0,0,0,2.109,1.574,3.525,3.525,0,0,1-2.459-1.25,4.923,4.923,0,0,1-1.37-2.748,5.222,5.222,0,0,1,.822-3.667c.74-1.086,1.472-2.018,1.356-3.042a3.956,3.956,0,0,0-1.171-2.423C-1069.052,3900.161-1070.036,3899.7-1069.964,3899.593Z" transform="translate(1069.968 -3899.583)"/></g><g transform="translate(74.096 99.589)"><path class="l" d="M-952.233,4004.806c-.007-.044.24-.137.7-.238a7.223,7.223,0,0,1,2.027-.155,4.277,4.277,0,0,1,2.816,1.259,3.29,3.29,0,0,1,.826,1.7,18.831,18.831,0,0,1,.17,1.893,4.76,4.76,0,0,0,1.354,3.021,4.668,4.668,0,0,0,2.406,1.31,8.635,8.635,0,0,0,2.63-.042,3.526,3.526,0,0,1-2.71.513,4.92,4.92,0,0,1-2.764-1.338,5.222,5.222,0,0,1-1.589-3.406c-.077-1.313-.067-2.5-.785-3.238a3.954,3.954,0,0,0-2.407-1.2C-951.164,4004.7-952.223,4004.935-952.233,4004.806Z" transform="translate(952.233 -4004.396)"/></g><g transform="translate(37.135 128.415)"><path class="l" d="M-1020.012,4062.768c-.04-.019.027-.275.213-.712a7.21,7.21,0,0,1,1.045-1.745,4.278,4.278,0,0,1,2.654-1.571,3.29,3.29,0,0,1,1.868.31,18.945,18.945,0,0,1,1.643.955,4.76,4.76,0,0,0,3.249.641,4.665,4.665,0,0,0,2.459-1.208,8.629,8.629,0,0,0,1.486-2.171,3.525,3.525,0,0,1-1.148,2.508,4.913,4.913,0,0,1-2.688,1.483,5.224,5.224,0,0,1-3.7-.67c-1.117-.7-2.076-1.388-3.1-1.23a3.96,3.96,0,0,0-2.372,1.271C-1019.483,4061.834-1019.9,4062.835-1020.012,4062.768Z" transform="translate(1020.024 -4057.266)"/></g><g transform="translate(59.709 130.969)"><path class="l" d="M-977.763,4076.146c-.042.014-.174-.214-.35-.657a7.228,7.228,0,0,1-.485-1.974,4.281,4.281,0,0,1,.781-2.984,3.291,3.291,0,0,1,1.546-1.094,18.91,18.91,0,0,1,1.839-.478,4.756,4.756,0,0,0,2.76-1.831,4.667,4.667,0,0,0,.9-2.588,8.628,8.628,0,0,0-.472-2.588,3.527,3.527,0,0,1,.95,2.59,4.917,4.917,0,0,1-.868,2.945,5.221,5.221,0,0,1-3.1,2.125c-1.282.292-2.452.475-3.066,1.3a3.958,3.958,0,0,0-.791,2.572C-978.044,4075.109-977.637,4076.115-977.763,4076.146Z" transform="translate(978.619 -4061.95)"/></g><g transform="translate(46.798 116.326)"><path class="l" d="M-1002.3,4037.34c-.029-.034.136-.24.483-.566a7.212,7.212,0,0,1,1.66-1.174,4.275,4.275,0,0,1,3.062-.365,3.281,3.281,0,0,1,1.584,1.038c.43.484.755,1.037,1.117,1.537a4.764,4.764,0,0,0,2.714,1.9,4.664,4.664,0,0,0,2.737-.112,8.6,8.6,0,0,0,2.235-1.387c.065.01-.427,1.094-2.062,1.832a4.921,4.921,0,0,1-3.059.271,5.223,5.223,0,0,1-3.113-2.106c-.741-1.087-1.339-2.108-2.336-2.375a3.959,3.959,0,0,0-2.683.2C-1001.435,4036.7-1002.222,4037.446-1002.3,4037.34Z" transform="translate(1002.3 -4035.094)"/></g><g transform="translate(42.225 86.579)"><path class="l" d="M-1010.683,3982.889c-.03-.034.13-.244.468-.578a7.21,7.21,0,0,1,1.629-1.217,4.278,4.278,0,0,1,3.052-.445,3.288,3.288,0,0,1,1.61,1,18.9,18.9,0,0,1,1.157,1.508,4.76,4.76,0,0,0,2.762,1.826,4.675,4.675,0,0,0,2.733-.183,8.67,8.67,0,0,0,2.2-1.444c.065.008-.4,1.1-2.014,1.884a4.92,4.92,0,0,1-3.051.351,5.225,5.225,0,0,1-3.167-2.025c-.769-1.066-1.394-2.072-2.4-2.314a3.961,3.961,0,0,0-2.677.275C-1009.838,3982.226-1010.606,3982.993-1010.683,3982.889Z" transform="translate(1010.687 -3980.534)"/></g></g><g transform="translate(56.025 48.042)"><path class="m" d="M-1021.176,3774.132c-6.581,2.984-9.224,10.256-9.87,16.936s.038,13.637-2.541,19.894c-2.172,5.27-6.633,10.079-6.134,15.725.372,4.211,3.507,7.918,4.08,12.113,1.111,8.12-7.51,15.391-5.945,23.456.717,3.691,3.547,6.854,6.934,9.036a49.278,49.278,0,0,0,11.211,4.818c5.237,1.748,11.054,3.472,16.193,1.646,4.567-1.622,7.675-5.792,12.406-6.987,4.543-1.148,9.357.729,14.094.828a15.859,15.859,0,0,0,11.649-4.431,10.526,10.526,0,0,0,2.408-11.092c-2.111-5.2-8.6-8.552-9.6-14.006-.9-4.934,3.115-9.821,1.848-14.694-1.412-5.427-8.675-8.281-10.433-13.629-2.108-6.412,4.628-13.251,2-19.511-1.543-3.683-5.979-6.008-7.175-9.791-.82-2.6.063-5.386-.527-8.03-1.019-4.565-6.155-7.519-11.164-8.557a26.187,26.187,0,0,0-18.1,2.615c-5.264,3.04-8.961,8.3-9.442,13.978" transform="translate(1041.776 -3767.285)"/><g transform="translate(30.419 0.779)"><path class="m" d="M-985.984,3770.141a22.492,22.492,0,0,1,18.635,1.311,22.493,22.493,0,0,1,11.018,15.086c1.009,5.087.259,10.592,2.471,15.283,2.4,5.094,8.037,8.594,8.891,14.16.826,5.377-3.185,10.272-4.023,15.648-.872,5.6,1.763,11.259,1.126,16.889a15.019,15.019,0,0,1-10.1,12.322,15.019,15.019,0,0,1-15.381-4.165" transform="translate(985.984 -3768.714)"/></g><g transform="translate(47.576 2.298)"><path class="m" d="M-954.44,3782.839a13.146,13.146,0,0,1,6.306-9.591,13.146,13.146,0,0,1,11.45-.8,10.014,10.014,0,0,1,5.128,4.412,10.891,10.891,0,0,1,.48,8,14.517,14.517,0,0,1-7.911,9.346,11.765,11.765,0,0,1-11.934-1.482,9.918,9.918,0,0,1-2.8-11.423" transform="translate(954.516 -3771.499)"/></g><g transform="translate(43.352 6.922)"><path class="o" d="M-948.061,3798.163a3.925,3.925,0,0,1-1.184.171,26.678,26.678,0,0,1-3.258.058,13.284,13.284,0,0,1-4.767-1.034,8.161,8.161,0,0,1-4.219-4.234,9.609,9.609,0,0,1-.522-5.967,10.981,10.981,0,0,1,2.2-4.362,11.947,11.947,0,0,1,2.4-2.231,3.316,3.316,0,0,1,1.051-.58,23.693,23.693,0,0,0-3.077,3.1,11.052,11.052,0,0,0-1.972,4.206,9.23,9.23,0,0,0,.534,5.558,7.682,7.682,0,0,0,3.861,3.939,13.669,13.669,0,0,0,4.541,1.123C-949.767,3798.129-948.062,3798.044-948.061,3798.163Z" transform="translate(962.263 -3779.981)"/></g><g transform="translate(40.761 18.216)"><path class="n" d="M-948.759,3806.225a10.51,10.51,0,0,0-1.425,3.113,11.767,11.767,0,0,0-.248,4.02,20.62,20.62,0,0,0,1.33,5.231c.706,1.889,1.8,3.833,2.879,5.994a28.419,28.419,0,0,1,2.755,7.275,11.53,11.53,0,0,1-1.476,8.5,11.715,11.715,0,0,1-7.68,5.341l-.417.078.025-.427c.1-1.626.2-3.359.3-5.116l.65.144a6.616,6.616,0,0,1-1.894,2.589,7.01,7.01,0,0,1-5.992,1.545l-.416-.1.192-.382a31.582,31.582,0,0,0,3.349-8.985,11.708,11.708,0,0,0-.128-4.445,10.991,10.991,0,0,0-1.827-3.835c-1.637-2.284-3.689-4.116-5.1-6.265a18.056,18.056,0,0,1-2.72-6.5,18.806,18.806,0,0,1,.591-10.012,13.394,13.394,0,0,1,1.6-3.3,35.649,35.649,0,0,0-1.365,3.376,19.048,19.048,0,0,0-.384,9.841,17.747,17.747,0,0,0,2.719,6.294c1.383,2.071,3.435,3.87,5.147,6.218a11.571,11.571,0,0,1,1.947,4.035,12.31,12.31,0,0,1,.159,4.691,31.929,31.929,0,0,1-3.387,9.19l-.224-.477a6.35,6.35,0,0,0,5.4-1.409,5.954,5.954,0,0,0,1.7-2.319l.77-1.861-.12,2c-.105,1.756-.209,3.49-.307,5.116l-.391-.348a11.1,11.1,0,0,0,7.258-5.023,10.938,10.938,0,0,0,1.436-8.056,28.222,28.222,0,0,0-2.644-7.15,64.878,64.878,0,0,1-2.824-6.07,20.531,20.531,0,0,1-1.262-5.356,11.678,11.678,0,0,1,.361-4.114,8.19,8.19,0,0,1,1.087-2.354A4.911,4.911,0,0,1-948.759,3806.225Z" transform="translate(967.015 -3800.694)"/></g><g transform="translate(51.351 3.089)"><path class="n" d="M-935.374,3772.951a2.936,2.936,0,0,1,.35,1.008,14.52,14.52,0,0,1,.393,2.88,17.2,17.2,0,0,1-2.29,9.254,17.2,17.2,0,0,1-6.922,6.557,14.507,14.507,0,0,1-2.7,1.077,2.961,2.961,0,0,1-1.05.193c-.037-.117,1.436-.494,3.519-1.69a18.14,18.14,0,0,0,6.568-6.477,18.137,18.137,0,0,0,2.4-8.906C-935.1,3774.443-935.495,3772.976-935.374,3772.951Z" transform="translate(947.592 -3772.951)"/></g><g transform="translate(47.251 8.788)"><path class="n" d="M-942.424,3793.993a5.706,5.706,0,0,1-2.692.1,11.712,11.712,0,0,1-5.959-2.609,11.71,11.71,0,0,1-3.615-5.411,5.72,5.72,0,0,1-.378-2.667c.112-.016.238,1,.829,2.508a12.712,12.712,0,0,0,3.6,5.052,12.718,12.718,0,0,0,5.6,2.656C-943.453,3793.935-942.428,3793.881-942.424,3793.993Z" transform="translate(955.112 -3783.402)"/></g><g transform="translate(27.783 0.91)"><path class="n" d="M-985.85,3878.516a15.611,15.611,0,0,0,4.147-2.444,19.332,19.332,0,0,0,6.168-11.31c1.01-5.453-.162-12.335-3.792-18.726-1.766-3.225-4.324-6.157-6.7-9.435a30.558,30.558,0,0,1-3.182-5.324,17.892,17.892,0,0,1-1.568-6.217,27.631,27.631,0,0,1,2.487-12.27c1.564-3.752,3.546-7.115,5.159-10.433a37.4,37.4,0,0,0,3.511-9.789,23.715,23.715,0,0,0-.131-9,23.945,23.945,0,0,0-5.969-11.537,27.414,27.414,0,0,0-3.734-3.073,1.166,1.166,0,0,1,.287.143l.81.479a18.841,18.841,0,0,1,2.824,2.265,23.744,23.744,0,0,1,6.25,11.623,24.028,24.028,0,0,1,.215,9.2,37.6,37.6,0,0,1-3.5,9.963c-1.611,3.349-3.576,6.714-5.107,10.414a27.113,27.113,0,0,0-2.425,11.971c.23,4.229,2.261,7.99,4.613,11.2,2.34,3.244,4.919,6.219,6.708,9.517,3.662,6.518,4.813,13.549,3.719,19.117a19.329,19.329,0,0,1-6.47,11.426,13.412,13.412,0,0,1-3.111,1.857c-.387.149-.691.238-.892.3A1.167,1.167,0,0,1-985.85,3878.516Z" transform="translate(990.82 -3768.954)"/></g><g transform="translate(13.236 15.86)"><path class="n" d="M-1009.019,3890.411c-.008.008-.082-.054-.22-.185s-.345-.326-.6-.6a9.816,9.816,0,0,1-1.641-2.808,11.285,11.285,0,0,1-.6-5.11,10.326,10.326,0,0,1,2.875-6.151c1.848-1.861,4.574-2.766,7.051-4.257a8.307,8.307,0,0,0,3.115-3.066,7.606,7.606,0,0,0,.771-4.524,16.2,16.2,0,0,0-4.629-8.908c-2.438-2.617-5.413-5-7.6-8.25a13.733,13.733,0,0,1-2.187-5.339,17.564,17.564,0,0,1-.012-5.593,45.759,45.759,0,0,1,3.066-10.008,40.924,40.924,0,0,0,2.685-8.943,15.883,15.883,0,0,0-.756-7.955,10.523,10.523,0,0,0-1.793-2.992,16.413,16.413,0,0,0-2.322-2.128,35.023,35.023,0,0,1-3.95-3.277,6.186,6.186,0,0,1-1.614-2.815,3.248,3.248,0,0,1-.1-1.129c.048,0,.028.4.233,1.095a6.327,6.327,0,0,0,1.672,2.666,37.467,37.467,0,0,0,3.992,3.16,16.507,16.507,0,0,1,2.414,2.144,10.881,10.881,0,0,1,1.913,3.1,16.279,16.279,0,0,1,.869,8.209,40.893,40.893,0,0,1-2.66,9.092,45.73,45.73,0,0,0-2.992,9.878,16.972,16.972,0,0,0,.019,5.381,13.087,13.087,0,0,0,2.088,5.083c2.1,3.136,5.051,5.511,7.524,8.171a16.752,16.752,0,0,1,4.765,9.292,8.2,8.2,0,0,1-.868,4.879,8.857,8.857,0,0,1-3.345,3.26c-2.578,1.514-5.248,2.378-7.008,4.12a9.99,9.99,0,0,0-2.834,5.855,11.232,11.232,0,0,0,.474,4.976A11.134,11.134,0,0,0-1009.019,3890.411Z" transform="translate(1017.5 -3796.373)"/></g><g transform="translate(41.821 39.672)"><path class="n" d="M-948.306,3901.173a2.623,2.623,0,0,1-.348-.6,6.985,6.985,0,0,1-.644-1.883,11.493,11.493,0,0,1-.181-3.15,30.252,30.252,0,0,1,.645-4.11c.311-1.5.7-3.134.943-4.9a18.081,18.081,0,0,0,.166-2.737,13.817,13.817,0,0,0-.448-2.843,14.933,14.933,0,0,0-3-5.405,53.881,53.881,0,0,0-4.737-4.847,58.934,58.934,0,0,1-4.811-4.892,18.884,18.884,0,0,1-3.332-5.5,20,20,0,0,1-.521-10.769,48.943,48.943,0,0,1,1.967-7.009c.291-.808.523-1.432.693-1.851a2.672,2.672,0,0,1,.289-.628,2.682,2.682,0,0,1-.16.672l-.572,1.888a58.483,58.483,0,0,0-1.746,7.012,19.867,19.867,0,0,0,.634,10.466c1.391,3.767,4.616,6.963,8.022,10.122a52.771,52.771,0,0,1,4.787,4.92,15.421,15.421,0,0,1,3.088,5.655,14.266,14.266,0,0,1,.443,3,18.4,18.4,0,0,1-.2,2.829c-.269,1.8-.692,3.436-1.032,4.926a32.113,32.113,0,0,0-.734,4.039,11.883,11.883,0,0,0,.063,3.071A18.1,18.1,0,0,0-948.306,3901.173Z" transform="translate(965.072 -3840.047)"/></g></g></g><g transform="translate(-1716.756 3609.621)"><path d="M-1628.519,3611a5.994,5.994,0,0,0-1.252.075,5.012,5.012,0,0,0-4.287,4.381h.057a3.675,3.675,0,0,1,2.978-1.422,3.66,3.66,0,0,1,3.717,3.983,4.122,4.122,0,0,1-4.1,4.343c-2.637,0-4.363-2.048-4.363-5.254a7.753,7.753,0,0,1,2.087-5.558,6.706,6.706,0,0,1,3.945-1.821,7.993,7.993,0,0,1,1.214-.1Zm-.474,7.112c0-1.764-1.005-2.826-2.542-2.826a2.746,2.746,0,0,0-2.39,1.517,1.419,1.419,0,0,0-.19.74c.038,2.03.967,3.528,2.713,3.528C-1629.96,3621.075-1628.993,3619.88-1628.993,3618.116Z" transform="translate(1635.765 -3609.637)"/><path d="M-1606.067,3622.058v1.232h-4.685v-1.232Z" transform="translate(1624.39 -3615.286)"/><path d="M-1584.05,3609.985v1.1l-5.368,11.229h-1.726l5.349-10.907v-.039h-6.032v-1.384Z" transform="translate(1615.784 -3609.795)"/></g><g transform="translate(-1640.536 3609.603)"><path d="M-1488.193,3609.985v1.1l-5.368,11.229h-1.726l5.349-10.907v-.039h-6.032v-1.384Z" transform="translate(1495.97 -3609.777)"/><path d="M-1467.072,3622.058v1.232h-4.685v-1.232Z" transform="translate(1484.959 -3615.268)"/><path d="M-1453.528,3619.011a3.522,3.522,0,0,1,2.447-3.3l-.019-.058a3.053,3.053,0,0,1-1.954-2.769c0-1.954,1.65-3.281,3.812-3.281,2.39,0,3.585,1.5,3.585,3.035a3.132,3.132,0,0,1-2.03,2.883v.058a3.416,3.416,0,0,1,2.485,3.186c0,2.143-1.84,3.584-4.192,3.584C-1451.973,3622.349-1453.528,3620.813-1453.528,3619.011Zm6.639-.076c0-1.5-1.043-2.219-2.712-2.693a2.678,2.678,0,0,0-2.219,2.542,2.28,2.28,0,0,0,2.466,2.353A2.231,2.231,0,0,0-1446.889,3618.935Zm-4.59-6.165c0,1.233.93,1.9,2.352,2.276a2.429,2.429,0,0,0,1.878-2.238,1.916,1.916,0,0,0-2.087-2.011A1.961,1.961,0,0,0-1451.48,3612.771Z" transform="translate(1476.669 -3609.603)"/></g><g transform="translate(-1565.129 3609.603)"><path d="M-1357.666,3619.011a3.522,3.522,0,0,1,2.447-3.3l-.019-.058a3.053,3.053,0,0,1-1.954-2.769c0-1.954,1.651-3.281,3.813-3.281,2.39,0,3.585,1.5,3.585,3.035a3.132,3.132,0,0,1-2.029,2.883v.058a3.416,3.416,0,0,1,2.485,3.186c0,2.143-1.84,3.584-4.192,3.584C-1356.11,3622.349-1357.666,3620.813-1357.666,3619.011Zm6.639-.076c0-1.5-1.043-2.219-2.713-2.693a2.678,2.678,0,0,0-2.219,2.542,2.28,2.28,0,0,0,2.465,2.353A2.231,2.231,0,0,0-1351.027,3618.935Zm-4.59-6.165c0,1.233.93,1.9,2.352,2.276a2.429,2.429,0,0,0,1.878-2.238,1.917,1.917,0,0,0-2.087-2.011A1.961,1.961,0,0,0-1355.617,3612.771Z" transform="translate(1357.666 -3609.603)"/><path d="M-1328.072,3622.058v1.232h-4.685v-1.232Z" transform="translate(1346.338 -3615.268)"/><path d="M-1313.346,3620.964a6.9,6.9,0,0,0,1.347-.057,4.651,4.651,0,0,0,2.579-1.194,5.414,5.414,0,0,0,1.631-3.282h-.057a3.62,3.62,0,0,1-2.9,1.328,3.572,3.572,0,0,1-3.642-3.775,4.227,4.227,0,0,1,4.211-4.382c2.523,0,4.078,2.048,4.078,5.2a7.791,7.791,0,0,1-2.124,5.786,6.163,6.163,0,0,1-3.585,1.649,7.78,7.78,0,0,1-1.536.1Zm.607-7.094a2.372,2.372,0,0,0,2.371,2.618,2.757,2.757,0,0,0,2.428-1.29,1.1,1.1,0,0,0,.152-.607c0-2.1-.777-3.717-2.523-3.717C-1311.734,3610.874-1312.739,3612.125-1312.739,3613.871Z" transform="translate(1337.985 -3609.603)"/></g><g transform="translate(-1494.121 3609.603)"><path d="M-1226.389,3620.964a6.9,6.9,0,0,0,1.347-.057,4.649,4.649,0,0,0,2.58-1.194,5.416,5.416,0,0,0,1.631-3.282h-.057a3.619,3.619,0,0,1-2.9,1.328,3.572,3.572,0,0,1-3.642-3.775,4.227,4.227,0,0,1,4.211-4.382c2.522,0,4.078,2.048,4.078,5.2a7.791,7.791,0,0,1-2.124,5.786,6.163,6.163,0,0,1-3.585,1.649,7.78,7.78,0,0,1-1.536.1Zm.607-7.094a2.372,2.372,0,0,0,2.371,2.618,2.757,2.757,0,0,0,2.428-1.29,1.1,1.1,0,0,0,.152-.607c0-2.1-.777-3.717-2.523-3.717C-1224.777,3610.874-1225.782,3612.125-1225.782,3613.871Z" transform="translate(1227.432 -3609.603)"/><path d="M-1197.978,3622.058v1.232h-4.685v-1.232Z" transform="translate(1216.168 -3615.268)"/><path d="M-1179.6,3611.541h-.038l-2.144,1.157-.322-1.271,2.693-1.441h1.423v12.33h-1.612Z" transform="translate(1206.818 -3609.777)"/><path d="M-1158.293,3615.844c0,4.192-1.556,6.505-4.287,6.505-2.409,0-4.04-2.256-4.078-6.335,0-4.135,1.783-6.411,4.287-6.411C-1159.772,3609.6-1158.293,3611.917-1158.293,3615.844Zm-6.7.189c0,3.206.986,5.026,2.5,5.026,1.707,0,2.523-1.991,2.523-5.14,0-3.036-.778-5.027-2.5-5.027C-1163.926,3610.893-1164.989,3612.676-1164.989,3616.033Z" transform="translate(1199.794 -3609.603)"/></g><g transform="translate(-1421.995 3609.603)"><path d="M-1092.642,3611.541h-.038l-2.144,1.157-.322-1.271,2.693-1.441h1.422v12.33h-1.612Z" transform="translate(1095.146 -3609.777)"/><path d="M-1071.335,3615.844c0,4.192-1.555,6.505-4.286,6.505-2.41,0-4.041-2.256-4.078-6.335,0-4.135,1.783-6.411,4.286-6.411C-1072.814,3609.6-1071.335,3611.917-1071.335,3615.844Zm-6.7.189c0,3.206.986,5.026,2.5,5.026,1.707,0,2.523-1.991,2.523-5.14,0-3.036-.778-5.027-2.5-5.027C-1076.968,3610.893-1078.031,3612.676-1078.031,3616.033Z" transform="translate(1088.122 -3609.603)"/><path d="M-1050.073,3622.058v1.232h-4.685v-1.232Z" transform="translate(1076.779 -3615.268)"/><path d="M-1031.694,3611.541h-.038l-2.143,1.157-.323-1.271,2.693-1.441h1.423v12.33h-1.612Z" transform="translate(1067.429 -3609.777)"/><path d="M-1013.882,3611.541h-.037l-2.144,1.157-.322-1.271,2.693-1.441h1.422v12.33h-1.612Z" transform="translate(1059.328 -3609.777)"/></g><g transform="translate(-1337.673 3609.621)"><path d="M-933.075,3611.389h-4.7l-.474,3.167a6.673,6.673,0,0,1,1.005-.076,5.209,5.209,0,0,1,2.655.664,3.513,3.513,0,0,1,1.764,3.168,4.277,4.277,0,0,1-4.59,4.211,6.042,6.042,0,0,1-3.073-.758l.417-1.271a5.523,5.523,0,0,0,2.637.683,2.72,2.72,0,0,0,2.921-2.676c-.018-1.593-1.081-2.731-3.547-2.731a12.665,12.665,0,0,0-1.707.133l.8-5.918h5.9Z" transform="translate(940.491 -3609.795)"/><path d="M-911.072,3622.058v1.232h-4.685v-1.232Z" transform="translate(929.243 -3615.286)"/><path d="M-890.387,3611a6,6,0,0,0-1.252.075,5.011,5.011,0,0,0-4.287,4.381h.057a3.676,3.676,0,0,1,2.978-1.422,3.66,3.66,0,0,1,3.718,3.983,4.123,4.123,0,0,1-4.1,4.343c-2.637,0-4.363-2.048-4.363-5.254a7.755,7.755,0,0,1,2.087-5.558,6.709,6.709,0,0,1,3.946-1.821,7.985,7.985,0,0,1,1.214-.1Zm-.474,7.112a2.505,2.505,0,0,0-2.542-2.826,2.746,2.746,0,0,0-2.39,1.517,1.419,1.419,0,0,0-.19.74c.038,2.03.967,3.528,2.713,3.528C-891.829,3621.075-890.861,3619.88-890.861,3618.116Z" transform="translate(921 -3609.637)"/></g><g transform="translate(-1262.039 3609.621)"><path d="M-794.524,3611a6,6,0,0,0-1.252.075,5.012,5.012,0,0,0-4.287,4.381h.057a3.675,3.675,0,0,1,2.978-1.422,3.66,3.66,0,0,1,3.718,3.983,4.123,4.123,0,0,1-4.1,4.343c-2.637,0-4.363-2.048-4.363-5.254a7.755,7.755,0,0,1,2.087-5.558,6.708,6.708,0,0,1,3.945-1.821,7.992,7.992,0,0,1,1.214-.1Zm-.474,7.112c0-1.764-1-2.826-2.542-2.826a2.746,2.746,0,0,0-2.39,1.517,1.419,1.419,0,0,0-.19.74c.038,2.03.967,3.528,2.712,3.528C-795.966,3621.075-795,3619.88-795,3618.116Z" transform="translate(801.77 -3609.637)"/><path d="M-772.072,3622.058v1.232h-4.685v-1.232Z" transform="translate(790.395 -3615.286)"/><path d="M-750.055,3609.985v1.1l-5.368,11.229h-1.726l5.349-10.907v-.039h-6.032v-1.384Z" transform="translate(781.789 -3609.795)"/></g><g transform="translate(-1190.975 3609.603)"><path d="M-670.389,3620.964a6.9,6.9,0,0,0,1.347-.057,4.648,4.648,0,0,0,2.579-1.194,5.414,5.414,0,0,0,1.631-3.282h-.057a3.619,3.619,0,0,1-2.9,1.328,3.572,3.572,0,0,1-3.642-3.775,4.227,4.227,0,0,1,4.211-4.382c2.522,0,4.078,2.048,4.078,5.2a7.791,7.791,0,0,1-2.124,5.786,6.163,6.163,0,0,1-3.585,1.649,7.78,7.78,0,0,1-1.536.1Zm.607-7.094a2.372,2.372,0,0,0,2.371,2.618,2.757,2.757,0,0,0,2.428-1.29,1.1,1.1,0,0,0,.152-.607c0-2.1-.778-3.717-2.523-3.717C-668.777,3610.874-669.782,3612.125-669.782,3613.871Z" transform="translate(671.432 -3609.603)"/><path d="M-641.978,3622.058v1.232h-4.685v-1.232Z" transform="translate(660.168 -3615.268)"/><path d="M-623.6,3611.541h-.038l-2.144,1.157-.322-1.271,2.693-1.441h1.422v12.33H-623.6Z" transform="translate(650.818 -3609.777)"/><path d="M-602.293,3615.844c0,4.192-1.556,6.505-4.287,6.505-2.409,0-4.04-2.256-4.078-6.335,0-4.135,1.783-6.411,4.287-6.411C-603.772,3609.6-602.293,3611.917-602.293,3615.844Zm-6.7.189c0,3.206.986,5.026,2.5,5.026,1.707,0,2.523-1.991,2.523-5.14,0-3.036-.777-5.027-2.5-5.027C-607.926,3610.893-608.989,3612.676-608.989,3616.033Z" transform="translate(643.794 -3609.603)"/></g></g></svg>