<svg xmlns="http://www.w3.org/2000/svg" width="282.029" height="251.757" viewBox="0 0 282.029 251.757"><defs><style>.a{fill:#e0e0e0;}.b{fill:#263238;}.c{fill:#ebebeb;}.d{fill:#fff;}.e{fill:#1ea7fc;}.f{fill:#e8505b;}.g{fill:#455a64;}.h{fill:#fafafa;}.i{fill:#ffbe9d;}.j{opacity:0.6;}.k{opacity:0.3;}.l{fill:#eb996e;}</style></defs><g transform="translate(-27.138 -74.724)"><g transform="translate(242.383 74.724)"><g transform="translate(21.012 9.287)"><path class="a" d="M400.524,98.115a2.188,2.188,0,0,1,.332-.376l.962-.966c.818-.808,1.959-1.914,3.229-3.125l.029-.027v.163c-1.28-1.189-2.428-2.272-3.252-3.064l-.967-.947a2.176,2.176,0,0,1-.334-.37,2.152,2.152,0,0,1,.393.306l1.015.894c.85.762,2.016,1.828,3.3,3.016l.087.081-.086.082-.029.028c-1.27,1.211-2.428,2.3-3.274,3.078l-1.01.914A2.151,2.151,0,0,1,400.524,98.115Z" transform="translate(-400.523 -89.402)"/></g><g transform="translate(6.346 9.287)"><path class="a" d="M382.136,89.4a2.151,2.151,0,0,1-.332.376l-.961.966c-.818.809-1.96,1.914-3.23,3.125l-.028.028v-.163c1.279,1.188,2.428,2.272,3.251,3.064l.967.946a2.114,2.114,0,0,1,.333.37,2.153,2.153,0,0,1-.392-.306l-1.015-.894c-.851-.762-2.017-1.828-3.3-3.016l-.088-.081.087-.082.028-.027c1.27-1.212,2.428-2.3,3.274-3.078l1.011-.914A2.2,2.2,0,0,1,382.136,89.4Z" transform="translate(-377.345 -89.402)"/></g><g transform="translate(13.669 7.116)"><path class="a" d="M388.922,98.906c-.058-.022.979-2.935,2.315-6.507s2.466-6.451,2.524-6.429-.979,2.935-2.315,6.508S388.979,98.928,388.922,98.906Z" transform="translate(-388.919 -85.97)"/></g><path class="a" d="M399.551,101.011s-.007-.169-.011-.487-.006-.793-.01-1.4c-.006-1.231-.014-3.024-.024-5.309-.012-4.57-.029-11.1-.048-18.977l.093.094-32.121.018h0l.111-.112c0,9.462-.008,18.4-.012,26.175l-.1-.1,23.2.05,6.575.027,1.745.012.451.006c.1,0,.157.006.157.006s-.047,0-.146.006l-.44.006-1.726.012-6.552.027-23.26.05h-.1v-.1c0-7.776-.008-16.713-.011-26.175v-.112h.114l32.121.019h.093v.093c-.02,7.9-.037,14.451-.049,19.036-.01,2.275-.018,4.062-.023,5.287q-.008.9-.011,1.384C399.557,100.855,399.551,101.011,399.551,101.011Z" transform="translate(-367.316 -74.724)"/><g transform="translate(0.097 3.884)"><path class="a" d="M399.859,80.974c0,.062-7.251.112-16.194.112s-16.2-.05-16.2-.112,7.249-.112,16.2-.112S399.859,80.912,399.859,80.974Z" transform="translate(-367.47 -80.862)"/></g><g transform="translate(1.868 1.651)"><path class="a" d="M371.133,77.768a.432.432,0,1,1-.432-.434A.433.433,0,0,1,371.133,77.768Z" transform="translate(-370.268 -77.334)"/><g transform="translate(1.577 0.002)"><circle class="a" cx="0.432" cy="0.432" r="0.432"/></g><g transform="translate(3.153)"><path class="a" d="M376.116,77.768a.432.432,0,1,1-.432-.434A.433.433,0,0,1,376.116,77.768Z" transform="translate(-375.251 -77.334)"/></g></g></g><g transform="translate(27.138 308.905)"><path class="b" d="M309.167,444.993c0,.091-63.14.164-141.008.164-77.9,0-141.021-.073-141.021-.164s63.126-.165,141.021-.165C246.027,444.828,309.167,444.9,309.167,444.993Z" transform="translate(-27.138 -444.828)"/></g><g transform="translate(89.567 80.405)"><g transform="translate(91.925 32.716)"><g transform="translate(15.156)"><rect class="a" width="88.666" height="72.234"/></g><g transform="translate(8.851 4.592)"><rect class="c" width="88.666" height="72.234"/></g><g transform="translate(0 9.455)"><g transform="translate(0.165 0.165)"><rect class="d" width="91.032" height="74.161"/></g><path class="b" d="M362.279,224.677s-.01-.47-.015-1.367-.009-2.229-.016-3.96c-.008-3.469-.02-8.55-.035-15.028-.017-12.945-.042-31.469-.071-53.807l.137.137-91.024.027h-.008l.165-.165c-.006,26.817-.013,52.139-.018,74.161l-.147-.147,65.779.073,18.614.039,4.932.018,1.271.008c.286,0,.436.008.436.008s-.139.006-.419.009l-1.255.008-4.9.018-18.581.039-65.875.074H271.1v-.147c-.005-22.021-.011-47.344-.018-74.161v-.165h.173l91.024.028h.137v.137c-.03,22.374-.054,40.927-.071,53.893-.016,6.465-.028,11.535-.035,15-.007,1.72-.013,3.038-.016,3.934S362.279,224.677,362.279,224.677Z" transform="translate(-271.082 -150.351)"/></g><g transform="translate(9.863 19.667)"><path class="e" d="M288.067,167.338l-.977.358.977.355v.367l-1.4-.532V167.5l1.4-.531Z" transform="translate(-286.67 -166.668)"/><path class="e" d="M291.427,166.491v2.055h-.476V167.7h-.933v.842h-.476v-2.055h.476v.81h.933v-.81Z" transform="translate(-287.725 -166.491)"/><path class="e" d="M293.578,166.878h-.658v-.387h1.791v.387h-.657v1.667h-.476Z" transform="translate(-288.965 -166.491)"/><path class="e" d="M298.021,168.546l0-1.233-.6,1.016H297.2l-.6-.989v1.206h-.446v-2.055h.394l.769,1.277.757-1.277h.39l.006,2.055Z" transform="translate(-290.152 -166.491)"/><path class="e" d="M300.576,166.491h.476v1.667h1.03v.387h-1.506Z" transform="translate(-291.777 -166.491)"/><path class="e" d="M304.674,167.5v.382l-1.4.532v-.367l.977-.355-.977-.358v-.364Z" transform="translate(-292.769 -166.668)"/></g><g transform="translate(9.033 75.489)"><path class="f" d="M286.756,256.219l-.978.358.978.356v.367l-1.4-.531v-.381l1.4-.532Z" transform="translate(-285.358 -255.132)"/><path class="f" d="M288.662,254.713h.408l-.969,2.765h-.408Z" transform="translate(-286.216 -254.713)"/><path class="f" d="M291.932,255.372v2.055h-.476v-.843h-.933v.843h-.476v-2.055h.476v.811h.933v-.811Z" transform="translate(-287.08 -254.955)"/><path class="f" d="M294.082,255.76h-.657v-.388h1.79v.388h-.657v1.667h-.475Z" transform="translate(-288.321 -254.955)"/><path class="f" d="M298.526,257.427l0-1.233-.6,1.016H297.7l-.6-.989v1.207h-.446v-2.055h.394l.769,1.277.757-1.277h.39l.006,2.055Z" transform="translate(-289.507 -254.955)"/><path class="f" d="M301.082,255.372h.476v1.667h1.03v.388h-1.506Z" transform="translate(-291.133 -254.955)"/><path class="f" d="M305.18,256.387v.381l-1.4.531v-.367l.977-.356-.977-.358v-.364Z" transform="translate(-292.125 -255.132)"/></g><g transform="translate(16.392 25.336)"><path d="M298.3,176.3l-1.042.4,1.042.4v.244l-1.315-.519v-.252l1.315-.519Z" transform="translate(-296.988 -175.67)"/><path d="M301.629,175.449V177.5h-.294v-.916h-1.179v.916h-.294v-2.055h.294v.884h1.179v-.884Z" transform="translate(-298.044 -175.449)"/><path d="M305.116,177.249v.255h-1.491v-2.055h1.45v.255h-1.157v.631h1.03v.249h-1.03v.664Z" transform="translate(-299.426 -175.449)"/><path d="M307.857,176.99h-1.092l-.226.513h-.3l.931-2.055h.29l.933,2.055h-.308Zm-.1-.235-.443-1.007-.443,1.007Z" transform="translate(-300.385 -175.449)"/><path d="M310.121,175.449h.866a1.03,1.03,0,1,1,0,2.055h-.866Zm.849,1.8a.774.774,0,1,0,0-1.544h-.555v1.544Z" transform="translate(-301.811 -175.449)"/><path d="M315.087,176.571v.252l-1.315.519V177.1l1.045-.4-1.045-.4v-.244Z" transform="translate(-303.152 -175.67)"/><path d="M298.3,187.417l-1.042.4,1.042.4v.244l-1.315-.52v-.252l1.315-.52Z" transform="translate(-296.988 -179.755)"/><path d="M300.1,186.826h-.7v-.255h1.7v.255h-.7v1.8h-.29Z" transform="translate(-297.871 -179.534)"/><path d="M302.582,186.571h.293v2.055h-.293Z" transform="translate(-299.042 -179.534)"/><path d="M304.254,186.826h-.7v-.255h1.7v.255h-.7v1.8h-.29Z" transform="translate(-299.398 -179.534)"/><path d="M306.738,186.571h.294v1.8h1.112v.256h-1.406Z" transform="translate(-300.569 -179.534)"/><path d="M310.982,188.37v.256h-1.491v-2.055h1.45v.255h-1.156v.631h1.03v.249h-1.03v.663Z" transform="translate(-301.58 -179.534)"/><path d="M313.734,187.693v.252l-1.315.52v-.244l1.045-.4-1.045-.4v-.243Z" transform="translate(-302.655 -179.755)"/><path d="M316.539,186.571h.294v1.8h1.112v.256h-1.405Z" transform="translate(-304.168 -179.534)"/><path d="M318.967,188.129a.809.809,0,1,1,.81.8A.774.774,0,0,1,318.967,188.129Zm1.333,0a.524.524,0,1,0-.523.549A.511.511,0,0,0,320.3,188.129Z" transform="translate(-305.06 -179.815)"/><path d="M322.973,187.336v.273a.593.593,0,0,0-.065,0,.464.464,0,0,0-.49.525v.775h-.282v-1.556h.27v.261A.594.594,0,0,1,322.973,187.336Z" transform="translate(-306.224 -179.815)"/><path d="M325.3,188.222h-1.262a.527.527,0,0,0,.563.455.58.58,0,0,0,.449-.188l.156.182a.848.848,0,0,1-1.45-.543.762.762,0,0,1,.781-.793.75.75,0,0,1,.769.8A.816.816,0,0,1,325.3,188.222Zm-1.262-.2h1a.5.5,0,0,0-1,0Z" transform="translate(-306.818 -179.815)"/><path d="M329.4,188.011v.9h-.282v-.863c0-.3-.147-.455-.4-.455a.452.452,0,0,0-.466.517v.8h-.282v-.863c0-.3-.146-.455-.4-.455a.452.452,0,0,0-.467.517v.8h-.282v-1.556h.27v.232a.632.632,0,0,1,.537-.246.576.576,0,0,1,.54.288.7.7,0,0,1,.6-.288A.6.6,0,0,1,329.4,188.011Z" transform="translate(-307.943 -179.815)"/><path d="M332.881,186.492a.186.186,0,0,1,.191-.185.183.183,0,0,1,.191.178.191.191,0,0,1-.382.006Zm.051.481h.282v1.556h-.282Z" transform="translate(-310.17 -179.437)"/><path d="M335.865,188.129a.756.756,0,0,1-.786.8.666.666,0,0,1-.543-.252v.8h-.282v-2.125h.27v.247a.663.663,0,0,1,.555-.261A.755.755,0,0,1,335.865,188.129Zm-.285,0a.524.524,0,1,0-.525.549A.515.515,0,0,0,335.58,188.129Z" transform="translate(-310.674 -179.815)"/><path d="M337.1,188.742l.118-.223a1,1,0,0,0,.545.162c.261,0,.37-.08.37-.211,0-.349-.983-.047-.983-.666,0-.279.25-.467.649-.467a1.138,1.138,0,0,1,.566.14l-.12.223a.812.812,0,0,0-.449-.123c-.247,0-.367.09-.367.214,0,.367.986.068.986.672,0,.282-.258.461-.672.461A1.12,1.12,0,0,1,337.1,188.742Z" transform="translate(-311.72 -179.815)"/><path d="M341.178,187.359v1.556h-.267v-.235a.634.634,0,0,1-.529.252.611.611,0,0,1-.669-.678v-.9H340v.863c0,.3.152.458.419.458a.458.458,0,0,0,.482-.517v-.8Z" transform="translate(-312.679 -179.823)"/><path d="M345.456,188.011v.9h-.282v-.863c0-.3-.146-.455-.4-.455a.452.452,0,0,0-.467.517v.8h-.282v-.863c0-.3-.146-.455-.4-.455a.452.452,0,0,0-.466.517v.8h-.282v-1.556h.27v.232a.633.633,0,0,1,.538-.246.577.577,0,0,1,.54.288.7.7,0,0,1,.6-.288A.6.6,0,0,1,345.456,188.011Z" transform="translate(-313.84 -179.815)"/><path d="M350.221,187.417l-1.042.4,1.042.4v.244l-1.315-.52v-.252l1.315-.52Z" transform="translate(-316.055 -179.755)"/><path d="M352.132,185.912h.255l-.969,2.765h-.255Z" transform="translate(-316.884 -179.292)"/><path d="M353.785,186.826h-.7v-.255h1.7v.255h-.7v1.8h-.29Z" transform="translate(-317.589 -179.534)"/><path d="M356.27,186.571h.294v2.055h-.294Z" transform="translate(-318.76 -179.534)"/><path d="M357.942,186.826h-.7v-.255h1.7v.255h-.7v1.8h-.29Z" transform="translate(-319.115 -179.534)"/><path d="M360.426,186.571h.294v1.8h1.112v.256h-1.406Z" transform="translate(-320.286 -179.534)"/><path d="M364.67,188.37v.256h-1.491v-2.055h1.45v.255h-1.156v.631h1.03v.249h-1.03v.663Z" transform="translate(-321.297 -179.534)"/><path d="M367.422,187.693v.252l-1.315.52v-.244l1.045-.4-1.045-.4v-.243Z" transform="translate(-322.372 -179.755)"/><path d="M298.3,198.539l-1.042.4,1.042.4v.244l-1.315-.519v-.252l1.315-.519Z" transform="translate(-296.988 -183.839)"/><path d="M300.214,197.033h.255L299.5,199.8h-.255Z" transform="translate(-297.817 -183.376)"/><path d="M303.26,197.692v2.055h-.294v-.916h-1.179v.916h-.294v-2.055h.294v.883h1.179v-.883Z" transform="translate(-298.642 -183.618)"/><path d="M306.746,199.491v.256h-1.491v-2.055h1.45v.256h-1.156v.631h1.03v.249h-1.03v.663Z" transform="translate(-300.024 -183.618)"/><path d="M309.488,199.233H308.4l-.226.514h-.3l.93-2.055h.29l.934,2.055h-.308Zm-.1-.235-.443-1.007L308.5,199Z" transform="translate(-300.984 -183.618)"/><path d="M311.753,197.692h.866a1.03,1.03,0,1,1,0,2.055h-.866Zm.847,1.8a.774.774,0,1,0,0-1.543h-.554v1.543Z" transform="translate(-302.411 -183.618)"/><path d="M316.718,198.814v.252l-1.315.519v-.244l1.045-.4-1.045-.4v-.244Z" transform="translate(-303.751 -183.839)"/></g><g transform="translate(10.906 45.494)"><path d="M289.689,208.191l-1.042.4,1.042.4v.244l-1.315-.519v-.253l1.315-.519Z" transform="translate(-288.339 -207.542)"/><path d="M293.015,208.844c0,.352-.267.555-.787.555h-.979v-2.055h.921c.473,0,.737.2.737.531a.487.487,0,0,1-.276.458A.5.5,0,0,1,293.015,208.844Zm-1.473-1.262v.657h.6c.3,0,.47-.112.47-.329s-.171-.328-.47-.328Zm1.176,1.238c0-.238-.175-.344-.5-.344h-.674v.684h.674C292.543,209.161,292.718,209.058,292.718,208.82Z" transform="translate(-289.394 -207.321)"/><path d="M294.491,208.357a1.093,1.093,0,1,1,1.095,1.051A1.044,1.044,0,0,1,294.491,208.357Zm1.89,0a.8.8,0,1,0-.8.79A.771.771,0,0,0,296.381,208.357Z" transform="translate(-290.585 -207.307)"/><path d="M298.648,207.344h.866a1.03,1.03,0,1,1,0,2.055h-.866Zm.849,1.8a.774.774,0,1,0,0-1.544h-.555v1.544Z" transform="translate(-292.112 -207.321)"/><path d="M302.938,208.688v.711h-.291v-.716l-.816-1.338h.314l.657,1.083.661-1.083h.29Z" transform="translate(-293.281 -207.321)"/><path d="M306.473,208.466v.253l-1.315.519v-.244l1.045-.4-1.045-.4v-.244Z" transform="translate(-294.503 -207.542)"/><path d="M289.689,219.312l-1.042.4,1.042.4v.244l-1.315-.52v-.252l1.315-.52Z" transform="translate(-288.339 -211.626)"/><path d="M293.015,218.465v2.055h-.294V219.6h-1.179v.916h-.294v-2.055h.294v.883h1.179v-.883Z" transform="translate(-289.394 -211.405)"/><path d="M295.315,218.465v2.055h-.29v-1.8h-.464v-.256Z" transform="translate(-290.61 -211.405)"/><path d="M297.862,219.588v.252l-1.315.52v-.244l1.045-.4-1.045-.4v-.244Z" transform="translate(-291.34 -211.626)"/><path d="M300.71,218.465h.216v1.867h1.151v.188H300.71Z" transform="translate(-292.869 -211.405)"/><path d="M303.087,220.037a.785.785,0,1,1,.786.786A.759.759,0,0,1,303.087,220.037Zm1.358,0a.575.575,0,1,0-.573.6A.564.564,0,0,0,304.445,220.037Z" transform="translate(-293.742 -211.695)"/><path d="M307.015,219.254v.2c-.018,0-.035,0-.05,0a.5.5,0,0,0-.519.569v.787h-.209v-1.544h.2v.3A.583.583,0,0,1,307.015,219.254Z" transform="translate(-294.899 -211.695)"/><path d="M309.29,220.1H308a.571.571,0,0,0,.607.537.608.608,0,0,0,.473-.2l.117.135a.817.817,0,0,1-1.406-.535.752.752,0,1,1,1.5,0C309.293,220.055,309.29,220.078,309.29,220.1ZM308,219.947h1.095a.548.548,0,0,0-1.095,0Z" transform="translate(-295.469 -211.695)"/><path d="M313.382,219.915v.895h-.208v-.874c0-.326-.165-.493-.443-.493a.5.5,0,0,0-.517.557v.81h-.208v-.874c0-.326-.165-.493-.446-.493a.5.5,0,0,0-.516.557v.81h-.209v-1.544h.2v.282a.625.625,0,0,1,.566-.294.556.556,0,0,1,.549.325.672.672,0,0,1,.611-.325A.583.583,0,0,1,313.382,219.915Z" transform="translate(-296.587 -211.695)"/><path d="M316.89,218.417a.151.151,0,0,1,.152-.147.148.148,0,0,1,.153.144.153.153,0,0,1-.306,0Zm.047.487h.209v1.544h-.209Z" transform="translate(-298.811 -211.333)"/><path d="M319.776,220.037a.747.747,0,0,1-.769.786.673.673,0,0,1-.587-.3v.86h-.209v-2.113h.2v.306a.672.672,0,0,1,.6-.317A.747.747,0,0,1,319.776,220.037Zm-.208,0a.576.576,0,1,0-.575.6A.569.569,0,0,0,319.568,220.037Z" transform="translate(-299.297 -211.695)"/><path d="M321.014,220.633l.094-.165a.933.933,0,0,0,.549.173c.294,0,.413-.1.413-.252,0-.4-1-.085-1-.7,0-.253.217-.44.611-.44a1.046,1.046,0,0,1,.545.144l-.09.167a.794.794,0,0,0-.455-.132c-.278,0-.4.108-.4.255,0,.417,1,.1,1,.7,0,.267-.235.44-.637.44A1.036,1.036,0,0,1,321.014,220.633Z" transform="translate(-300.326 -211.695)"/><path d="M325,219.272v1.544h-.2v-.282a.615.615,0,0,1-.555.3.6.6,0,0,1-.652-.663v-.9h.208v.875a.432.432,0,0,0,.464.5.5.5,0,0,0,.526-.56v-.811Z" transform="translate(-301.274 -211.701)"/><path d="M329.285,219.915v.895h-.208v-.874c0-.326-.165-.493-.443-.493a.5.5,0,0,0-.516.557v.81h-.209v-.874c0-.326-.164-.493-.446-.493a.5.5,0,0,0-.516.557v.81h-.208v-1.544h.2v.282a.626.626,0,0,1,.567-.294.555.555,0,0,1,.549.325.673.673,0,0,1,.611-.325A.582.582,0,0,1,329.285,219.915Z" transform="translate(-302.428 -211.695)"/><path d="M334.186,218.27v2.178h-.2v-.3a.669.669,0,0,1-.6.32.785.785,0,0,1,0-1.57.675.675,0,0,1,.587.3v-.928Zm-.205,1.406a.575.575,0,1,0-.572.6A.565.565,0,0,0,333.981,219.676Z" transform="translate(-304.589 -211.333)"/><path d="M335.764,220.037a.786.786,0,1,1,.787.786A.76.76,0,0,1,335.764,220.037Zm1.36,0a.575.575,0,1,0-.573.6A.563.563,0,0,0,337.124,220.037Z" transform="translate(-305.743 -211.695)"/><path d="M338.916,218.27h.208v2.178h-.208Z" transform="translate(-306.9 -211.333)"/><path d="M339.917,220.037a.785.785,0,1,1,.786.786A.759.759,0,0,1,339.917,220.037Zm1.358,0a.574.574,0,1,0-.573.6A.564.564,0,0,0,341.275,220.037Z" transform="translate(-307.268 -211.695)"/><path d="M343.845,219.254v.2c-.018,0-.035,0-.05,0a.5.5,0,0,0-.519.569v.787h-.209v-1.544h.2v.3A.583.583,0,0,1,343.845,219.254Z" transform="translate(-308.425 -211.695)"/><path d="M345.8,220.633l.094-.165a.93.93,0,0,0,.549.173c.294,0,.414-.1.414-.252,0-.4-1-.085-1-.7,0-.253.217-.44.611-.44a1.044,1.044,0,0,1,.545.144l-.091.167a.793.793,0,0,0-.455-.132c-.279,0-.4.108-.4.255,0,.417,1,.1,1,.7,0,.267-.235.44-.637.44A1.035,1.035,0,0,1,345.8,220.633Z" transform="translate(-309.429 -211.695)"/><path d="M348.332,218.417a.15.15,0,0,1,.153-.147.148.148,0,0,1,.152.144.153.153,0,0,1-.3,0Zm.047.487h.208v1.544h-.208Z" transform="translate(-310.358 -211.333)"/><path d="M350.326,220.526a.5.5,0,0,1-.326.108.409.409,0,0,1-.452-.449v-.933h-.276v-.177h.276v-.337h.209v.337h.47v.177h-.47v.921a.247.247,0,0,0,.267.282.343.343,0,0,0,.228-.08Z" transform="translate(-310.704 -211.505)"/><path d="M353.838,219.853v.957h-.2v-.24a.58.58,0,0,1-.531.255c-.349,0-.563-.182-.563-.449,0-.238.152-.437.6-.437h.49v-.094c0-.264-.149-.408-.437-.408a.789.789,0,0,0-.514.182l-.094-.156a.977.977,0,0,1,.628-.208A.548.548,0,0,1,353.838,219.853Zm-.208.493v-.252h-.484c-.3,0-.4.118-.4.276,0,.18.144.29.39.29A.493.493,0,0,0,353.63,220.345Z" transform="translate(-311.905 -211.695)"/><path d="M358.028,219.915v.895h-.208v-.874c0-.326-.164-.493-.443-.493a.5.5,0,0,0-.516.557v.81h-.208v-.874c0-.326-.164-.493-.446-.493a.5.5,0,0,0-.517.557v.81h-.209v-1.544h.2v.282a.626.626,0,0,1,.567-.294.555.555,0,0,1,.549.325.674.674,0,0,1,.611-.325A.582.582,0,0,1,358.028,219.915Z" transform="translate(-312.984 -211.695)"/><path d="M361.661,220.1H360.37a.572.572,0,0,0,.607.537.608.608,0,0,0,.473-.2l.117.135a.817.817,0,0,1-1.406-.535.743.743,0,0,1,.754-.783.736.736,0,0,1,.749.783C361.664,220.055,361.661,220.078,361.661,220.1Zm-1.291-.156h1.095a.548.548,0,0,0-1.095,0Z" transform="translate(-314.703 -211.695)"/><path d="M363.88,220.526a.5.5,0,0,1-.326.108.409.409,0,0,1-.452-.449v-.933h-.275v-.177h.275v-.337h.208v.337h.47v.177h-.47v.921a.248.248,0,0,0,.268.282.345.345,0,0,0,.229-.08Z" transform="translate(-315.682 -211.505)"/><path d="M365.236,221.388a.481.481,0,0,1-.041.17l-.123.406h-.141l.1-.426a.149.149,0,0,1-.106-.15.156.156,0,1,1,.312,0Z" transform="translate(-316.452 -212.42)"/><path d="M367.085,220.037a.76.76,0,0,1,.8-.783.674.674,0,0,1,.6.3l-.156.106a.522.522,0,0,0-.449-.229.6.6,0,0,0,0,1.2.519.519,0,0,0,.449-.226l.156.106a.68.68,0,0,1-.6.3A.762.762,0,0,1,367.085,220.037Z" transform="translate(-317.246 -211.695)"/><path d="M369.651,220.037a.785.785,0,1,1,.787.786A.759.759,0,0,1,369.651,220.037Zm1.359,0a.575.575,0,1,0-.572.6A.563.563,0,0,0,371.01,220.037Z" transform="translate(-318.188 -211.695)"/><path d="M374.224,219.915v.895h-.208v-.874a.431.431,0,0,0-.463-.493.506.506,0,0,0-.54.557v.81H372.8v-1.544h.2v.285a.65.65,0,0,1,.587-.3A.591.591,0,0,1,374.224,219.915Z" transform="translate(-319.346 -211.695)"/><path d="M375.6,220.633l.094-.165a.93.93,0,0,0,.549.173c.294,0,.414-.1.414-.252,0-.4-1-.085-1-.7,0-.253.217-.44.611-.44a1.046,1.046,0,0,1,.545.144l-.091.167a.793.793,0,0,0-.455-.132c-.28,0-.4.108-.4.255,0,.417,1,.1,1,.7,0,.267-.235.44-.637.44A1.033,1.033,0,0,1,375.6,220.633Z" transform="translate(-320.374 -211.695)"/><path d="M379.46,220.1h-1.291a.571.571,0,0,0,.607.537.609.609,0,0,0,.473-.2l.117.135a.817.817,0,0,1-1.406-.535.752.752,0,1,1,1.5,0C379.463,220.055,379.46,220.078,379.46,220.1Zm-1.291-.156h1.095a.548.548,0,0,0-1.095,0Z" transform="translate(-321.24 -211.695)"/><path d="M380.758,220.037a.76.76,0,0,1,.8-.783.674.674,0,0,1,.6.3l-.156.106a.523.523,0,0,0-.449-.229.6.6,0,0,0,0,1.2.52.52,0,0,0,.449-.226l.156.106a.68.68,0,0,1-.6.3A.762.762,0,0,1,380.758,220.037Z" transform="translate(-322.267 -211.695)"/><path d="M384.314,220.526a.5.5,0,0,1-.325.108.409.409,0,0,1-.452-.449v-.933h-.276v-.177h.276v-.337h.208v.337h.47v.177h-.47v.921a.247.247,0,0,0,.268.282.343.343,0,0,0,.228-.08Z" transform="translate(-323.186 -211.505)"/><path d="M386.69,220.1H385.4a.572.572,0,0,0,.607.537.607.607,0,0,0,.473-.2l.118.135a.817.817,0,0,1-1.406-.535.752.752,0,1,1,1.5,0C386.693,220.055,386.69,220.078,386.69,220.1Zm-1.291-.156h1.095a.548.548,0,0,0-1.095,0Z" transform="translate(-323.895 -211.695)"/><path d="M388.908,220.526a.5.5,0,0,1-.326.108.409.409,0,0,1-.452-.449v-.933h-.276v-.177h.276v-.337h.209v.337h.47v.177h-.47v.921a.247.247,0,0,0,.267.282.343.343,0,0,0,.228-.08Z" transform="translate(-324.873 -211.505)"/><path d="M391.5,219.272v1.544h-.2v-.282a.615.615,0,0,1-.555.3.6.6,0,0,1-.652-.663v-.9h.208v.875a.432.432,0,0,0,.464.5.5.5,0,0,0,.526-.56v-.811Z" transform="translate(-325.695 -211.701)"/><path d="M394.487,220.1H393.2a.572.572,0,0,0,.607.537.608.608,0,0,0,.473-.2l.118.135a.817.817,0,0,1-1.407-.535.743.743,0,0,1,.754-.783.736.736,0,0,1,.749.783C394.49,220.055,394.487,220.078,394.487,220.1Zm-1.291-.156h1.095a.548.548,0,0,0-1.095,0Z" transform="translate(-326.758 -211.695)"/><path d="M396.811,219.254v.2c-.017,0-.035,0-.05,0a.5.5,0,0,0-.52.569v.787h-.208v-1.544h.2v.3A.583.583,0,0,1,396.811,219.254Z" transform="translate(-327.877 -211.695)"/><path d="M289.613,225.413v.957h-.2v-.241a.579.579,0,0,1-.531.256c-.349,0-.564-.182-.564-.449,0-.237.152-.437.6-.437h.49V225.4c0-.265-.151-.408-.438-.408a.783.783,0,0,0-.513.182l-.094-.156a.984.984,0,0,1,.628-.208A.549.549,0,0,1,289.613,225.413Zm-.208.493v-.252h-.485c-.3,0-.4.118-.4.276,0,.179.144.29.39.29A.494.494,0,0,0,289.4,225.906Z" transform="translate(-288.318 -213.737)"/><path d="M292.584,223.831v2.178h-.2V225.7a.668.668,0,0,1-.6.32.785.785,0,0,1,0-1.57.674.674,0,0,1,.587.306v-.928Zm-.205,1.406a.575.575,0,1,0-.573.6A.565.565,0,0,0,292.379,225.237Z" transform="translate(-289.31 -213.376)"/><path d="M294.333,223.978a.15.15,0,0,1,.152-.147.148.148,0,0,1,.152.144.152.152,0,0,1-.3,0Zm.047.487h.209v1.544h-.209Z" transform="translate(-290.527 -213.376)"/><path d="M297.219,225.6a.748.748,0,0,1-.769.787.675.675,0,0,1-.587-.306v.861h-.208v-2.113h.2v.305a.672.672,0,0,1,.6-.317A.747.747,0,0,1,297.219,225.6Zm-.209,0a.576.576,0,1,0-.575.6A.568.568,0,0,0,297.01,225.6Z" transform="translate(-291.012 -213.737)"/><path d="M298.721,223.978a.151.151,0,0,1,.152-.147.148.148,0,0,1,.153.144.15.15,0,0,1-.153.153A.152.152,0,0,1,298.721,223.978Zm.047.487h.209v1.544h-.209Z" transform="translate(-292.139 -213.376)"/><path d="M299.7,226.194l.094-.164a.931.931,0,0,0,.549.173c.294,0,.414-.1.414-.253,0-.4-1-.085-1-.7,0-.252.216-.44.61-.44a1.041,1.041,0,0,1,.546.144l-.091.167a.794.794,0,0,0-.455-.132c-.279,0-.4.109-.4.256,0,.417,1,.1,1,.7,0,.267-.235.44-.637.44A1.033,1.033,0,0,1,299.7,226.194Z" transform="translate(-292.5 -213.737)"/><path d="M302.063,225.6a.76.76,0,0,1,.8-.784.672.672,0,0,1,.6.306l-.155.106a.526.526,0,0,0-.449-.229.6.6,0,0,0,0,1.2.524.524,0,0,0,.449-.227l.155.106a.679.679,0,0,1-.6.306A.762.762,0,0,1,302.063,225.6Z" transform="translate(-293.366 -213.737)"/><path d="M304.842,223.978a.151.151,0,0,1,.153-.147.148.148,0,0,1,.152.144.15.15,0,0,1-.152.153A.152.152,0,0,1,304.842,223.978Zm.047.487h.209v1.544h-.209Z" transform="translate(-294.387 -213.376)"/><path d="M307.585,225.475v.9h-.208v-.875a.431.431,0,0,0-.464-.493.506.506,0,0,0-.54.558v.81h-.208v-1.544h.2v.285a.65.65,0,0,1,.587-.3A.591.591,0,0,1,307.585,225.475Z" transform="translate(-294.872 -213.737)"/><path d="M310.649,224.826v1.356a.678.678,0,0,1-.773.772,1.077,1.077,0,0,1-.719-.238l.106-.158a.921.921,0,0,0,.607.211c.39,0,.569-.179.569-.561v-.2a.7.7,0,0,1-.6.3.749.749,0,1,1,0-1.5.7.7,0,0,1,.611.309v-.3Zm-.2.734a.586.586,0,1,0-.587.566A.552.552,0,0,0,310.446,225.56Z" transform="translate(-295.937 -213.737)"/><path d="M314.958,225.663h-1.291a.571.571,0,0,0,.607.537.608.608,0,0,0,.473-.2l.117.135a.816.816,0,0,1-1.405-.534.752.752,0,1,1,1.5,0C314.961,225.616,314.958,225.639,314.958,225.663Zm-1.291-.156h1.094a.548.548,0,0,0-1.094,0Z" transform="translate(-297.551 -213.737)"/><path d="M316.5,223.831h.208v2.178H316.5Z" transform="translate(-298.669 -213.376)"/><path d="M317.673,223.978a.15.15,0,0,1,.153-.147.148.148,0,0,1,.153.144.153.153,0,0,1-.306,0Zm.047.487h.208v1.544h-.208Z" transform="translate(-299.099 -213.376)"/><path d="M319.669,226.087a.5.5,0,0,1-.326.109.409.409,0,0,1-.452-.449v-.933h-.275v-.176h.275V224.3h.208v.337h.47v.176h-.47v.922a.248.248,0,0,0,.268.282.344.344,0,0,0,.229-.079Z" transform="translate(-299.445 -213.548)"/><path d="M321.024,226.949a.475.475,0,0,1-.042.17l-.123.4h-.141l.1-.426a.148.148,0,0,1-.105-.149.156.156,0,1,1,.311,0Z" transform="translate(-300.215 -214.462)"/><path d="M322.78,226.194l.094-.164a.936.936,0,0,0,.549.173c.294,0,.414-.1.414-.253,0-.4-1-.085-1-.7,0-.252.217-.44.611-.44a1.04,1.04,0,0,1,.545.144l-.091.167a.793.793,0,0,0-.454-.132c-.279,0-.4.109-.4.256,0,.417,1,.1,1,.7,0,.267-.235.44-.637.44A1.036,1.036,0,0,1,322.78,226.194Z" transform="translate(-300.974 -213.737)"/><path d="M326.639,225.663h-1.291a.572.572,0,0,0,.607.537.607.607,0,0,0,.473-.2l.118.135a.816.816,0,0,1-1.406-.534.752.752,0,1,1,1.5,0C326.642,225.616,326.639,225.639,326.639,225.663Zm-1.291-.156h1.095a.548.548,0,0,0-1.095,0Z" transform="translate(-301.841 -213.737)"/><path d="M329.5,223.831v2.178h-.2V225.7a.668.668,0,0,1-.6.32.785.785,0,0,1,0-1.57.674.674,0,0,1,.587.306v-.928Zm-.205,1.406a.575.575,0,1,0-.573.6A.565.565,0,0,0,329.3,225.237Z" transform="translate(-302.869 -213.376)"/><path d="M333.858,223.831v2.178h-.2V225.7a.668.668,0,0,1-.6.32.785.785,0,0,1,0-1.57.674.674,0,0,1,.587.306v-.928Zm-.205,1.406a.574.574,0,1,0-.573.6A.565.565,0,0,0,333.652,225.237Z" transform="translate(-304.468 -213.376)"/><path d="M335.606,223.978a.15.15,0,0,1,.152-.147.148.148,0,0,1,.152.144.15.15,0,0,1-.152.153A.151.151,0,0,1,335.606,223.978Zm.047.487h.209v1.544h-.209Z" transform="translate(-305.685 -213.376)"/><path d="M338.018,225.413v.957h-.2v-.241a.58.58,0,0,1-.531.256c-.349,0-.564-.182-.564-.449,0-.237.152-.437.6-.437h.49V225.4c0-.265-.149-.408-.437-.408a.783.783,0,0,0-.514.182l-.094-.156a.98.98,0,0,1,.628-.208A.549.549,0,0,1,338.018,225.413Zm-.208.493v-.252h-.485c-.3,0-.4.118-.4.276,0,.179.144.29.39.29A.494.494,0,0,0,337.809,225.906Z" transform="translate(-306.095 -213.737)"/><path d="M342.209,225.475v.9H342v-.875c0-.325-.165-.493-.443-.493a.5.5,0,0,0-.517.558v.81h-.209v-.875c0-.325-.164-.493-.446-.493a.5.5,0,0,0-.516.558v.81h-.208v-1.544h.2v.282a.625.625,0,0,1,.567-.294.555.555,0,0,1,.549.326.673.673,0,0,1,.611-.326A.583.583,0,0,1,342.209,225.475Z" transform="translate(-307.174 -213.737)"/><path d="M345.744,224.873l-1.042.4,1.042.4v.244l-1.315-.52v-.252l1.315-.519Z" transform="translate(-308.925 -213.669)"/><path d="M347.655,223.367h.256l-.969,2.765h-.255Z" transform="translate(-309.754 -213.205)"/><path d="M350.7,224.026v2.055h-.294v-.916h-1.179v.916h-.294v-2.055h.294v.883h1.179v-.883Z" transform="translate(-310.58 -213.447)"/><path d="M353,224.026v2.055h-.291v-1.8h-.463v-.256Z" transform="translate(-311.796 -213.447)"/><path d="M355.55,225.148v.252l-1.315.52v-.244l1.045-.4-1.045-.4v-.244Z" transform="translate(-312.526 -213.669)"/><path d="M289.689,235.994l-1.042.4,1.042.4v.244l-1.315-.519v-.253l1.315-.519Z" transform="translate(-288.339 -217.753)"/><path d="M292.906,235.863c0,.446-.323.716-.857.716h-.507v.622h-.294v-2.055h.8C292.583,235.147,292.906,235.417,292.906,235.863Zm-.293,0c0-.294-.2-.461-.573-.461h-.5v.922h.5C292.415,236.325,292.613,236.157,292.613,235.863Z" transform="translate(-289.394 -217.531)"/><path d="M295.732,236.269v.253l-1.315.519V236.8l1.045-.4-1.045-.4v-.244Z" transform="translate(-290.558 -217.753)"/><path d="M299.675,235.994l-1.042.4,1.042.4v.244l-1.315-.519v-.253l1.315-.519Z" transform="translate(-292.006 -217.753)"/><path d="M301.233,235.147h.294V237.2h-.294Z" transform="translate(-293.061 -217.531)"/><path d="M304.575,237.2l0-1.5-.742,1.247h-.135l-.742-1.238V237.2h-.282v-2.055h.24l.857,1.445.845-1.445h.241l0,2.055Z" transform="translate(-293.589 -217.531)"/><path d="M308.421,236.149h.282v.8a1.214,1.214,0,0,1-.778.262,1.052,1.052,0,1,1,.8-1.785l-.182.182a.813.813,0,0,0-.6-.238.79.79,0,1,0,0,1.579.867.867,0,0,0,.48-.132Z" transform="translate(-295.117 -217.518)"/><path d="M311.622,236.953l.109-.229a1.051,1.051,0,0,0,.678.238c.355,0,.507-.138.507-.317,0-.5-1.245-.185-1.245-.948,0-.317.247-.587.787-.587a1.205,1.205,0,0,1,.66.182l-.1.235a1.064,1.064,0,0,0-.564-.167c-.35,0-.5.146-.5.325,0,.5,1.245.188,1.245.943,0,.314-.253.584-.8.584A1.215,1.215,0,0,1,311.622,236.953Z" transform="translate(-296.877 -217.518)"/><path d="M316.17,237.2l-.444-.631c-.04,0-.085.006-.128.006h-.508v.625H314.8v-2.055h.8c.534,0,.857.27.857.716a.65.65,0,0,1-.452.649l.487.689Zm-.008-1.338c0-.294-.2-.461-.573-.461h-.5v.924h.5C315.964,236.327,316.161,236.157,316.161,235.863Z" transform="translate(-298.042 -217.531)"/><path d="M317.9,236.161a1.039,1.039,0,0,1,1.089-1.051,1.016,1.016,0,0,1,.781.32l-.191.185a.76.76,0,0,0-.578-.244.79.79,0,1,0,0,1.579.765.765,0,0,0,.578-.246l.191.185a1.02,1.02,0,0,1-.783.323A1.039,1.039,0,0,1,317.9,236.161Z" transform="translate(-299.183 -217.518)"/><path d="M321.338,236.038h1.315v.232h-1.315Zm0,.7h1.315v.232h-1.315Z" transform="translate(-300.445 -217.859)"/><path d="M325.263,235.147h.247l-.02.793h-.208Zm.531,0h.247l-.02.793h-.209Z" transform="translate(-301.886 -217.531)"/><path d="M327.271,235.147h.294v1.8h1.112v.255h-1.406Z" transform="translate(-302.624 -217.531)"/><path d="M329.7,236.705a.809.809,0,1,1,.811.8A.774.774,0,0,1,329.7,236.705Zm1.333,0a.524.524,0,1,0-1.048,0,.524.524,0,1,0,1.048,0Z" transform="translate(-303.515 -217.813)"/><path d="M333.7,235.913v.273a.575.575,0,0,0-.065,0,.464.464,0,0,0-.49.525v.774h-.282v-1.555h.27v.261A.593.593,0,0,1,333.7,235.913Z" transform="translate(-304.679 -217.813)"/><path d="M336.029,236.8h-1.262a.528.528,0,0,0,.564.456.582.582,0,0,0,.449-.188l.156.182a.848.848,0,0,1-1.45-.543.762.762,0,0,1,.781-.792.75.75,0,0,1,.769.8A.8.8,0,0,1,336.029,236.8Zm-1.262-.2h1a.5.5,0,0,0-1,0Z" transform="translate(-305.273 -217.813)"/><path d="M340.131,236.588v.9h-.282v-.862c0-.306-.146-.456-.4-.456a.452.452,0,0,0-.466.517v.8H338.7v-.862c0-.306-.147-.456-.4-.456a.452.452,0,0,0-.466.517v.8h-.282v-1.555h.27v.232a.632.632,0,0,1,.538-.247.576.576,0,0,1,.54.287.7.7,0,0,1,.6-.287A.6.6,0,0,1,340.131,236.588Z" transform="translate(-306.398 -217.813)"/><path d="M343.614,235.068a.186.186,0,0,1,.191-.185.184.184,0,1,1-.191.185Zm.05.482h.282V237.1h-.282Z" transform="translate(-308.626 -217.434)"/><path d="M346.6,236.705a.756.756,0,0,1-.786.8.664.664,0,0,1-.544-.252v.8h-.282v-2.125h.27v.246a.663.663,0,0,1,.555-.261A.755.755,0,0,1,346.6,236.705Zm-.285,0a.525.525,0,1,0-.525.549A.514.514,0,0,0,346.313,236.705Z" transform="translate(-309.13 -217.813)"/><path d="M347.836,237.319l.117-.223a1,1,0,0,0,.545.161c.261,0,.37-.079.37-.211,0-.349-.983-.047-.983-.666,0-.278.249-.466.649-.466a1.127,1.127,0,0,1,.566.141l-.12.223a.813.813,0,0,0-.449-.123c-.247,0-.367.091-.367.215,0,.367.986.067.986.672,0,.282-.259.461-.673.461A1.123,1.123,0,0,1,347.836,237.319Z" transform="translate(-310.176 -217.813)"/><path d="M351.909,235.936v1.555h-.267v-.235a.633.633,0,0,1-.528.252.612.612,0,0,1-.67-.678v-.895h.282v.863c0,.3.153.457.42.457a.458.458,0,0,0,.482-.516v-.8Z" transform="translate(-311.134 -217.821)"/><path d="M356.188,236.588v.9h-.282v-.862c0-.306-.147-.456-.4-.456a.452.452,0,0,0-.466.517v.8h-.282v-.862c0-.306-.146-.456-.4-.456a.452.452,0,0,0-.467.517v.8h-.282v-1.555h.27v.232a.631.631,0,0,1,.537-.247.577.577,0,0,1,.54.287.7.7,0,0,1,.6-.287A.6.6,0,0,1,356.188,236.588Z" transform="translate(-312.295 -217.813)"/><path d="M358.373,235.147h.246l-.02.793h-.208Zm.531,0h.247l-.02.793h-.208Z" transform="translate(-314.046 -217.531)"/><path d="M361.518,236.269v.253l-1.315.519V236.8l1.045-.4-1.045-.4v-.244Z" transform="translate(-314.718 -217.753)"/><path d="M364.215,235.994l-1.042.4,1.042.4v.244l-1.315-.519v-.253l1.315-.519Z" transform="translate(-315.709 -217.753)"/><path d="M366.126,234.489h.255l-.969,2.764h-.255Z" transform="translate(-316.538 -217.29)"/><path d="M369.063,235.863c0,.446-.323.716-.858.716H367.7v.622H367.4v-2.055h.8C368.74,235.147,369.063,235.417,369.063,235.863Zm-.294,0c0-.294-.2-.461-.572-.461h-.5v.922h.5C368.573,236.325,368.769,236.157,368.769,235.863Z" transform="translate(-317.363 -217.531)"/><path d="M371.889,236.269v.253l-1.315.519V236.8l1.045-.4-1.045-.4v-.244Z" transform="translate(-318.527 -217.753)"/><path d="M289.689,247.116l-1.042.4,1.042.4v.244l-1.315-.519v-.252l1.315-.519Z" transform="translate(-288.339 -221.837)"/><path d="M291.6,245.61h.256l-.969,2.765h-.256Z" transform="translate(-289.167 -221.374)"/><path d="M294.645,247.769c0,.352-.266.554-.787.554h-.979v-2.055h.921c.473,0,.737.2.737.531a.487.487,0,0,1-.276.458A.5.5,0,0,1,294.645,247.769Zm-1.473-1.263v.657h.6c.3,0,.47-.111.47-.328s-.171-.329-.47-.329Zm1.177,1.239c0-.238-.176-.344-.5-.344h-.675v.684h.675C294.173,248.086,294.349,247.983,294.349,247.745Z" transform="translate(-289.993 -221.616)"/><path d="M296.122,247.282a1.093,1.093,0,1,1,1.095,1.051A1.044,1.044,0,0,1,296.122,247.282Zm1.89,0a.8.8,0,1,0-.8.79A.772.772,0,0,0,298.012,247.282Z" transform="translate(-291.184 -221.602)"/><path d="M300.279,246.269h.866a1.03,1.03,0,1,1,0,2.055h-.866Zm.849,1.8a.774.774,0,1,0,0-1.543h-.555v1.543Z" transform="translate(-292.711 -221.616)"/><path d="M304.569,247.613v.711h-.291v-.716l-.816-1.338h.314l.657,1.083.661-1.083h.29Z" transform="translate(-293.88 -221.616)"/><path d="M308.1,247.391v.252l-1.315.519v-.244l1.045-.4-1.045-.4v-.244Z" transform="translate(-295.102 -221.837)"/></g><g transform="translate(0.49 15.625)"><path class="b" d="M362.563,160.267c0,.091-20.307.165-45.351.165s-45.355-.073-45.355-.165,20.3-.165,45.355-.165S362.563,160.176,362.563,160.267Z" transform="translate(-271.857 -160.102)"/></g><g transform="translate(2.041 11.968)"><path class="b" d="M275.475,154.906a.583.583,0,1,1-.583-.584A.584.584,0,0,1,275.475,154.906Z" transform="translate(-274.308 -154.322)"/><g transform="translate(2.242 0)"><circle class="b" cx="0.583" cy="0.583" r="0.583"/></g><g transform="translate(4.484)"><path class="b" d="M282.561,154.906a.583.583,0,1,1-.583-.584A.584.584,0,0,1,282.561,154.906Z" transform="translate(-281.394 -154.322)"/></g></g><g transform="translate(6.086 15.627)"><path class="a" d="M280.865,228.872c-.091,0-.165-15.4-.165-34.381s.074-34.385.165-34.385.164,15.392.164,34.385S280.956,228.872,280.865,228.872Z" transform="translate(-280.7 -160.106)"/></g></g><g transform="translate(0 40.461)"><g transform="translate(0.017)"><rect class="e" width="37.492" height="26.726"/></g><g transform="translate(0 3.8)"><path class="d" d="M163.6,153.819c0,.091-8.463.165-18.9.165s-18.9-.073-18.9-.165,8.462-.165,18.9-.165S163.6,153.728,163.6,153.819Z" transform="translate(-125.802 -153.654)"/></g><g transform="translate(2.067 1.572)"><g transform="translate(0 0)"><path class="d" d="M130.078,150.576a.509.509,0,1,1-.5-.444A.477.477,0,0,1,130.078,150.576Z" transform="translate(-129.069 -150.132)"/></g><g transform="translate(1.84 0)"><path class="d" d="M132.986,150.576a.509.509,0,1,1-.5-.444A.477.477,0,0,1,132.986,150.576Z" transform="translate(-131.977 -150.132)"/></g><g transform="translate(3.68)"><ellipse class="d" cx="0.505" cy="0.443" rx="0.505" ry="0.443"/></g></g><g transform="translate(7.983 12.041)"><path class="d" d="M144.319,169.261c0,1.6-1.162,2.573-3.079,2.573h-2.024v2.379h-.8v-7.536h2.821C143.156,166.677,144.319,167.646,144.319,169.261Zm-.8,0c0-1.206-.8-1.9-2.3-1.9h-2v3.768h2C142.725,171.134,143.522,170.445,143.522,169.261Z" transform="translate(-138.419 -166.677)"/><g transform="translate(7.619)"><path class="d" d="M156.758,166.677v7.536h-.786v-3.478h-4.715v3.478h-.8v-7.536h.8v3.359h4.715v-3.359Z" transform="translate(-150.46 -166.677)"/></g><g transform="translate(16.368)"><path class="d" d="M170.187,169.261c0,1.6-1.162,2.573-3.079,2.573h-2.024v2.379h-.8v-7.536h2.821C169.024,166.677,170.187,167.646,170.187,169.261Zm-.8,0c0-1.206-.8-1.9-2.3-1.9h-2v3.768h2C168.593,171.134,169.39,170.445,169.39,169.261Z" transform="translate(-164.287 -166.677)"/></g></g></g><g transform="translate(174.993 83.903)"><g transform="translate(0.015)"><rect class="e" width="33.893" height="24.16"/></g><g transform="translate(7.047 11.219)"><path class="d" d="M417.9,234.035v4.795h-1.11v-1.966h-2.178v1.966H413.5v-4.795h1.11v1.891h2.178v-1.891Z" transform="translate(-413.502 -234.035)"/><g transform="translate(4.994)"><path class="d" d="M422.929,234.939h-1.534v-.9h4.179v.9h-1.534v3.891h-1.11Z" transform="translate(-421.395 -234.035)"/></g><g transform="translate(9.769)"><path class="d" d="M428.941,234.035h1.111v3.891h2.4v.9h-3.514Z" transform="translate(-428.941 -234.035)"/></g><g transform="translate(13.907)"><path class="d" d="M439.844,238.83l-.007-2.877-1.411,2.37h-.5l-1.4-2.309v2.816h-1.041v-4.795h.917l1.8,2.98,1.767-2.98h.911l.014,4.795Z" transform="translate(-435.481 -234.035)"/></g></g><g transform="translate(0 1.421)"><g transform="translate(0 2.057)"><path class="d" d="M436.538,221.908c0,.059-7.65.107-17.086.107s-17.087-.048-17.087-.107,7.649-.107,17.087-.107S436.538,221.849,436.538,221.908Z" transform="translate(-402.365 -221.801)"/></g><g transform="translate(1.868)"><path class="d" d="M406.23,218.951a.46.46,0,1,1-.457-.4A.432.432,0,0,1,406.23,218.951Z" transform="translate(-405.317 -218.55)"/><g transform="translate(1.664)"><path class="d" d="M408.858,218.951a.46.46,0,1,1-.456-.4A.431.431,0,0,1,408.858,218.951Z" transform="translate(-407.946 -218.55)"/></g><g transform="translate(3.327)"><path class="d" d="M411.487,218.951a.46.46,0,1,1-.456-.4A.431.431,0,0,1,411.487,218.951Z" transform="translate(-410.575 -218.55)"/></g></g></g></g><g transform="translate(92.531)"><g transform="translate(9.499 10.175)"><path class="e" d="M287.053,104.531a4.675,4.675,0,0,1,4.854-4.747,4.463,4.463,0,0,1,3.329,1.3l-.427.441a3.921,3.921,0,0,0-2.875-1.109,4.119,4.119,0,1,0,0,8.237,3.933,3.933,0,0,0,2.875-1.123l.427.441a4.47,4.47,0,0,1-3.329,1.31A4.675,4.675,0,0,1,287.053,104.531Z" transform="translate(-287.053 -99.784)"/><g transform="translate(9.468)"><path class="e" d="M302.016,108.008l.307-.508a4.452,4.452,0,0,0,3.089,1.177c1.872,0,2.7-.816,2.7-1.832,0-2.808-5.843-1.123-5.843-4.573,0-1.324,1.017-2.487,3.316-2.487a5.022,5.022,0,0,1,2.821.842l-.254.549a4.629,4.629,0,0,0-2.568-.789c-1.818,0-2.634.843-2.634,1.872,0,2.808,5.843,1.15,5.843,4.546,0,1.324-1.056,2.474-3.37,2.474A4.794,4.794,0,0,1,302.016,108.008Z" transform="translate(-302.016 -99.784)"/></g><g transform="translate(17.611)"><path class="e" d="M314.885,108.008l.307-.508a4.452,4.452,0,0,0,3.089,1.177c1.872,0,2.7-.816,2.7-1.832,0-2.808-5.844-1.123-5.844-4.573,0-1.324,1.017-2.487,3.316-2.487a5.022,5.022,0,0,1,2.821.842l-.254.549a4.626,4.626,0,0,0-2.568-.789c-1.819,0-2.634.843-2.634,1.872,0,2.808,5.843,1.15,5.843,4.546,0,1.324-1.056,2.474-3.369,2.474A4.8,4.8,0,0,1,314.885,108.008Z" transform="translate(-314.885 -99.784)"/></g></g><path class="e" d="M313.9,110.795s-.009-.173-.014-.5-.008-.809-.015-1.424c-.008-1.256-.019-3.081-.034-5.416-.016-4.679-.04-11.393-.068-19.59l.13.13-41.69.034h0l.165-.165c-.005,9.563-.01,18.667-.013,26.926l-.152-.151,29.992.074,8.6.041,2.3.018.6.009c.135,0,.2.006.208.009a1.332,1.332,0,0,1-.19.009l-.578.009-2.265.018-8.568.04-30.091.075h-.151v-.152c0-8.259-.009-17.364-.013-26.926V83.7h.168l41.69.034h.131v.13c-.028,8.231-.052,14.973-.068,19.671-.015,2.322-.025,4.138-.034,5.387q-.01.906-.015,1.4C313.907,110.64,313.9,110.795,313.9,110.795Z" transform="translate(-272.04 -83.703)"/><g transform="translate(0.148 3.995)"><path class="e" d="M313.983,90.182c0,.091-9.337.165-20.853.165s-20.856-.073-20.856-.165,9.336-.165,20.856-.165S313.983,90.091,313.983,90.182Z" transform="translate(-272.274 -90.017)"/></g><g transform="translate(2.23 1.748)"><path class="e" d="M276.582,86.913a.513.513,0,1,1-.508-.447A.481.481,0,0,1,276.582,86.913Z" transform="translate(-275.565 -86.466)"/><g transform="translate(1.854)"><path class="e" d="M279.512,86.913a.513.513,0,1,1-.509-.447A.481.481,0,0,1,279.512,86.913Z" transform="translate(-278.495 -86.466)"/></g><g transform="translate(3.708)"><path class="e" d="M282.442,86.913a.513.513,0,1,1-.509-.447A.481.481,0,0,1,282.442,86.913Z" transform="translate(-281.425 -86.466)"/></g></g></g></g><g transform="translate(103.23 116.325)"><g transform="translate(0 73.722)"><path class="g" d="M147.7,266.453l16.53,55.8a5.835,5.835,0,0,0,5.594,4.177l67.068.185a6.2,6.2,0,0,0,6.208-6.529h0a6.2,6.2,0,0,0-6.191-5.872H211.266l-20.539-57.229H154.775A7.375,7.375,0,0,0,147.7,266.453Z" transform="translate(-147.395 -256.983)"/><g transform="translate(26.506 61.575)"><path class="b" d="M219.832,354.534c0,.13-6.839.236-15.273.236s-15.273-.106-15.273-.236,6.837-.237,15.273-.237S219.832,354.4,219.832,354.534Z" transform="translate(-189.286 -354.297)"/></g><g transform="translate(5.238 1.772)"><path class="b" d="M155.676,259.784c.124-.042,4.691,13.318,10.2,29.836s9.875,29.947,9.752,29.988-4.69-13.316-10.2-29.839S155.552,259.825,155.676,259.784Z" transform="translate(-155.674 -259.784)"/></g><g transform="translate(50.175 69.445)"><path class="g" d="M230.78,416.312l-4.087-.1V366.735h4.087Z" transform="translate(-226.693 -366.735)"/></g><g transform="translate(33.194 112.806)"><path class="g" d="M199.856,441.254H237.9l-17.236-5.99h-4.087Z" transform="translate(-199.856 -435.264)"/></g></g><g transform="translate(20.318 41.374)"><g transform="translate(0.026 0.103)"><g transform="translate(3.227)"><path class="e" d="M184.648,225.473l6.3,31.452L189.82,280.5l42.317-7.038-1.661-20.641-.032-17.08,10.376,20.109,8.08-15.605-14.793-26.8v0a24.966,24.966,0,0,0-9.678-6.265,19.971,19.971,0,0,0-6.065-1.162h0a24.311,24.311,0,0,1-14.649.009c-.595.075-1.42.152-2.459.276l-.19.023a18.709,18.709,0,0,0-16.33,17.593Z" transform="translate(-184.648 -206.021)"/></g><g transform="translate(0 0.285)"><path class="e" d="M199.381,206.471s-17.387.132-19.541,18.5l-.292,13.465,14.975-.13Z" transform="translate(-179.548 -206.471)"/></g></g><g transform="translate(0.284 23.775)"><path class="h" d="M241.07,243.668c0,.13-13.682.236-30.556.236s-30.558-.106-30.558-.236,13.679-.236,30.558-.236S241.07,243.538,241.07,243.668Z" transform="translate(-179.956 -243.432)"/></g><g transform="translate(0.284 26.686)"><path class="h" d="M241.07,248.269c0,.13-13.682.236-30.556.236s-30.558-.106-30.558-.236,13.679-.236,30.558-.236S241.07,248.139,241.07,248.269Z" transform="translate(-179.956 -248.033)"/></g><g transform="translate(0.284 21.362)"><path class="h" d="M240.091,239.855c0,.131-13.463.237-30.066.237s-30.069-.106-30.069-.237,13.46-.236,30.069-.236S240.091,239.725,240.091,239.855Z" transform="translate(-179.956 -239.619)"/></g><g transform="translate(48.753 16.695)"><path class="b" d="M256.628,265.477c-.13,0-.073-7.445.13-16.622s.471-16.615.6-16.612.073,7.444-.13,16.623S256.758,265.48,256.628,265.477Z" transform="translate(-256.558 -232.243)"/></g><g transform="translate(42.724 37.858)"><path class="i" d="M247.183,265.69s8.225.588,9.706,2.763,3.737,8.375,2.882,8.421a2.336,2.336,0,0,1-1.477-.467l-2.254-3.995s.362,3.859-.986,3.936-8.026,1.413-8.026,1.413Z" transform="translate(-247.029 -265.69)"/></g><g transform="translate(0 28.072)"><path class="e" d="M179.538,250.916l-.031,21.2a8.055,8.055,0,0,0,9.759,7.435l33.161-6.832-.071-13.6-28.612,5.491-.382-14.392Z" transform="translate(-179.507 -250.224)"/></g><g transform="translate(14.028 21.394)"><path class="b" d="M206.6,273.98a2.338,2.338,0,0,1,.438-.122l1.286-.289,4.873-1.032,17.261-3.528-.17.206c-.007-4.269-.015-8.986-.023-13.966l.278.23-5.829,1.121-22.789,4.338-.247.047.008-.248c.216-6.311.4-11.567.525-15.29.076-1.81.135-3.246.178-4.27.026-.465.046-.836.063-1.123a1.741,1.741,0,0,1,.042-.383,1.864,1.864,0,0,1,.02.387c0,.287,0,.659,0,1.126-.016,1.025-.039,2.462-.068,4.274-.087,3.722-.209,8.977-.356,15.287l-.239-.2,22.776-4.406,5.83-1.117.279-.053v.283c-.008,4.98-.016,9.7-.023,13.966v.174l-.17.033-17.294,3.36-4.9.916-1.3.225A2.318,2.318,0,0,1,206.6,273.98Z" transform="translate(-201.677 -239.67)"/></g><g transform="translate(21.059)"><path class="b" d="M229.7,206.246c.015-.005.061.1.136.311a6.254,6.254,0,0,1,.256.938,7.683,7.683,0,0,1-.155,3.569,9.384,9.384,0,0,1-2.878,4.441,8.932,8.932,0,0,1-6.036,2.279,8.192,8.192,0,0,1-5.967-2.423,8.4,8.4,0,0,1-2.22-4.8,7.565,7.565,0,0,1,.418-3.548,5.026,5.026,0,0,1,.425-.875c.115-.191.181-.286.195-.278.048.025-.2.422-.447,1.213a7.922,7.922,0,0,0-.26,3.446,8.232,8.232,0,0,0,2.2,4.539,7.85,7.85,0,0,0,5.655,2.254,8.609,8.609,0,0,0,5.747-2.134,9.257,9.257,0,0,0,2.846-4.21,8.049,8.049,0,0,0,.294-3.445C229.8,206.7,229.655,206.259,229.7,206.246Z" transform="translate(-212.788 -205.858)"/></g><g transform="translate(39.532 37.456)"><path class="h" d="M242.025,279.293a10.3,10.3,0,0,1,.007-2.092c.049-1.287.111-3.063.123-5.026s-.03-3.74-.065-5.028a10.272,10.272,0,0,1,.018-2.092,8.413,8.413,0,0,1,.316,2.073c.12,1.288.214,3.074.2,5.05s-.128,3.76-.263,5.047A8.4,8.4,0,0,1,242.025,279.293Z" transform="translate(-241.984 -265.054)"/></g><g transform="translate(37.796 37.896)"><path class="h" d="M239.306,279.895a9.706,9.706,0,0,1-.059-2.077c.016-1.462.034-3.141.054-5,0-1.855,0-3.535-.005-5a9.684,9.684,0,0,1,.08-2.076,8.609,8.609,0,0,1,.254,2.065c.087,1.28.152,3.052.143,5.011s-.092,3.729-.192,5.008A8.539,8.539,0,0,1,239.306,279.895Z" transform="translate(-239.24 -265.749)"/></g></g><g transform="translate(78.225 177.66)"><path class="e" d="M284.185,421.248l6.267,17.259,8.894,12.223a1.882,1.882,0,0,1-.521,2.7h0a1.868,1.868,0,0,1-1.716.147c-3.586-1.488-16.751-7.027-17.139-8.316-.449-1.493-8.948-20.055-8.948-20.055Z" transform="translate(-271.023 -421.248)"/><g class="j" transform="translate(8.498 22.858)"><path class="d" d="M303.758,466.7l-19.3-9.324.282.725a2.833,2.833,0,0,0,1.291,1.467c1.584.854,6.008,3.116,15.964,7.3a1.881,1.881,0,0,0,1.767-.168Z" transform="translate(-284.454 -457.373)"/></g><g class="j" transform="translate(8.532 15.931)"><path class="d" d="M285.837,446.466a1.138,1.138,0,0,1,.83,1.272,1.094,1.094,0,0,1-1.254.833,1.2,1.2,0,0,1-.872-1.352,1.135,1.135,0,0,1,1.4-.722" transform="translate(-284.507 -446.426)"/></g><g transform="translate(20.9 23.114)"><path class="b" d="M304.136,460.891a4.059,4.059,0,0,1,2.806-3.059c0-.047-.27-.1-.692,0a3,3,0,0,0-2.17,2.366C304.016,460.631,304.088,460.893,304.136,460.891Z" transform="translate(-304.054 -457.778)"/></g><g transform="translate(23.066 25.792)"><path class="b" d="M307.5,464.263c.111.042.443-.728,1.229-1.326.773-.616,1.6-.749,1.588-.866a2.088,2.088,0,0,0-1.835.548C307.592,463.305,307.4,464.251,307.5,464.263Z" transform="translate(-307.476 -462.011)"/></g><g transform="translate(17.553 20.399)"><path class="b" d="M298.781,457.262a9.662,9.662,0,0,1,4.067-3.753,5.144,5.144,0,0,0-4.067,3.753Z" transform="translate(-298.765 -453.488)"/></g><g transform="translate(15.219 17.073)"><path class="b" d="M295.082,450.243c.086.085.878-.678,2.091-1.2,1.205-.54,2.3-.607,2.3-.728a4.672,4.672,0,0,0-4.389,1.929Z" transform="translate(-295.075 -448.23)"/></g><g transform="translate(13.251 12.143)"><path class="b" d="M291.972,442.362a5.977,5.977,0,0,1,4.634-1.622c.014-.047-.256-.189-.74-.263a4.1,4.1,0,0,0-3.479,1.218C292.055,442.054,291.932,442.334,291.972,442.362Z" transform="translate(-291.965 -440.439)"/></g><g transform="translate(11.568 8.199)"><path class="b" d="M292.735,437.82a1.583,1.583,0,0,0-.228-.656,4.821,4.821,0,0,0-1.174-1.5,2.138,2.138,0,0,0-1.226-.619.757.757,0,0,0-.733.466,1.233,1.233,0,0,0,.03.878,2.659,2.659,0,0,0,3.064,1.447,3.084,3.084,0,0,0,2.238-2.6,1.07,1.07,0,0,0-.276-.848.741.741,0,0,0-.866-.084,2.629,2.629,0,0,0-.9,1.024,5.4,5.4,0,0,0-.65,1.784,1.656,1.656,0,0,0-.033.694,8.592,8.592,0,0,1,.927-2.33,2.458,2.458,0,0,1,.805-.874.4.4,0,0,1,.472.043.732.732,0,0,1,.149.568,2.754,2.754,0,0,1-1.967,2.234,2.31,2.31,0,0,1-2.619-1.191.894.894,0,0,1-.047-.612.409.409,0,0,1,.4-.263,1.935,1.935,0,0,1,1.047.5A7.135,7.135,0,0,1,292.735,437.82Z" transform="translate(-289.306 -434.206)"/></g></g><g transform="translate(104.245 173.072)"><path class="e" d="M325.747,414.07l-.542,14.027s14.076,5.261,14.229,7.864l-27.236-.074L312.146,414Z" transform="translate(-312.146 -413.997)"/><g class="j" transform="translate(3.846 12.852)"><path class="d" d="M319.019,434.355a1.112,1.112,0,0,0-.772,1.267,1.068,1.068,0,0,0,1.249.777,1.173,1.173,0,0,0,.811-1.346,1.11,1.11,0,0,0-1.389-.664" transform="translate(-318.224 -434.309)"/></g><g class="j" transform="translate(0.047 19.707)"><path class="d" d="M312.226,447.326l-.005-2.183,26.169.873s1.211.531,1.072,1.384Z" transform="translate(-312.221 -445.143)"/></g><g transform="translate(11.015 13.839)"><path class="b" d="M332.041,435.993c0,.133-.669.191-1.325.617-.667.409-1.006.984-1.128.931-.122-.027.078-.821.881-1.322S332.07,435.871,332.041,435.993Z" transform="translate(-329.555 -435.869)"/></g><g transform="translate(14.545 15.098)"><path class="b" d="M336.943,437.913c.03.129-.547.354-1,.915-.47.548-.585,1.156-.718,1.15-.125.02-.215-.759.362-1.446S336.941,437.786,336.943,437.913Z" transform="translate(-335.133 -437.858)"/></g><g transform="translate(17.81 16.284)"><path class="b" d="M340.451,442.024c-.121.028-.3-.637.04-1.364s.966-1.016,1.022-.9c.075.109-.33.5-.6,1.1S340.583,442.011,340.451,442.024Z" transform="translate(-340.293 -439.732)"/></g><g transform="translate(10.438 10.271)"><path class="b" d="M331.475,430.712c-.056.121-.666-.064-1.417-.015-.753.034-1.339.285-1.408.17-.077-.1.5-.587,1.383-.632S331.541,430.607,331.475,430.712Z" transform="translate(-328.643 -430.23)"/></g><g class="k" transform="translate(0.002 2.852)"><path d="M325.638,418.5l-.093,2.5-13.385-.158-.011-2.253Z" transform="translate(-312.148 -418.504)"/></g><g transform="translate(9.19 5.717)"><path class="b" d="M330.808,425.236a2.551,2.551,0,0,1-1.364-.011,6.1,6.1,0,0,1-1.426-.442,6.323,6.323,0,0,1-.782-.418,1.675,1.675,0,0,1-.411-.322.58.58,0,0,1-.059-.707.73.73,0,0,1,.583-.3,1.754,1.754,0,0,1,.511.072,4.881,4.881,0,0,1,.847.293,4.815,4.815,0,0,1,1.256.829c.63.587.845,1.085.8,1.11-.061.044-.367-.373-1.009-.858a5.451,5.451,0,0,0-1.215-.689,5.133,5.133,0,0,0-.782-.244c-.289-.076-.534-.079-.608.049-.027.049-.031.068.029.152a1.36,1.36,0,0,0,.3.235,7.19,7.19,0,0,0,.719.414,7.6,7.6,0,0,0,1.317.509A9.429,9.429,0,0,1,330.808,425.236Z" transform="translate(-326.67 -423.033)"/></g><g transform="translate(12.793 3.786)"><path class="b" d="M332.725,424.306a2.169,2.169,0,0,1-.356-1.319,4.4,4.4,0,0,1,.54-2.32,1.125,1.125,0,0,1,.872-.687.638.638,0,0,1,.569.382,1.869,1.869,0,0,1,.139.5,3.018,3.018,0,0,1,0,.919,3.138,3.138,0,0,1-.586,1.407c-.535.7-1.09.862-1.1.817-.044-.066.42-.322.83-1a3.152,3.152,0,0,0,.435-1.281,2.834,2.834,0,0,0-.023-.788c-.042-.29-.15-.523-.258-.494-.135,0-.366.215-.478.445a4.6,4.6,0,0,0-.34.738,4.924,4.924,0,0,0-.268,1.36C332.657,423.787,332.8,424.285,332.725,424.306Z" transform="translate(-332.364 -419.98)"/></g></g><g transform="translate(28.353 101.334)"><g transform="translate(38.5 4.484)"><path class="b" d="M290.47,307.794c-16.088,1.664-37.419,3.85-37.419,3.85l2.909,26.189s31.337-8.282,31.113-7.61,1.452,55.722,1.452,55.722H307.4l.355-62.344A15.671,15.671,0,0,0,290.47,307.794Z" transform="translate(-253.051 -307.709)"/></g><path class="b" d="M192.2,315.756v8.121c0,5.528,6.3,11.391,11.825,11.391H208.3c3.369,0,8.646-2.452,11.366-4.44l1.634-1.194,19.649,60.876s22.485-4.031,22.485-4.74-15.227-49.86-22.256-72.673c-2.87-9.314-12.849-14.73-22.068-11.568q-.472.162-.944.351C208.1,305.906,192.2,315.756,192.2,315.756Z" transform="translate(-192.205 -300.621)"/><g transform="translate(38.5 1.177)"><path class="g" d="M285.784,386.452a.927.927,0,0,1-.1-.216l-.248-.651c-.214-.575-.524-1.424-.892-2.527-.755-2.2-1.786-5.406-3.042-9.372-2.508-7.932-5.868-18.921-9.527-31.073-1.819-6.08-3.552-11.87-5.13-17.143l-2.225-7.484-1.011-3.391a30.442,30.442,0,0,0-1.023-3.08,12.609,12.609,0,0,0-3.174-4.494,26.733,26.733,0,0,0-3.325-2.589c-.962-.648-1.729-1.124-2.253-1.44l-.591-.369a.12.12,0,1,1,.024-.042l.615.328c.54.29,1.324.742,2.306,1.369a25.487,25.487,0,0,1,3.4,2.549,12.778,12.778,0,0,1,3.3,4.56,30.448,30.448,0,0,1,1.064,3.1q.5,1.63,1.036,3.385l2.266,7.471c1.589,5.269,3.334,11.056,5.166,17.132,3.663,12.133,6.979,23.117,9.393,31.111l2.9,9.413.807,2.553.2.666A.9.9,0,0,1,285.784,386.452Z" transform="translate(-253.051 -302.482)"/></g><g transform="translate(72.661 19.141)"><path class="g" d="M310.355,330.874c.116.081-.953,1.688-1.849,3.869-.911,2.175-1.293,4.067-1.433,4.042a13.492,13.492,0,0,1,3.281-7.911Z" transform="translate(-307.041 -330.872)"/></g><g transform="translate(73.427 21.66)"><path class="g" d="M314.4,334.868c.056.132-1.568.842-3.257,2.181s-2.775,2.733-2.89,2.648a10.313,10.313,0,0,1,6.147-4.829Z" transform="translate(-308.25 -334.853)"/></g><g transform="translate(25.695 16.976)"><path class="g" d="M256.079,400.362c-.125.039-5.433-16.251-11.856-36.382s-11.531-36.489-11.407-36.529,5.432,16.248,11.857,36.385S256.2,400.322,256.079,400.362Z" transform="translate(-232.814 -327.451)"/></g></g><g transform="translate(53.198 62.972)"><path class="g" d="M231.47,273.275l64.32.619,11.994-33.9L261,240.309l-10.858,30.486-18.673.279Z" transform="translate(-231.47 -239.992)"/><g transform="translate(46.525 14.686)"><path class="d" d="M307.239,268.388a2.6,2.6,0,1,1,2.944-2.215A2.6,2.6,0,0,1,307.239,268.388Z" transform="translate(-304.998 -263.203)"/></g></g><g transform="translate(38.925)"><g transform="translate(1.079)"><path class="b" d="M218.564,144.96c.607-2.255,2.3-3.366,4.515-4.12a7.286,7.286,0,0,1,6.644,1.079c1.243.946,2.216,2.322,3.692,2.834,2.43.845,5.278-.974,7.607.116a3.318,3.318,0,0,1-1.57,6.32c1.586.579,2.079,2.841,1.152,4.253a4.422,4.422,0,0,1-4.489,1.634,9.311,9.311,0,0,1-4.362-2.445c-1.255-1.128-2.381-2.405-3.722-3.43a7.245,7.245,0,0,0-4.654-1.71,6.632,6.632,0,0,0-5.257,3.891,16.982,16.982,0,0,0-1.379,6.667,28.07,28.07,0,0,1-.843,6.785c-.08.256-.2.544-.457.622-.37.114-.685-.28-.869-.621a33.544,33.544,0,0,1-3.833-12.471c-.258-2.529-.191-4.924,1.2-7.052s4.9-3.7,6.627-2.352" transform="translate(-210.619 -140.471)"/></g><g transform="translate(3.413 3.098)"><path class="i" d="M215.5,157.349l-1.167,25.6c-.2,4.354.4,10.79,7.3,10.79h0c5.984-.451,7.754-6.044,7.935-10.107.085-1.927.161-3.535.183-3.732,0,0,6.546-.316,7.31-6.745.37-3.107.61-9.568.759-15.416a12.059,12.059,0,0,0-10.783-12.294l-.621-.066C219.678,145.059,215.64,150.6,215.5,157.349Z" transform="translate(-214.307 -145.367)"/><g transform="translate(7.327 31.164)"><path class="l" d="M234.026,197.9a15.053,15.053,0,0,1-8.139-3.278s1.491,4.844,7.976,4.948Z" transform="translate(-225.887 -194.619)"/></g><g transform="translate(8.158 9.717)"><g transform="translate(0.265 3.646)"><g transform="translate(9.745 0.85)"><g transform="translate(1.167 1.34)"><path class="b" d="M246.709,170.88a.924.924,0,0,1-.985.833.884.884,0,0,1-.859-.93.924.924,0,0,1,.984-.834A.886.886,0,0,1,246.709,170.88Z" transform="translate(-244.863 -169.948)"/></g><path class="b" d="M246.647,169c-.127.108-.768-.482-1.758-.585s-1.767.315-1.861.183c-.047-.059.092-.264.432-.46a2.537,2.537,0,0,1,1.507-.294,2.437,2.437,0,0,1,1.383.615C246.629,168.727,246.709,168.954,246.647,169Z" transform="translate(-243.019 -167.83)"/></g><g transform="translate(1.173 1.494)"><path class="b" d="M231.318,169.779a.925.925,0,0,1-.985.833.884.884,0,0,1-.859-.929.925.925,0,0,1,.985-.834A.885.885,0,0,1,231.318,169.779Z" transform="translate(-229.472 -168.847)"/></g><path class="b" d="M231.247,167.658c-.127.108-.77-.482-1.758-.585s-1.767.315-1.862.182c-.047-.059.091-.263.433-.459a2.534,2.534,0,0,1,1.506-.294,2.433,2.433,0,0,1,1.383.615C231.228,167.383,231.309,167.611,231.247,167.658Z" transform="translate(-227.618 -166.486)"/><g transform="translate(6.438 0.599)"><path class="b" d="M237.793,175.725a6.585,6.585,0,0,1,1.638-.119c.255,0,.5-.024.561-.192a1.293,1.293,0,0,0-.089-.767q-.258-.955-.542-2a33.183,33.183,0,0,1-1.142-5.21,33.3,33.3,0,0,1,1.559,5.106q.267,1.053.509,2.011a1.47,1.47,0,0,1,.025,1.006.637.637,0,0,1-.454.325,1.7,1.7,0,0,1-.435.014A6.458,6.458,0,0,1,237.793,175.725Z" transform="translate(-237.793 -167.434)"/></g><g transform="translate(3.226 9.264)"><path class="b" d="M232.945,181.129c.162.008.05,1.081.888,1.942s1.994.863,1.986,1.014c.008.069-.277.182-.762.143a2.688,2.688,0,0,1-1.664-.786,2.342,2.342,0,0,1-.676-1.621C232.724,181.368,232.872,181.114,232.945,181.129Z" transform="translate(-232.716 -181.128)"/></g></g><path class="b" d="M231.761,161.692c-.126.258-1.1.026-2.276.042-1.176-.008-2.148.233-2.276-.025-.056-.123.134-.359.54-.579a3.957,3.957,0,0,1,3.468-.013C231.625,161.335,231.817,161.569,231.761,161.692Z" transform="translate(-227.2 -160.724)"/><g transform="translate(10.229 1.544)"><path class="b" d="M246.715,164.387c-.2.206-.855-.1-1.673-.2-.815-.127-1.529-.01-1.664-.262-.058-.121.075-.335.4-.515a2.439,2.439,0,0,1,2.689.37C246.733,164.044,246.8,164.285,246.715,164.387Z" transform="translate(-243.365 -163.164)"/></g></g></g><g transform="translate(0 19.524)"><path class="i" d="M213.542,171.705c-.105-.059-4.284-1.779-4.612,2.637s4.174,3.834,4.191,3.709S213.542,171.705,213.542,171.705Z" transform="translate(-208.913 -171.326)"/><g transform="translate(1.126 1.393)"><path class="l" d="M212.55,177.086c-.018-.016-.081.048-.215.1a.776.776,0,0,1-.576-.031A1.909,1.909,0,0,1,211,175.38a2.546,2.546,0,0,1,.3-1.085.89.89,0,0,1,.623-.547.392.392,0,0,1,.438.244c.05.128.015.214.038.223s.1-.067.078-.252a.49.49,0,0,0-.153-.29.584.584,0,0,0-.417-.144,1.087,1.087,0,0,0-.855.625,2.619,2.619,0,0,0-.358,1.211,2,2,0,0,0,.981,1.991.828.828,0,0,0,.712-.065C212.534,177.192,212.564,177.095,212.55,177.086Z" transform="translate(-210.693 -173.529)"/></g></g><g transform="translate(3.843 2.135)"><path class="b" d="M239.576,155.989a9.35,9.35,0,0,1-8.062-2.74c-1.424-1.495-2.43-3.531-4.328-4.344a5.257,5.257,0,0,0-4.057.121,10.155,10.155,0,0,0-3.328,2.463c.9,3.4-.328,6.967-1.537,10.273a1.761,1.761,0,0,1-.62.961c-.564.345-1.31-.051-1.713-.574a5.463,5.463,0,0,1-.889-3,18.221,18.221,0,0,1,.8-7.135,12.4,12.4,0,0,1,4.05-5.86,11.742,11.742,0,0,1,8.52-2.223,14.421,14.421,0,0,1,8,3.858,8.449,8.449,0,0,1,2.372,3.4" transform="translate(-214.986 -143.844)"/></g></g></g><g transform="translate(62.406 151.185)"><g transform="translate(183.36)"><path class="b" d="M384.712,195.564l-12.051,50.407h3.37L387.9,195.564Z" transform="translate(-372.661 -195.564)"/><g transform="translate(5.862 33.199)"><path class="b" d="M383.487,248.033c-.218.924,5.458,28.4,5.458,28.4h-2.732l-4.287-21.774Z" transform="translate(-381.926 -248.033)"/></g></g><g transform="translate(174.461 66.126)"><g transform="translate(0 31.799)"><rect class="e" width="56.458" height="59.852"/></g><g transform="translate(56.458 40.545)"><rect class="b" width="2.772" height="2.772"/></g><g transform="translate(56.458 49.347)"><rect class="b" width="2.772" height="2.772"/></g><g transform="translate(56.458 58.149)"><rect class="b" width="2.772" height="2.772"/></g><g transform="translate(56.458 66.95)"><rect class="b" width="2.772" height="2.772"/></g><g transform="translate(59.162 58.547)"><path class="b" d="M452.268,393.011a4.192,4.192,0,0,1,.852-.187,14.222,14.222,0,0,1,2.375-.225,6.406,6.406,0,0,1,3.431.9,3.967,3.967,0,0,1,1.906,3.8,4.773,4.773,0,0,1-.72,2.171,5.7,5.7,0,0,1-1.46,1.544,7.468,7.468,0,0,1-3.3,1.3,10.85,10.85,0,0,1-2.386.081,3.542,3.542,0,0,1-.866-.121,5.959,5.959,0,0,1,.87-.008,12.8,12.8,0,0,0,2.344-.183,7.453,7.453,0,0,0,3.159-1.318,4.858,4.858,0,0,0,2.032-3.5,3.689,3.689,0,0,0-1.741-3.518,6.326,6.326,0,0,0-3.271-.926,18.024,18.024,0,0,0-2.354.119A4.679,4.679,0,0,1,452.268,393.011Z" transform="translate(-452.099 -392.6)"/></g><g transform="translate(58.641 49.412)"><path class="b" d="M451.275,378.961a1.035,1.035,0,0,1,.264-.161,5.55,5.55,0,0,1,.821-.332,6.5,6.5,0,0,1,3.243-.181,2.95,2.95,0,0,1,1.033.411,1.8,1.8,0,0,1,.73.985,2.845,2.845,0,0,1-.634,2.524,2.8,2.8,0,0,1-1.169.861,1.824,1.824,0,0,1-1.529-.082,1.559,1.559,0,0,1-.878-1.329,1.6,1.6,0,0,1,.9-1.372,2.457,2.457,0,0,1,1.615-.17,3.329,3.329,0,0,1,1.409.671,3.807,3.807,0,0,1,1.408,2.515,3.556,3.556,0,0,1-.723,2.507,5.112,5.112,0,0,1-1.736,1.465,8.334,8.334,0,0,1-3.146.821c-.382.031-.68.04-.881.042a1.067,1.067,0,0,1-.308-.016c0-.026.421-.056,1.175-.154a8.766,8.766,0,0,0,3.049-.9,4.946,4.946,0,0,0,1.626-1.421,3.285,3.285,0,0,0,.642-2.311,3.509,3.509,0,0,0-1.307-2.3,3.012,3.012,0,0,0-1.273-.6,2.142,2.142,0,0,0-1.4.14,1.275,1.275,0,0,0-.721,1.079,1.24,1.24,0,0,0,.7,1.045,1.5,1.5,0,0,0,1.268.071,2.514,2.514,0,0,0,1.043-.759,2.58,2.58,0,0,0,.6-2.253,1.907,1.907,0,0,0-1.552-1.245,6.682,6.682,0,0,0-3.156.076C451.665,378.789,451.288,378.989,451.275,378.961Z" transform="translate(-451.275 -378.162)"/></g><g transform="translate(58.67 41.498)"><path class="b" d="M451.32,365.776a1.614,1.614,0,0,1,.616-.114,4.524,4.524,0,0,1,1.694.238,4.837,4.837,0,0,1,2.11,1.421,4.811,4.811,0,0,1,.18,5.885,4.839,4.839,0,0,1-2.018,1.548,4.53,4.53,0,0,1-1.676.341,1.607,1.607,0,0,1-.621-.076,6.321,6.321,0,0,0,2.205-.479,4.787,4.787,0,0,0,1.867-1.514,4.611,4.611,0,0,0-.169-5.51,4.79,4.79,0,0,0-1.956-1.4A6.324,6.324,0,0,0,451.32,365.776Z" transform="translate(-451.32 -365.655)"/></g><g transform="translate(16.764)"><path class="b" d="M385.091,300.071a5.644,5.644,0,0,1,.475,1.117,21.439,21.439,0,0,1,.749,3.4c.233,1.495.431,3.334.626,5.471s.377,4.574.72,7.246c.088.668.194,1.349.331,2.037a9.094,9.094,0,0,0,.61,2.038,7.411,7.411,0,0,0,1.384,1.71,10.889,10.889,0,0,0,6.384,2.959,8.982,8.982,0,0,0,4.987-.862,6.037,6.037,0,0,0,3.222-4.045,4.622,4.622,0,0,0-.19-2.69,4.745,4.745,0,0,0-1.753-2.118,5.293,5.293,0,0,0-2.67-.89,4.231,4.231,0,0,0-2.7.8,2.977,2.977,0,0,0-.916,1.081,2.227,2.227,0,0,0-.177,1.381,3.348,3.348,0,0,0,1.75,2.226,8.118,8.118,0,0,0,2.885.8,26.384,26.384,0,0,0,3,.208,46.91,46.91,0,0,0,5.893-.332c3.852-.431,7.569-1.049,11.16-1.088a21.887,21.887,0,0,1,9.936,1.877,11.635,11.635,0,0,1,3.7,2.762,8.525,8.525,0,0,1,1.92,3.794,10.239,10.239,0,0,1-1.1,7.12,12.032,12.032,0,0,1-3.753,4.006,14.06,14.06,0,0,1-3.1,1.582A9.619,9.619,0,0,1,427.3,342s.1-.042.289-.107.479-.166.85-.306a14.656,14.656,0,0,0,3.05-1.625,11.994,11.994,0,0,0,3.664-3.989,10.068,10.068,0,0,0,1.031-6.98,8.306,8.306,0,0,0-1.884-3.678,11.4,11.4,0,0,0-3.627-2.683,21.673,21.673,0,0,0-9.811-1.819c-3.561.047-7.263.668-11.129,1.105a47.162,47.162,0,0,1-5.933.339,26.682,26.682,0,0,1-3.041-.209,8.414,8.414,0,0,1-3-.835,3.672,3.672,0,0,1-1.916-2.454,2.563,2.563,0,0,1,.2-1.583,3.306,3.306,0,0,1,1.016-1.2,4.554,4.554,0,0,1,2.914-.858,5.617,5.617,0,0,1,2.837.947,5.066,5.066,0,0,1,1.869,2.268,4.935,4.935,0,0,1,.2,2.875,6.344,6.344,0,0,1-3.391,4.249,9.269,9.269,0,0,1-5.154.881,11.15,11.15,0,0,1-6.538-3.058,7.575,7.575,0,0,1-1.429-1.788,9.32,9.32,0,0,1-.621-2.1c-.135-.7-.238-1.384-.323-2.055-.33-2.686-.487-5.124-.673-7.261s-.356-3.975-.569-5.468a23.263,23.263,0,0,0-.686-3.4,7.754,7.754,0,0,0-.3-.85C385.125,300.171,385.091,300.071,385.091,300.071Z" transform="translate(-385.091 -300.071)"/></g><g transform="translate(2.043 33.987)"><path class="b" d="M413.03,408.945s-.006-.091-.008-.264,0-.434-.008-.766c0-.681-.009-1.674-.017-2.967-.008-2.6-.022-6.391-.037-11.211-.018-9.634-.043-23.364-.073-39.789l.144.144L362,354.114h-.005l.164-.165c-.009,20.219-.017,39.113-.024,55l-.14-.14,36.983.072,10.367.037,2.738.016c.621.005.95.015.95.015s-.307.011-.919.016l-2.712.016-10.336.037-37.072.072h-.14v-.141c-.007-15.884-.015-34.778-.024-55v-.165H362l51.033.02h.144v.144c-.03,16.464-.056,30.226-.073,39.882-.016,4.806-.029,8.588-.037,11.178-.008,1.281-.013,2.265-.017,2.94,0,.325-.006.573-.008.749S413.03,408.945,413.03,408.945Z" transform="translate(-361.826 -353.784)"/></g><g transform="translate(38.348 40.653)"><path class="b" d="M419.728,364.583a.263.263,0,1,1-.263-.263A.262.262,0,0,1,419.728,364.583Z" transform="translate(-419.203 -364.32)"/><g transform="translate(1.442)"><path class="b" d="M422.007,364.583a.263.263,0,1,1-.263-.263A.262.262,0,0,1,422.007,364.583Z" transform="translate(-421.482 -364.32)"/></g><g transform="translate(2.884)"><path class="b" d="M424.286,364.583a.263.263,0,1,1-.263-.263A.262.262,0,0,1,424.286,364.583Z" transform="translate(-423.761 -364.32)"/></g><g transform="translate(4.326)"><path class="b" d="M426.565,364.583a.263.263,0,1,1-.263-.263A.262.262,0,0,1,426.565,364.583Z" transform="translate(-426.04 -364.32)"/></g><g transform="translate(5.768)"><path class="b" d="M428.844,364.583a.263.263,0,1,1-.263-.263A.262.262,0,0,1,428.844,364.583Z" transform="translate(-428.319 -364.32)"/></g><g transform="translate(7.21)"><path class="b" d="M431.123,364.583a.263.263,0,1,1-.263-.263A.262.262,0,0,1,431.123,364.583Z" transform="translate(-430.598 -364.32)"/></g><g transform="translate(8.652)"><path class="b" d="M433.4,364.583a.263.263,0,1,1-.263-.263A.262.262,0,0,1,433.4,364.583Z" transform="translate(-432.877 -364.32)"/></g><g transform="translate(7.987 0.969)"><circle class="b" cx="0.263" cy="0.263" r="0.263"/></g><g transform="translate(6.512 0.969)"><circle class="b" cx="0.263" cy="0.263" r="0.263"/></g><g transform="translate(5.037 0.969)"><path class="b" d="M427.688,366.114a.263.263,0,1,1-.263-.263A.263.263,0,0,1,427.688,366.114Z" transform="translate(-427.163 -365.851)"/></g><g transform="translate(3.561 0.969)"><circle class="b" cx="0.263" cy="0.263" r="0.263"/></g><g transform="translate(2.086 0.969)"><circle class="b" cx="0.263" cy="0.263" r="0.263"/></g><g transform="translate(0.611 0.969)"><path class="b" d="M420.693,366.114a.263.263,0,1,1-.263-.263A.263.263,0,0,1,420.693,366.114Z" transform="translate(-420.168 -365.851)"/></g><g transform="translate(0 2.065)"><path class="b" d="M419.728,367.847a.263.263,0,1,1-.263-.263A.263.263,0,0,1,419.728,367.847Z" transform="translate(-419.203 -367.584)"/></g><g transform="translate(1.442 2.065)"><path class="b" d="M422.007,367.847a.263.263,0,1,1-.263-.263A.263.263,0,0,1,422.007,367.847Z" transform="translate(-421.482 -367.584)"/></g><g transform="translate(2.884 2.065)"><path class="b" d="M424.286,367.847a.263.263,0,1,1-.263-.263A.263.263,0,0,1,424.286,367.847Z" transform="translate(-423.761 -367.584)"/></g><g transform="translate(4.326 2.065)"><path class="b" d="M426.565,367.847a.263.263,0,1,1-.263-.263A.263.263,0,0,1,426.565,367.847Z" transform="translate(-426.04 -367.584)"/></g><g transform="translate(5.768 2.065)"><path class="b" d="M428.844,367.847a.263.263,0,1,1-.263-.263A.263.263,0,0,1,428.844,367.847Z" transform="translate(-428.319 -367.584)"/></g><g transform="translate(7.21 2.065)"><path class="b" d="M431.123,367.847a.263.263,0,1,1-.263-.263A.263.263,0,0,1,431.123,367.847Z" transform="translate(-430.598 -367.584)"/></g><g transform="translate(8.652 2.065)"><path class="b" d="M433.4,367.847a.263.263,0,1,1-.263-.263A.263.263,0,0,1,433.4,367.847Z" transform="translate(-432.877 -367.584)"/></g><g transform="translate(7.987 3.035)"><path class="b" d="M432.351,369.379a.263.263,0,1,1-.263-.263A.262.262,0,0,1,432.351,369.379Z" transform="translate(-431.826 -369.116)"/></g><g transform="translate(6.512 3.035)"><path class="b" d="M430.02,369.379a.263.263,0,1,1-.263-.263A.263.263,0,0,1,430.02,369.379Z" transform="translate(-429.495 -369.116)"/></g><g transform="translate(5.037 3.035)"><path class="b" d="M427.688,369.379a.263.263,0,1,1-.263-.263A.263.263,0,0,1,427.688,369.379Z" transform="translate(-427.163 -369.116)"/></g><g transform="translate(3.561 3.035)"><path class="b" d="M425.356,369.379a.263.263,0,1,1-.263-.263A.263.263,0,0,1,425.356,369.379Z" transform="translate(-424.831 -369.116)"/></g><g transform="translate(2.086 3.035)"><path class="b" d="M423.025,369.379a.262.262,0,1,1-.262-.263A.262.262,0,0,1,423.025,369.379Z" transform="translate(-422.5 -369.116)"/></g><g transform="translate(0.611 3.035)"><path class="b" d="M420.693,369.379a.263.263,0,1,1-.263-.263A.263.263,0,0,1,420.693,369.379Z" transform="translate(-420.168 -369.116)"/></g><g transform="translate(0 4.131)"><path class="b" d="M419.728,371.112a.263.263,0,1,1-.263-.263A.263.263,0,0,1,419.728,371.112Z" transform="translate(-419.203 -370.849)"/></g><g transform="translate(1.442 4.131)"><path class="b" d="M422.007,371.112a.263.263,0,1,1-.263-.263A.263.263,0,0,1,422.007,371.112Z" transform="translate(-421.482 -370.849)"/></g><g transform="translate(2.884 4.131)"><path class="b" d="M424.286,371.112a.263.263,0,1,1-.263-.263A.263.263,0,0,1,424.286,371.112Z" transform="translate(-423.761 -370.849)"/></g><g transform="translate(4.326 4.131)"><path class="b" d="M426.565,371.112a.263.263,0,1,1-.263-.263A.263.263,0,0,1,426.565,371.112Z" transform="translate(-426.04 -370.849)"/></g><g transform="translate(5.768 4.131)"><path class="b" d="M428.844,371.112a.263.263,0,1,1-.263-.263A.263.263,0,0,1,428.844,371.112Z" transform="translate(-428.319 -370.849)"/></g><g transform="translate(7.21 4.131)"><path class="b" d="M431.123,371.112a.263.263,0,1,1-.263-.263A.263.263,0,0,1,431.123,371.112Z" transform="translate(-430.598 -370.849)"/></g><g transform="translate(8.652 4.131)"><path class="b" d="M433.4,371.112a.263.263,0,1,1-.263-.263A.263.263,0,0,1,433.4,371.112Z" transform="translate(-432.877 -370.849)"/></g><g transform="translate(7.987 5.1)"><circle class="b" cx="0.263" cy="0.263" r="0.263"/></g><g transform="translate(6.512 5.1)"><circle class="b" cx="0.263" cy="0.263" r="0.263"/></g><g transform="translate(5.037 5.101)"><path class="b" d="M427.688,372.644a.263.263,0,1,1-.263-.263A.262.262,0,0,1,427.688,372.644Z" transform="translate(-427.163 -372.381)"/></g><g transform="translate(3.561 5.1)"><circle class="b" cx="0.263" cy="0.263" r="0.263"/></g><g transform="translate(2.086 5.1)"><circle class="b" cx="0.263" cy="0.263" r="0.263"/></g><g transform="translate(0.611 5.101)"><path class="b" d="M420.693,372.644a.263.263,0,1,1-.263-.263A.262.262,0,0,1,420.693,372.644Z" transform="translate(-420.168 -372.381)"/></g></g></g><g transform="translate(167.393 47.917)"><g transform="translate(3.687)"><path class="a" d="M375.553,271.294a3.182,3.182,0,0,1,1.028.18,5.772,5.772,0,0,1,2.494,1.63,10.792,10.792,0,0,1,2.205,4.176,40.966,40.966,0,0,1,1.389,6.115,77.191,77.191,0,0,1,.4,16.294,9.572,9.572,0,0,1-1.417,4.519,5.753,5.753,0,0,1-1.783,1.727,3.99,3.99,0,0,1-2.468.586,3.82,3.82,0,0,1-2.345-1.091,2.9,2.9,0,0,1-.692-1.148,2.454,2.454,0,0,1-.018-1.362,2.91,2.91,0,0,1,1.766-1.99,2.094,2.094,0,0,1,1.4,0,2.542,2.542,0,0,1,1.115.842,3.448,3.448,0,0,1,.614,2.624,7.2,7.2,0,0,1-.912,2.489,9.79,9.79,0,0,1-3.6,3.633,9.671,9.671,0,0,1-9.369.131,11.02,11.02,0,0,1-3.416-2.945,14.317,14.317,0,0,1-2.074-3.714,24.259,24.259,0,0,1-1.386-7.469c-.127-2.323,0-4.427-.227-6.247a10.406,10.406,0,0,0-.588-2.471,6.968,6.968,0,0,0-1.058-1.847,5.249,5.249,0,0,0-2.348-1.737,7.081,7.081,0,0,0-1.007-.242,3.251,3.251,0,0,1,1.028.178,5.222,5.222,0,0,1,2.426,1.719,7.034,7.034,0,0,1,1.1,1.87,10.51,10.51,0,0,1,.625,2.505c.251,1.843.135,3.951.277,6.258a24.149,24.149,0,0,0,1.408,7.383,14.073,14.073,0,0,0,2.048,3.633,10.73,10.73,0,0,0,3.331,2.856,9.369,9.369,0,0,0,9.063-.142,9.48,9.48,0,0,0,3.48-3.515,6.888,6.888,0,0,0,.871-2.373,3.121,3.121,0,0,0-.55-2.378,2.214,2.214,0,0,0-.967-.733,1.762,1.762,0,0,0-1.176,0A2.588,2.588,0,0,0,374.664,303a2.273,2.273,0,0,0,.628,2.2,3.5,3.5,0,0,0,2.142,1,3.669,3.669,0,0,0,2.274-.539,5.443,5.443,0,0,0,1.686-1.629,9.288,9.288,0,0,0,1.375-4.373,78.237,78.237,0,0,0-.331-16.229,41.554,41.554,0,0,0-1.334-6.094,10.777,10.777,0,0,0-2.124-4.145,5.847,5.847,0,0,0-2.42-1.654A6.745,6.745,0,0,0,375.553,271.294Z" transform="translate(-353.253 -271.293)"/></g><g transform="translate(0 9.155)"><rect class="a" width="21.021" height="4.005"/></g></g><g transform="translate(0 66.79)"><g transform="translate(9.268 31.686)"><rect class="b" width="27.418" height="59.018"/><g transform="translate(1.954 1.878)"><path class="g" d="M123.718,405.089s-.006-.089-.009-.255-.006-.418-.009-.733c0-.654-.011-1.6-.02-2.824-.01-2.468-.025-6.047-.043-10.543-.018-9-.044-21.663-.075-36.4l.156.157-22.936.008h0l.165-.165c-.018,19.718-.034,37.623-.046,50.759l-.119-.119,16.748.064,4.577.03,1.2.013c.271,0,.416.012.416.012s-.128.008-.392.013l-1.176.013-4.551.03-16.82.064h-.119v-.12c-.012-13.136-.028-31.041-.046-50.759v-.165h.169l22.936.008h.157v.156c-.03,14.783-.056,27.487-.075,36.509-.018,4.482-.033,8.048-.043,10.508-.009,1.209-.015,2.145-.02,2.792,0,.306-.008.543-.009.714S123.718,405.089,123.718,405.089Z" transform="translate(-100.613 -354.166)"/></g><g transform="translate(3.531 3.833)"><path class="g" d="M123.217,359.762c-.009-.009-.018-.221-.031-.616-.01-.421-.024-.989-.041-1.71l.072.073c-3.548.054-11.153.092-19.946.092h0c.073-.073-.165.164.164-.165h0v1.182c0,.389,0,.771,0,1.143l-.164-.164c5.58,0,10.537.037,14.125.07l4.244.049,1.16.023a3.21,3.21,0,0,1,.418.022,2.226,2.226,0,0,1-.375.022l-1.123.023-4.206.048c-3.579.034-8.6.067-14.243.071h-.164v-.164c0-.371,0-.754,0-1.143v-1.182h0c.329-.329.091-.091.165-.165h0c8.793,0,16.4.038,19.946.092h.074v.071c-.018.739-.031,1.321-.041,1.753A4.428,4.428,0,0,1,123.217,359.762Z" transform="translate(-103.105 -357.256)"/></g><g transform="translate(3.865 7.845)"><path class="g" d="M105.471,363.761c0,.09-.412.165-.92.165s-.919-.074-.919-.165.411-.165.919-.165S105.471,363.67,105.471,363.761Z" transform="translate(-103.632 -363.596)"/></g><g transform="translate(4.146 10.89)"><path class="g" d="M123.041,368.573c0,.091-4.246.165-9.482.165s-9.483-.074-9.483-.165,4.245-.164,9.483-.164S123.041,368.483,123.041,368.573Z" transform="translate(-104.076 -368.409)"/></g><g transform="translate(4.554 14.568)"><path class="g" d="M123.359,374.387c0,.091-4.172.165-9.318.165s-9.319-.073-9.319-.165,4.172-.165,9.319-.165S123.359,374.3,123.359,374.387Z" transform="translate(-104.722 -374.222)"/></g><g transform="translate(12.119 21.819)"><circle class="e" cx="1.509" cy="1.509" r="1.509"/></g><g transform="translate(5.342 23.094)"><path class="g" d="M110,387.861a12.4,12.4,0,0,1-4.034,0,12.442,12.442,0,0,1,4.034,0Z" transform="translate(-105.966 -387.696)"/></g><g transform="translate(17.784 22.705)"><path class="g" d="M129.47,387.246a11.288,11.288,0,0,1-3.84,0,11.243,11.243,0,0,1,3.84,0Z" transform="translate(-125.63 -387.081)"/></g></g><path class="b" d="M93.086,362.424a5.684,5.684,0,0,1-1.027-.189,8.921,8.921,0,0,1-2.714-1.257,11.6,11.6,0,0,1-3.273-3.412,19.706,19.706,0,0,1-2.387-5.8,23.663,23.663,0,0,1-.757-7.561,15.523,15.523,0,0,1,2.878-8.184,12.971,12.971,0,0,1,3.438-3.266,11.783,11.783,0,0,1,2.207-1.1,12.034,12.034,0,0,1,2.442-.582c1.672-.233,3.382-.2,5.094-.3A12.645,12.645,0,0,0,104,329.625a5.61,5.61,0,0,0,3.108-3.82,5.332,5.332,0,0,0-5.327-6.517,3.779,3.779,0,0,0-2.111.783,2.289,2.289,0,0,0-.884,1.909,3.061,3.061,0,0,0,2.822,2.726,4.638,4.638,0,0,0,3.618-1.626,8.686,8.686,0,0,0,1.75-3.435,29.838,29.838,0,0,0,.73-3.549,58.492,58.492,0,0,0,.335-10.951c-.065-1.282-.116-2.284-.151-2.984-.015-.329-.027-.586-.036-.776a1.583,1.583,0,0,1,0-.265,1.518,1.518,0,0,1,.035.263c.017.19.04.447.069.774.055.681.135,1.686.213,2.982a56.175,56.175,0,0,1-.232,10.99,29.835,29.835,0,0,1-.716,3.586,8.933,8.933,0,0,1-1.792,3.548A4.911,4.911,0,0,1,101.583,325a3.352,3.352,0,0,1-3.106-3,2.6,2.6,0,0,1,.99-2.165,4.091,4.091,0,0,1,2.287-.857,5.65,5.65,0,0,1,5.669,6.9,5.508,5.508,0,0,1-1.161,2.389,6.521,6.521,0,0,1-2.118,1.653,12.923,12.923,0,0,1-5.137,1.188c-1.729.1-3.429.067-5.069.294a11.774,11.774,0,0,0-2.378.563,11.518,11.518,0,0,0-2.146,1.062,12.676,12.676,0,0,0-3.362,3.18,15.279,15.279,0,0,0-2.851,8.024,23.579,23.579,0,0,0,.711,7.483,19.665,19.665,0,0,0,2.316,5.755,11.6,11.6,0,0,0,3.19,3.405,9.234,9.234,0,0,0,2.66,1.3c.326.1.579.158.75.19A1.618,1.618,0,0,1,93.086,362.424Z" transform="translate(-82.876 -301.121)"/></g><g transform="translate(0.868 6.926)"><rect class="b" width="64.922" height="44.581"/><g transform="translate(27.442 38.503)"><rect class="b" width="8.84" height="16.817"/></g></g></g><g transform="translate(69.736 210.556)"><g transform="translate(0)"><g transform="translate(0 1.706)"><path class="b" d="M94.46,292.613v6.053h33.495V388.8h3.083V298.666l139.9.69V388.8h3.022V299.188l21.59.173v-7.27Z" transform="translate(-94.46 -292.091)"/></g><g transform="translate(20.178 7.104)"><path class="b" d="M127.607,300.622l13.208,9.511-1.148,1.1L126.35,301.2Z" transform="translate(-126.35 -300.622)"/></g><g transform="translate(176.62 7.991)"><path class="b" d="M388.918,302.024l-15.325,10.913,1.148,1.1L390.175,302.6Z" transform="translate(-373.593 -302.024)"/></g><g transform="translate(48.711)"><rect class="b" width="34.621" height="2.547"/></g></g></g></g></svg>