<svg xmlns="http://www.w3.org/2000/svg" width="494.947" height="333.249" viewBox="0 0 494.947 333.249"><defs><style>.a,.b,.c,.d,.e,.f,.j,.o,.r{fill:none;}.a,.b,.c,.d,.e,.f,.h,.i,.n,.o,.p,.q,.r{stroke:#263238;}.a,.b,.c,.d,.e,.f,.h,.i,.j,.n,.o,.p,.q,.r{stroke-linecap:round;stroke-linejoin:round;}.b{stroke-dasharray:3.667 3.667;}.c{stroke-dasharray:2.895 2.895;}.d{stroke-dasharray:2.727 2.727;}.e{stroke-dasharray:2.933 2.933;}.f{stroke-dasharray:2.949 2.949;}.g{fill:#f0ae00;}.h,.n,.p{fill:#fff;}.i,.k,.q{fill:#263238;}.j{stroke:#fff;}.l{fill:#6027b6;}.m{fill:#b2b2b2;}.n,.o{stroke-width:0.734px;}.p,.q,.r{stroke-width:0.381px;}</style></defs><g transform="translate(0.5 0.5)"><g transform="translate(172.881 124.397)"><g transform="translate(171.967)"><line class="a" y2="1.372" transform="translate(53.054)"/><line class="b" y2="5.031" transform="translate(53.054 4.726)"/><path class="a" d="M600.232,255.555v1.372H598.86" transform="translate(-547.178 -244.121)"/><line class="c" x1="46.338" transform="translate(2.696 12.806)"/><path class="a" d="M543.732,257.055H542.36v1.372" transform="translate(-542.36 -244.249)"/><line class="d" y2="23.699" transform="translate(0 16.673)"/><line class="a" y2="1.372" transform="translate(0 41.62)"/></g><g transform="translate(0 1.829)"><line class="a" y2="1.372"/><line class="e" y2="36.223" transform="translate(0 4.055)"/><path class="a" d="M354.36,290.555v1.372h1.372" transform="translate(-354.36 -248.935)"/><line class="f" x2="101.146" transform="translate(4.069 42.992)"/><line class="a" x2="1.372" transform="translate(106.564 42.992)"/></g></g><rect class="g" width="199.408" height="128.975" transform="translate(114.34 5.484)"/><path class="g" d="M646.024,131.055A35.779,35.779,0,1,0,681.8,166.834,35.82,35.82,0,0,0,646.024,131.055Zm33.845,34.82H664.249a63.638,63.638,0,0,0-2.531-17.38,35.766,35.766,0,0,0,8.252-5.578A33.755,33.755,0,0,1,679.87,165.875Zm-33.845,34.82c-4.231,0-8.264-3.433-11.357-9.666a39.837,39.837,0,0,1-1.983-4.808,33.975,33.975,0,0,1,26.68,0,39.966,39.966,0,0,1-1.983,4.808C654.289,197.261,650.255,200.694,646.024,200.694Zm0-19.121a35.725,35.725,0,0,0-13.93,2.813,61.863,61.863,0,0,1-2.375-16.592H662.33a61.9,61.9,0,0,1-2.375,16.592A35.725,35.725,0,0,0,646.024,181.573Zm-16.306-15.7a61.876,61.876,0,0,1,2.371-16.577,35.913,35.913,0,0,0,27.87,0,61.908,61.908,0,0,1,2.371,16.577Zm16.306-32.9c4.231,0,8.265,3.432,11.357,9.665a39.849,39.849,0,0,1,1.988,4.822,33.968,33.968,0,0,1-26.69,0,40.009,40.009,0,0,1,1.989-4.822C637.76,136.406,641.793,132.974,646.024,132.974Zm22.545,8.62a33.835,33.835,0,0,1-7.452,5.057,41.537,41.537,0,0,0-2.017-4.864,23.681,23.681,0,0,0-6.117-8.093A33.787,33.787,0,0,1,668.569,141.594Zm-35.621.192a41.549,41.549,0,0,0-2.018,4.864,33.851,33.851,0,0,1-7.451-5.057,33.787,33.787,0,0,1,15.586-7.9A23.682,23.682,0,0,0,632.948,141.786Zm-10.87,1.131a35.743,35.743,0,0,0,8.252,5.578,63.647,63.647,0,0,0-2.531,17.38H612.179A33.75,33.75,0,0,1,622.079,142.917Zm-9.9,24.877H627.8a63.619,63.619,0,0,0,2.536,17.393,35.75,35.75,0,0,0-8.248,5.572A33.752,33.752,0,0,1,612.179,167.794Zm11.31,24.288a33.839,33.839,0,0,1,7.448-5.051,41.5,41.5,0,0,0,2.012,4.851,23.677,23.677,0,0,0,6.117,8.092A33.78,33.78,0,0,1,623.488,192.082Zm35.612-.2a41.476,41.476,0,0,0,2.012-4.851,33.839,33.839,0,0,1,7.448,5.051,33.784,33.784,0,0,1-15.577,7.891A23.676,23.676,0,0,0,659.1,191.882Zm10.861-1.122a35.8,35.8,0,0,0-8.248-5.572,63.624,63.624,0,0,0,2.536-17.393H679.87A33.756,33.756,0,0,1,669.961,190.759Z" transform="translate(-203.301 -109.106)"/><rect class="h" width="197.206" height="126.212" transform="translate(123.699)"/><rect class="i" width="197.206" height="14.059" transform="translate(123.699 112.153)"/><rect class="h" width="197.206" height="4.101" transform="translate(123.699 117.132)"/><g transform="translate(250.083 84.102)"><g transform="translate(1.728 69.13)"><path class="i" d="M545.973,462.616l-8.053-82.257-6.285,1.378,11.377,80.878Z" transform="translate(-448.408 -283.599)"/><path class="i" d="M445.358,462.616l11.377-80.878-6.284-1.378L442.4,462.616Z" transform="translate(-440.797 -283.599)"/><path class="i" d="M452.852,381.268l-4.04-96.186a10.081,10.081,0,0,1,10.071-10.5h67.394a10.081,10.081,0,0,1,10.05,10.863l-7.46,95.827Z" transform="translate(-441.344 -274.578)"/><rect class="h" width="89.44" height="21.082" transform="translate(4.472 85.607)"/><path class="i" d="M452.157,386.986h-6.77l-4.739-39.6a5.754,5.754,0,0,1,5.754-5.754h0a5.754,5.754,0,0,1,5.754,5.754Z" transform="translate(-440.648 -280.296)"/><path class="i" d="M536.332,386.986h6.77l4.739-39.6a5.754,5.754,0,0,0-5.755-5.754h0a5.754,5.754,0,0,0-5.754,5.754Z" transform="translate(-448.808 -280.296)"/></g><path class="h" d="M463,309.773l3.194,32.582h50.47l3.194-32.582Z" transform="translate(-440.826 -208.45)"/><path class="h" d="M481.564,251.409l-26.926,15.1-14.6,44.54H545.23S528.37,267.765,525.1,265.5s-29.19-14.344-29.19-14.344Z" transform="translate(-438.869 -203.451)"/><path class="h" d="M483.866,247.073s-2.265,1.761-2.768,3.523-2.265,16.105-2.265,16.105,9.562-6.291,12.33-6.795,16.357,7.8,16.357,7.8-3.272-16.356-5.788-19.88S488.144,243.046,483.866,247.073Z" transform="translate(-442.177 -202.889)"/><path class="h" d="M485.986,253.633s6.794,22.9,7.3,20.384,6.542-19.628,6.542-19.628S488.5,255.395,485.986,253.633Z" transform="translate(-442.787 -203.662)"/><g transform="translate(37.969 21.888)"><path class="h" d="M480.268,235.161s1.6,8.818,2.939,12.292,6.146,10.688,9.887,9.887,9.887-8.552,10.688-11.491,1.871-15.232,1.871-17.9-2.672-6.68-10.956-4.275S480.535,229.816,480.268,235.161Z" transform="translate(-480.268 -222.931)"/><path class="i" d="M485.985,253.317a8.2,8.2,0,0,1,8.27-3.243c5.57.978,7.111,2.963,7.111,2.963s-3.161,6.913-7.7,7.7S485.813,255.177,485.985,253.317Z" transform="translate(-480.755 -225.234)"/><path class="j" d="M490.06,253.543s2.568,1.383,7.309,0" transform="translate(-481.103 -225.542)"/><path class="k" d="M488.154,241.757c0,1.008-.408,1.825-.912,1.825s-.912-.817-.912-1.825.408-1.824.912-1.824S488.154,240.75,488.154,241.757Z" transform="translate(-480.785 -224.381)"/><path class="k" d="M500.212,241.757c0,1.008-.409,1.825-.913,1.825s-.912-.817-.912-1.825.409-1.824.912-1.824S500.212,240.75,500.212,241.757Z" transform="translate(-481.813 -224.381)"/><path class="h" d="M495.656,241.383l.214,6.869h-3.255" transform="translate(-481.321 -224.505)"/><path class="h" d="M496.665,238.408s2.654-1.658,4.975-.166" transform="translate(-481.666 -224.184)"/><path class="h" d="M491.5,238.559a6.906,6.906,0,0,0-6.8-.5" transform="translate(-480.646 -224.168)"/></g><path class="a" d="M473.069,225.7l1.424-11.87a16.829,16.829,0,0,1,10.01-13.433h0a16.828,16.828,0,0,1,12.724-.276l.174.067a16.828,16.828,0,0,1,10.8,15.377l.192,9.579" transform="translate(-441.685 -199.003)"/><path class="h" d="M476.849,238.865h0a2.862,2.862,0,0,1-3.434-2.141l-1.292-5.574a2.862,2.862,0,0,1,2.141-3.434h0a2.861,2.861,0,0,1,3.433,2.141l1.292,5.575A2.861,2.861,0,0,1,476.849,238.865Z" transform="translate(-441.598 -201.445)"/><path class="h" d="M510.525,238.991h0a2.861,2.861,0,0,1-2.644-3.063l.419-5.707a2.86,2.86,0,0,1,3.062-2.644h0a2.861,2.861,0,0,1,2.644,3.062l-.419,5.707A2.862,2.862,0,0,1,510.525,238.991Z" transform="translate(-444.654 -201.439)"/><path class="i" d="M500.134,224.734a97.354,97.354,0,0,1-10.688,8.284c-6.681,4.543-12.56,2.673-12.293,1.336a13.877,13.877,0,0,1,1.336-3.206s-2.4.8-2.939-3.741-1.6-14.7,3.473-18.705,16.568-5.612,21.645-4.008,7.215,9.085,7.215,12.559a96.926,96.926,0,0,1-1.069,10.421s1.069,1.6-1.871,2.939-5.077,0-4.542-2.4S500.134,224.734,500.134,224.734Z" transform="translate(-441.856 -199.436)"/><path class="h" d="M444.463,303.391s3.019-1.259,8.3.755,15.853,5.033,17.363,5.033,10.066.756,10.066.756l.252,5.536s-38.25.755-40.515,0S438.424,307.417,444.463,303.391Z" transform="translate(-438.759 -207.872)"/><path class="h" d="M474.258,312.565s6.714-5.781,8.765-7.086,7.833,7.833,8.019,8.578-1.492,1.12-1.492,1.12-4.476-.933-5.408-1.12-1.865.746-4.29.746h-6.713" transform="translate(-441.691 -208.073)"/><path class="h" d="M547.922,303.391s-3.019-1.259-8.3.755-15.853,5.033-17.363,5.033-10.066.756-10.066.756l-.251,5.536s38.25.755,40.515,0S553.961,307.417,547.922,303.391Z" transform="translate(-445 -207.872)"/><path class="h" d="M517.87,312.565s-6.714-5.781-8.766-7.086-7.833,7.833-8.019,8.578,1.492,1.12,1.492,1.12,4.476-.933,5.409-1.12,1.865.746,4.289.746h6.714" transform="translate(-444.073 -208.073)"/><rect class="h" width="48.553" height="21.082" transform="translate(25.365 133.905)"/><path class="a" d="M471.379,343.995s14.055,3.834,16.61,14.056" transform="translate(-441.541 -211.368)"/><path class="a" d="M514.648,345.391s-11.5-.638-15.333,12.138" transform="translate(-443.924 -211.487)"/><g transform="translate(4.828 129.63)"><path class="h" d="M475.084,357.109c.486-7.719-4.71-14.91-12.336-16.2a11.883,11.883,0,0,0-7.138.888c-9.583,4.472-.227,109.015-.227,109.015h7.666S473.077,388.993,475.084,357.109Z" transform="translate(-444.656 -340.719)"/><path class="h" d="M453.925,454.26l-2.264,9.7-7.624,4.852h19.406l.323-14.555Z" transform="translate(-444.037 -350.402)"/><path class="h" d="M452.371,464.739s4.852-3.119,8.317,0" transform="translate(-444.748 -351.178)"/></g><g transform="translate(67.204 129.63)"><path class="h" d="M512.261,357.109c-.487-7.719,4.71-14.91,12.336-16.2a11.88,11.88,0,0,1,7.137.888c9.583,4.472.228,109.015.228,109.015h-7.666S514.267,388.993,512.261,357.109Z" transform="translate(-512.23 -340.719)"/><path class="h" d="M533.8,454.26l2.264,9.7,7.624,4.852H524.283l-.323-14.555Z" transform="translate(-513.23 -350.402)"/><path class="h" d="M536.419,464.739s-4.852-3.119-8.317,0" transform="translate(-513.583 -351.178)"/></g></g><path class="l" d="M2.5,0H60.133a2.5,2.5,0,0,1,2.5,2.5V37.195a0,0,0,0,1,0,0H0a0,0,0,0,1,0,0V2.5A2.5,2.5,0,0,1,2.5,0Z" transform="translate(269.868 154.864)"/><g transform="translate(360.669 154.051)"><path class="a" d="M560.91,276.588a6.368,6.368,0,0,1,1.079-1.114" transform="translate(-559.763 -275.474)"/><path class="a" d="M563.877,289.686s2.8-2.933-1.591-5.723c-2.661-1.694-2.976-3.775-2.366-5.507" transform="translate(-559.656 -275.728)"/><path class="a" d="M569.385,283.662s3.4,1.594,2.337,6.376" transform="translate(-560.486 -276.172)"/><rect class="h" width="14.309" height="21.143" transform="translate(2.253 16.256)"/><g transform="translate(12.82 20.201)"><path class="h" d="M576.773,311.878h-1.495a1.18,1.18,0,0,1,0-2.36h1.495a2.239,2.239,0,0,0,2.236-2.236v-5.126a2.239,2.239,0,0,0-2.236-2.236h-1.922a1.18,1.18,0,1,1,0-2.36h1.922a4.6,4.6,0,0,1,4.6,4.6v5.126A4.6,4.6,0,0,1,576.773,311.878Z" transform="translate(-573.671 -297.559)"/></g></g><rect class="i" width="12.716" height="18.096" transform="translate(204.495 173.603)"/><g transform="translate(164.289 191.398)"><g transform="translate(1.864 11.098)"><path class="i" d="M616.94,458.188,609.5,328.435h-6.355l10.9,129.753Z" transform="translate(-368.849 -328.435)"/><path class="i" d="M642.5,458.188l-7.442-129.753h-6.367l10.9,129.753Z" transform="translate(-371.028 -328.435)"/><path class="i" d="M378.462,458.188l9.274-129.753h-6.342l-5.805,129.753Z" transform="translate(-349.443 -328.435)"/><path class="i" d="M349.866,458.188l9.274-129.753h-6.33L347,458.188Z" transform="translate(-347.005 -328.435)"/></g><rect class="h" width="270.519" height="11.35" transform="translate(3.523 3.777)"/><rect class="i" width="270.519" height="3.893" transform="translate(3.523 3.777)"/><rect class="h" width="277.565" height="4.327"/></g><g transform="translate(336.719)"><rect class="h" width="81.268" height="52.012"/><rect class="i" width="81.268" height="5.794" transform="translate(0 46.218)"/><rect class="h" width="81.268" height="1.69" transform="translate(0 48.27)"/></g><g transform="translate(336.719 68.46)"><rect class="h" width="81.268" height="52.012"/><rect class="i" width="81.268" height="5.794" transform="translate(0 46.218)"/><rect class="h" width="81.268" height="1.69" transform="translate(0 48.27)"/></g><g transform="translate(76.647 142.257)"><rect class="m" width="44.622" height="53.659" transform="translate(0 7.908)"/><g transform="translate(4.801)"><rect class="k" width="3.954" height="13.556"/><rect class="k" width="3.954" height="13.556" transform="translate(15.533)"/><rect class="k" width="3.954" height="13.556" transform="translate(31.066)"/></g></g><g transform="translate(359.696 5.179)"><path class="n" d="M575.277,135.086H558.592V115.458l2.85-2.736h13.834Z" transform="translate(-558.592 -112.722)"/><path class="k" d="M558.592,116.117h5.342l-2.159-2.24v1.68h-3.13l-.053.084Z" transform="translate(-558.592 -112.82)"/><line class="o" x2="10.787" transform="translate(3.144 6.001)"/><line class="o" x2="10.787" transform="translate(3.144 8.716)"/><line class="o" x2="10.787" transform="translate(3.144 11.432)"/><line class="o" x2="10.787" transform="translate(3.144 14.147)"/><line class="o" x2="10.787" transform="translate(3.144 16.862)"/></g><g transform="translate(380.824 19.637)"><path class="n" d="M598.375,150.892H581.69V131.264l2.85-2.736h13.834Z" transform="translate(-581.69 -128.527)"/><path class="k" d="M581.69,131.922h5.342l-2.159-2.24v1.68h-3.13l-.053.084Z" transform="translate(-581.69 -128.626)"/><line class="o" x2="10.787" transform="translate(3.144 6.001)"/><line class="o" x2="10.787" transform="translate(3.144 8.716)"/><line class="o" x2="10.787" transform="translate(3.144 11.432)"/><line class="o" x2="10.787" transform="translate(3.144 14.147)"/><line class="o" x2="10.787" transform="translate(3.144 16.862)"/></g><g transform="translate(86.568 223.459)"><path class="g" d="M264.073,374.256c1.928.842,6.646.735,6.65.735.049,0-1.014-3.088-1.1-3.275-1.035-2.165-4.307-5.741-6.971-5.38a3.181,3.181,0,0,0-2.553,3.985C260.538,372.168,262.43,373.538,264.073,374.256Z" transform="translate(-259.999 -352.629)"/><path class="g" d="M265.738,386.645c2,.292,6.211-.929,6.545-1.028a56.352,56.352,0,0,0,2.554,7.065c.579,1.341,1.2,2.674,1.848,4-.384-.562-.732-1.062-.788-1.127-1.571-1.815-5.672-4.4-8.145-3.348a3.18,3.18,0,0,0-1.41,4.518c.913,1.663,3.1,2.485,4.875,2.743,1.8.263,5.411-.706,6.363-.975.252.507.5,1.015.753,1.521,1.218,2.428,2.446,4.845,3.577,7.253.4.848.76,1.7,1.126,2.547-.342-.5-.634-.917-.685-.977-1.57-1.814-5.671-4.4-8.145-3.348a3.181,3.181,0,0,0-1.41,4.519c.915,1.663,3.1,2.485,4.875,2.743,1.718.251,5.058-.614,6.191-.928.348.881.7,1.763.994,2.633.189.6.414,1.161.57,1.772l.5,1.788c.275,1.148.567,2.332.807,3.459.174.782.325,1.531.478,2.285-.387-.849-1.181-2.5-1.262-2.625-1.277-2.032-4.94-5.207-7.544-4.543a3.181,3.181,0,0,0-2.077,4.253c.651,1.781,2.689,2.925,4.4,3.449,1.887.577,6.065.05,6.587-.019.251,1.249.483,2.465.682,3.617.448,2.542.787,4.82,1.044,6.748h1.762c-.307-1.995-.709-4.371-1.24-7.041-.249-1.269-.541-2.619-.853-4a34.525,34.525,0,0,0,3.675-1.728c1.375,1.489,4.9,3.233,5.357,3.455-.48,1.179-.958,2.322-1.426,3.393-.975,2.243-1.9,4.232-2.718,5.925h1.9c.7-1.56,1.475-3.336,2.28-5.3.493-1.2,1-2.484,1.5-3.811.506.106,4.642.946,6.57.51,1.748-.4,3.866-1.384,4.649-3.113a3.18,3.18,0,0,0-1.755-4.4c-2.547-.856-6.436,2.037-7.861,3.969-.084.113-.858,1.452-1.333,2.3.2-.542.405-1.068.607-1.63.407-1.108.78-2.227,1.185-3.427l.532-1.778c.19-.591.316-1.239.478-1.862.347-1.454.627-2.945.876-4.454.971.353,4.438,1.56,6.235,1.433s4.03-.782,5.066-2.373a3.181,3.181,0,0,0-1.068-4.611c-2.388-1.231-6.671,1.04-8.371,2.732-.106.106-1.19,1.458-1.772,2.212.143-.908.29-1.813.4-2.737.331-2.665.582-5.372.846-8.071.08-.828.17-1.65.256-2.475.345.13,4.435,1.653,6.447,1.511,1.788-.125,4.031-.782,5.067-2.373a3.18,3.18,0,0,0-1.069-4.61c-2.388-1.232-6.67,1.039-8.372,2.732-.128.127-1.685,2.075-2.057,2.59.192-1.816.4-3.623.678-5.4a56.106,56.106,0,0,1,1.549-7.1c.16.061,4.423,1.669,6.483,1.525,1.788-.125,4.032-.783,5.067-2.373a3.181,3.181,0,0,0-1.068-4.611c-2.389-1.231-6.671,1.039-8.372,2.732-.133.133-1.807,2.229-2.084,2.631.04-.134.066-.279.108-.413a40.994,40.994,0,0,1,2.811-6.717c.612-1.2,1.263-2.305,1.92-3.369.764.381,4.27,2.083,6.139,2.158,1.791.071,4.093-.335,5.3-1.8a3.181,3.181,0,0,0-.555-4.7c-2.239-1.486-6.744.3-8.621,1.8-.1.081-1.047,1.024-1.727,1.72.3-.477.609-.973.909-1.423,1.124-1.693,2.258-3.174,3.273-4.478.584-.736,1.125-1.39,1.638-2,.944-.016,4.747-.133,6.409-.913,1.622-.762,3.478-2.183,3.87-4.039a3.181,3.181,0,0,0-2.659-3.916c-2.672-.287-5.848,3.374-6.824,5.567-.084.189-1.064,3.3-1.014,3.3h.058c-.507.574-1.042,1.2-1.614,1.887-1.046,1.283-2.215,2.744-3.379,4.419a56.437,56.437,0,0,0-3.505,5.583,41.484,41.484,0,0,0-2.994,6.74c-.009.027-.015.057-.024.084.014-.787-.021-2.989-.043-3.158-.309-2.38-2.3-6.8-4.947-7.287a3.181,3.181,0,0,0-3.668,2.991c-.155,1.891,1.217,3.783,2.554,4.978,1.507,1.346,5.692,2.651,6.025,2.754a56.411,56.411,0,0,0-1.768,7.3c-.256,1.438-.47,2.894-.666,4.357-.01-.681-.024-1.29-.035-1.375-.309-2.38-2.3-6.8-4.947-7.286a3.18,3.18,0,0,0-3.668,2.991c-.155,1.891,1.217,3.783,2.553,4.978,1.357,1.211,4.9,2.395,5.844,2.7-.069.562-.145,1.122-.211,1.685-.322,2.7-.632,5.39-1.017,8.021-.134.929-.3,1.837-.466,2.746-.009-.6-.023-1.114-.033-1.191-.308-2.381-2.3-6.8-4.945-7.287a3.182,3.182,0,0,0-3.669,2.992c-.156,1.89,1.217,3.783,2.553,4.977,1.294,1.156,4.557,2.279,5.676,2.641-.2.927-.392,1.855-.623,2.744-.172.6-.3,1.2-.5,1.793s-.381,1.184-.57,1.766c-.4,1.11-.814,2.258-1.235,3.331-.287.748-.574,1.455-.862,2.169.144-.921.391-2.732.4-2.885a12.349,12.349,0,0,0-1.657-6.008,3.7,3.7,0,0,0-.044-.7,3.18,3.18,0,0,0-3.888-2.7c-2.6.691-4.245,5.25-4.367,7.647-.008.141.085,1.684.159,2.656-.131-.565-.251-1.115-.393-1.695-.273-1.148-.578-2.286-.9-3.513q-.265-.88-.538-1.777c-.167-.6-.419-1.206-.628-1.817-.513-1.4-1.1-2.8-1.727-4.2,1.006-.241,4.563-1.148,5.991-2.245s2.931-2.876,2.917-4.773a3.18,3.18,0,0,0-3.435-3.256c-2.672.29-4.991,4.546-5.476,6.9-.029.146-.187,1.872-.257,2.822-.381-.836-.759-1.672-1.173-2.505-1.194-2.4-2.477-4.8-3.748-7.2-.39-.734-.768-1.47-1.151-2.205.359-.082,4.61-1.068,6.211-2.3,1.421-1.091,2.93-2.877,2.916-4.774a3.179,3.179,0,0,0-3.435-3.255c-2.672.29-4.991,4.546-5.475,6.9-.037.177-.261,2.66-.287,3.294-.841-1.619-1.665-3.242-2.412-4.875a55.989,55.989,0,0,1-2.623-6.773c.167-.038,4.609-1.048,6.248-2.305,1.422-1.091,2.931-2.877,2.917-4.774a3.18,3.18,0,0,0-3.436-3.255c-2.672.29-4.99,4.546-5.475,6.9-.038.185-.278,2.857-.287,3.344-.041-.134-.1-.269-.139-.4a41.088,41.088,0,0,1-1.359-7.153c-.15-1.335-.219-2.619-.257-3.869.846-.1,4.711-.618,6.311-1.587,1.533-.928,3.229-2.536,3.424-4.424a3.182,3.182,0,0,0-3.057-3.614c-2.687-.005-5.46,3.971-6.2,6.254-.04.124-.31,1.432-.492,2.387-.009-.565-.029-1.148-.027-1.689,0-2.032.132-3.894.259-5.54.081-.937.171-1.782.265-2.57.778-.535,3.886-2.729,4.842-4.3.933-1.531,1.7-3.739,1-5.5a3.18,3.18,0,0,0-4.378-1.8c-2.388,1.234-3.016,6.041-2.622,8.407.035.2.937,3.342.977,3.316l.047-.033c-.1.758-.209,1.572-.3,2.463-.164,1.648-.333,3.511-.381,5.551a56.3,56.3,0,0,0,.157,6.59,41.483,41.483,0,0,0,1.22,7.273c.008.027.019.056.027.084-.423-.665-1.668-2.482-1.779-2.611-1.57-1.816-5.671-4.4-8.145-3.349a3.181,3.181,0,0,0-1.41,4.519C261.778,385.564,263.965,386.386,265.738,386.645Z" transform="translate(-260.037 -351.353)"/><path class="g" d="M316.009,375.014c.041.026.858-3.136.886-3.341.331-2.376-.427-7.164-2.847-8.333a3.179,3.179,0,0,0-4.327,1.916c-.648,1.783.174,3.97,1.148,5.475C312.013,372.5,316.006,375.013,316.009,375.014Z" transform="translate(-264.22 -352.35)"/><path class="h" d="M307.233,467.616H281.448l-3.223-28.636h32.231Z" transform="translate(-261.554 -358.826)"/><g transform="translate(17.262 85.399)"><path class="k" d="M278.87,444.715l.312,2.774h30.426l.312-2.774Z" transform="translate(-278.87 -444.715)"/><path class="k" d="M308.985,454.162l.312-2.775H279.621l.312,2.775Z" transform="translate(-278.934 -445.284)"/></g></g><g transform="translate(0 332.249)"><line class="a" x1="22.868"/><line class="a" x1="425.343" transform="translate(41.162)"/><line class="a" x1="14.635" transform="translate(479.311)"/></g><g transform="translate(147.596 19.483)"><path class="m" d="M344.917,146.559h-18.2v-18.2h18.2Zm-16.654-1.546h15.108V129.9H328.263Z" transform="translate(-326.717 -128.359)"/><g transform="translate(21.556 2.573)"><rect class="k" width="45.117" height="1.546"/></g><g transform="translate(21.556 8.327)"><rect class="m" width="45.117" height="1.546"/></g><g transform="translate(21.556 14.081)"><rect class="m" width="31.714" height="1.546"/></g><g transform="translate(2.792 3.44)"><path class="k" d="M335.613,143.735l-5.5-3.7a.773.773,0,0,1,.863-1.283L335.2,141.6l6.269-9.143a.773.773,0,1,1,1.274.874Z" transform="translate(-329.769 -132.12)"/></g></g><g transform="translate(147.596 42.699)"><g transform="translate(0 0)"><path class="m" d="M344.917,171.941h-18.2v-18.2h18.2ZM328.263,170.4h15.108V155.286H328.263Z" transform="translate(-326.717 -153.74)"/></g><g transform="translate(21.556 2.573)"><rect class="k" width="45.117" height="1.546"/></g><g transform="translate(21.556 8.328)"><rect class="m" width="45.117" height="1.546"/></g><g transform="translate(21.556 14.082)"><rect class="m" width="31.714" height="1.546"/></g><g transform="translate(2.792 3.441)"><path class="k" d="M335.613,169.117l-5.5-3.7a.773.773,0,1,1,.863-1.283l4.231,2.844,6.269-9.142a.772.772,0,1,1,1.274.874Z" transform="translate(-329.769 -157.502)"/></g></g><g transform="translate(230.335 19.483)"><path class="m" d="M435.37,146.559h-18.2v-18.2h18.2Zm-16.654-1.546h15.108V129.9H418.716Z" transform="translate(-417.17 -128.359)"/><g transform="translate(21.556 2.573)"><rect class="k" width="45.117" height="1.546"/></g><g transform="translate(21.556 8.327)"><rect class="m" width="45.117" height="1.546"/></g><g transform="translate(21.556 14.081)"><rect class="m" width="31.714" height="1.546"/></g><g transform="translate(2.792 3.44)"><path class="k" d="M426.066,143.735l-5.5-3.7a.773.773,0,0,1,.863-1.283l4.231,2.845,6.269-9.143a.773.773,0,1,1,1.274.874Z" transform="translate(-420.222 -132.12)"/></g></g><g transform="translate(230.335 42.699)"><g transform="translate(0 0)"><path class="m" d="M435.37,171.941h-18.2v-18.2h18.2ZM418.716,170.4h15.108V155.286H418.716Z" transform="translate(-417.17 -153.74)"/></g><g transform="translate(21.556 2.573)"><rect class="k" width="45.117" height="1.546"/></g><g transform="translate(21.556 8.328)"><rect class="m" width="45.117" height="1.546"/></g><g transform="translate(21.556 14.082)"><rect class="m" width="31.714" height="1.546"/></g><g transform="translate(2.792 3.441)"><path class="k" d="M426.066,169.117l-5.5-3.7a.773.773,0,1,1,.863-1.283l4.231,2.844,6.269-9.142a.772.772,0,0,1,1.274.874Z" transform="translate(-420.222 -157.502)"/></g></g><g transform="translate(191.711 72.44)"><path class="m" d="M393.145,204.453h-18.2v-18.2h18.2Zm-16.654-1.546H391.6V187.8H376.491Z" transform="translate(-374.945 -186.253)"/><g transform="translate(21.556 2.573)"><rect class="k" width="45.117" height="1.546"/></g><g transform="translate(21.556 8.327)"><rect class="m" width="45.117" height="1.546"/></g><g transform="translate(21.556 14.082)"><rect class="m" width="31.714" height="1.546"/></g><g transform="translate(2.792 3.441)"><path class="k" d="M383.841,201.629l-5.5-3.7a.773.773,0,1,1,.863-1.282l4.231,2.844,6.269-9.142a.773.773,0,0,1,1.275.874Z" transform="translate(-377.997 -190.015)"/></g></g><g transform="translate(364.431 70.194)"><path class="k" d="M580.606,190.374s.434.236.986-.631a4.394,4.394,0,0,0,0-4.1c-.788-1.42-2.681-1.379-3.706-1.34s-1.616-1.183-4.257.039a4.8,4.8,0,0,0-3.075,4.573c-.118,1.538.788,2.956.276,3.824s-3.036,1.183-3.548,3.074.631,2.957.592,3.43-.631,1.183-1.7,1.734-1.97,3.587.315,5.243,5.007,1.853,8.082.2,5.2-4.731,5.441-6.426-.434-2.169.512-2.838,2.089-1.853,1.5-3.273-1.577-2.483-1.577-2.838A1.692,1.692,0,0,1,580.606,190.374Z" transform="translate(-563.88 -183.798)"/><path class="k" d="M570.626,216.907a12.119,12.119,0,0,0-1.586,5.688,31.953,31.953,0,0,0,1.2,8.64h13.016a35.55,35.55,0,0,0,.6-8.422,15.664,15.664,0,0,0-1.094-4.7l-1.039-2.352-10.774.274Z" transform="translate(-564.216 -186.523)"/><path class="p" d="M575.174,193.968s-.039,3.863-.2,4.336-.867,1.183-2.878,2.05c0,0,1.3,8.24,1.537,10.684s.237,4.06.237,4.06a30.622,30.622,0,0,0,4.337.355,9.5,9.5,0,0,0,3.115-.946l-.513-14.587-2.207-1.3-.119-2.562s-2.4-2.287-2.68-2.444S575.174,193.968,575.174,193.968Z" transform="translate(-564.479 -184.632)"/><path class="q" d="M576.4,194.892a27.044,27.044,0,0,0,2.57,3.555l-.114-2.333-2.347-1.877Z" transform="translate(-564.846 -184.688)"/><path class="p" d="M580.926,203.016l-8.43.478c.4,2.629,1.019,6.741,1.174,8.348.237,2.444.237,4.06.237,4.06a30.622,30.622,0,0,0,4.337.355,9.5,9.5,0,0,0,3.115-.946Z" transform="translate(-564.513 -185.437)"/><g transform="translate(8.938 3.831)"><path class="p" d="M579.986,187.986s-2.279,3.107-4.7,3.867l-.621.07s-.691-.967-1.036-.07a1.968,1.968,0,0,0,.76,2.14.89.89,0,0,0,.828-.069l.276-.276a12.982,12.982,0,0,0,2.348,2.14c.967.552,1.381.967,1.864.483a6.194,6.194,0,0,0,1.519-3.106,30.208,30.208,0,0,0,.207-3.522S580.194,187.986,579.986,187.986Z" transform="translate(-573.54 -187.986)"/><path class="r" d="M580.574,190.477s-.069,1.312.345,1.588.414.76.138.829a1.661,1.661,0,0,1-.621,0" transform="translate(-574.128 -188.198)"/><path class="r" d="M578.7,193.648a1.746,1.746,0,0,0,1.8.345" transform="translate(-573.98 -188.469)"/><path class="k" d="M578.872,191.291c0,.239-.088.434-.2.434s-.2-.195-.2-.434.089-.434.2-.434S578.872,191.052,578.872,191.291Z" transform="translate(-573.961 -188.231)"/><path class="k" d="M581.717,191.076c0,.24-.089.434-.2.434s-.2-.194-.2-.434.088-.434.2-.434S581.717,190.836,581.717,191.076Z" transform="translate(-574.204 -188.213)"/></g><g transform="translate(0 36.3)"><path class="p" d="M564.138,224.432s-.268,1.575-.357,1.932a9.554,9.554,0,0,0,.357,2.05,9.639,9.639,0,0,0,1.307.742c.208.03.564-.089.534-.356s-.445-.268-.445-.268l-.416-.594.09-.357s.208.713.357.327a11.047,11.047,0,0,0,.237-1.217,2.66,2.66,0,0,0-.148-1.516c-.119-.356-.267-.772-.267-.772l.148-.683-1.336-.238Z" transform="translate(-563.769 -223.482)"/><line class="p" y1="1.099" x2="0.089" transform="translate(1.438 3.001)"/></g><path class="p" d="M573.158,199.915s1.75,15.094,1.531,19.8a47,47,0,0,1-6.344-.712s2.844-7.546,2.9-8.367a5,5,0,0,0-.657-2.078l-4.649,13.672-1.859-.547,4.812-19.359Z" transform="translate(-563.795 -185.172)"/><g transform="translate(27.195 8.641)"><path class="p" d="M594.391,204.251l.653-.476a2.839,2.839,0,0,0,1.07-.564,1.92,1.92,0,0,0,.3-.416,1.324,1.324,0,0,0,.951-.534,5.074,5.074,0,0,0,.208-1.813s.416-.534.386-.831-.327-.386-.653-.148-.5.356-.5.356l-1.783,1.783-.595.476a4.266,4.266,0,0,1-.327.862c-.178.3-.594.861-.594.861Z" transform="translate(-593.5 -193.764)"/><path class="p" d="M593.614,203.494l.668-1.032s.416-1.129.5-1.307A14.44,14.44,0,0,1,595.975,200c.09-.09.535-.981.743-1.07s.327.268.327.625a5.6,5.6,0,0,1-.772,1.485,3.862,3.862,0,0,1-.386,1.516,1.99,1.99,0,0,1-1.01.653" transform="translate(-593.51 -193.728)"/><line class="r" x1="3.714" y2="9.804" transform="translate(2.168)"/><path class="r" d="M596.667,203.035s-.3.238-.089-.891" transform="translate(-593.756 -194.004)"/><path class="r" d="M597.888,200.552s-.476.416-.653.209" transform="translate(-593.819 -193.868)"/></g><path class="p" d="M580.162,199.736s.984,12.2.984,15.367.055,4.429.055,4.429a8.126,8.126,0,0,1,1.531-.382,13.077,13.077,0,0,0,2.3-.711s-2.625-7.219-2.625-7.711.328-2.515.328-2.515,4.757,3.883,5.3,3.663,5.414-7.6,5.414-7.6l-.984-.711-5.305,4.047s-3.555-6.672-3.773-6.781S580.162,199.736,580.162,199.736Z" transform="translate(-565.167 -185.157)"/><path class="q" d="M582.972,208.707l.6-3.172.547,3.992Z" transform="translate(-565.407 -185.651)"/><line class="r" x1="1.148" y1="2.461" transform="translate(5.643 20.923)"/></g></g></svg>